<?xml version="1.0" encoding="UTF-8" standalone="no"?>
<!-- Created with Inkscape (http://www.inkscape.org/) -->

<svg
   version="1.1"
   id="svg1"
   width="1247.9753"
   height="172.91953"
   viewBox="0 0 1247.9754 172.91953"
   xml:space="preserve"
   xmlns="http://www.w3.org/2000/svg"
   xmlns:svg="http://www.w3.org/2000/svg"><defs
     id="defs1"><rect
       x="553.77002"
       y="202.14999"
       width="809.53186"
       height="459.70193"
       id="rect2655-6" /></defs><g
     id="g1"
     transform="translate(1881.6368,-855.65704)"><g
       id="g784"
       transform="translate(-2813.5991,-1449.6503)"><text
         xml:space="preserve"
         style="font-size:66.6667px;font-family:Arial;-inkscape-font-specification:Arial;text-align:center;writing-mode:lr-tb;direction:ltr;text-anchor:middle;opacity:0.984694;fill:none;stroke:#f6ff0e;stroke-width:1.88976;paint-order:markers fill stroke"
         x="258.66412"
         y="-191.26572"
         id="text2628-2"><tspan
           id="tspan2628-4"
           x="258.66412"
           y="-191.26572" /></text><text
         xml:space="preserve"
         id="text2655-9"
         style="font-style:normal;font-variant:normal;font-weight:normal;font-stretch:normal;font-size:66.6667px;font-family:'Segoe Print';-inkscape-font-specification:'Segoe Print, Normal';font-variant-ligatures:normal;font-variant-caps:normal;font-variant-numeric:normal;font-variant-east-asian:normal;text-align:center;writing-mode:lr-tb;direction:ltr;white-space:pre;shape-inside:url(#rect2655-6);display:inline;opacity:0.984694;fill:#182d3a;fill-opacity:1;stroke:#3b1a44;stroke-width:1.88976;stroke-opacity:1;paint-order:markers fill stroke" /><path
         id="path2-7-2"
         style="opacity:0.984694;fill:#d56b3e;fill-opacity:0.976471;stroke:#000000;stroke-width:5;stroke-dasharray:none;stroke-opacity:0.988235;paint-order:stroke markers fill"
         d="m 965.85275,2307.8266 c -9.07684,0.3794 -18.27671,-0.5057 -26.71485,2.0781 a 1.0375975,1.0375975 0 0 1 -0.0625,0.016 c -1.85223,0.4451 -2.79642,1.6056 -3.34961,3.2285 -0.55318,1.6229 -0.58247,3.6833 -0.32031,5.4473 a 1.0375975,1.0375975 0 0 1 0.006,0.047 c 2.74697,26.6775 1.76539,53.5502 1.81055,80.25 a 1.0375975,1.0375975 0 0 1 0,0.016 c -0.27922,20.4199 0.0952,40.9272 -2.64649,61.3008 -8e-5,0 8e-5,0.01 0,0.01 -0.0544,1.6908 -0.19998,3.565 -0.0234,5.2207 0.16378,1.5359 0.63021,2.7742 1.53321,3.6758 18.42945,-0.1502 36.85145,0.344 55.18554,-0.5078 1.85984,-0.1308 2.82245,-1.5992 2.54102,-3.4082 a 1.0375975,1.0375975 0 0 1 -0.0117,-0.1778 c 0.20628,-12.4315 -3.04068,-24.9858 -1.39062,-37.8027 a 1.0375975,1.0375975 0 0 1 0.004,-0.025 c 0.58708,-3.809 4.21269,-6.2155 7.91801,-5.75 l -0.2012,-0.01 c 11.6801,-0.8127 22.7858,2.7892 33.8984,3.586 1.2387,0.062 1.8836,-0.4827 2.4024,-1.459 0.519,-0.9769 0.7205,-2.3916 0.6015,-3.5234 a 1.0375975,1.0375975 0 0 1 -0.01,-0.1172 c 0.088,-12.4091 0.943,-24.8345 -0.6738,-36.9922 a 1.0375975,1.0375975 0 0 1 -0.01,-0.062 c -0.1023,-1.4366 -0.7107,-2.9121 -1.6348,-3.9063 -0.924,-0.9942 -2.0804,-1.5351 -3.5722,-1.3203 a 1.0375975,1.0375975 0 0 1 -0.088,0.01 c -9.8211,0.5801 -19.5598,2.9036 -29.625,3.5293 -4.32567,0.4164 -8.65518,0.7173 -12.98049,0.9785 a 1.0375975,1.0375975 0 0 1 -1.09766,-1.0878 c 0.38246,-7.4237 -0.97405,-15.3952 1.4668,-23.0391 a 1.0375975,1.0375975 0 0 1 0.0703,-0.168 c 1.22889,-2.3316 3.5567,-3.146 5.76953,-3.3183 2.21283,-0.1723 4.48552,0.1651 6.15432,0.1523 a 1.0375975,1.0375975 0 0 1 0.1152,0.01 c 14.3762,1.495 28.178,5.8758 42.2852,7.0136 a 1.0375975,1.0375975 0 0 1 0.059,0.01 c 2.3743,0.3274 4.6546,-1.3827 4.5019,-3.8242 a 1.0375975,1.0375975 0 0 1 0,-0.078 c 0.1512,-12.3058 -2.1677,-24.561 -2.875,-37.045 l -0.01,-0.098 c -0.5827,-3.9235 -0.3755,-7.8986 -1.707,-11.1465 -3.1405,-1.0901 -7.0622,-0.5251 -10.9336,-0.9551 l 0.088,0.01 c -22.1349,-0.5756 -44.28713,-0.7572 -66.43556,-0.7539 z m 2.77148,15.9941 a 1.0375975,1.0375975 0 0 1 1.35156,0.1953 c 0.1998,0.2328 0.3573,0.4599 0.46289,0.7442 0.10559,0.2842 0.15394,0.6706 -0.002,1.041 -0.15589,0.3704 -0.48845,0.6165 -0.76563,0.7148 -0.27717,0.098 -0.52118,0.1005 -0.75195,0.062 -0.46153,-0.076 -1.07714,-0.3702 -1.19922,-1.1367 -0.061,-0.3832 0.0731,-0.7631 0.25196,-1.0195 0.17887,-0.2565 0.39685,-0.4358 0.65234,-0.6016 z m 57.99417,0.08 c 1.3749,-0.037 2.9345,0.074 4.2089,1.1328 a 1.0375975,1.0375975 0 0 1 0.2383,0.2832 c 1.6935,2.9597 1.4099,6.6388 1.1875,9.334 a 1.0375975,1.0375975 0 0 1 -1.5879,0.791 c -4.9954,-3.1625 -9.2476,-7.4933 -14.8906,-7.6348 v 0 c -2.1571,-0.051 -4.2688,-0.097 -6.1152,0.3086 0.05,0.087 0.025,0.179 0.096,0.2715 0.2744,0.3604 0.7272,0.748 1.2754,1.1367 1.0963,0.7774 2.5504,1.5053 3.541,2.75 l -0.1465,-0.1484 c 2.1915,1.834 4.5367,3.5404 6.6523,5.6719 a 1.0375975,1.0375975 0 0 1 -0.8066,1.7656 c -6.3337,-0.4281 -10.7237,-5.4927 -14.8281,-8.9785 a 1.0375975,1.0375975 0 0 1 -0.029,-0.025 c -1.8028,-1.652 -4.0415,-2.2441 -6.56838,-2.4981 -2.52687,-0.2539 -5.28141,-0.1371 -7.92188,-0.5078 l 0.12696,0.01 c -5.40031,-0.087 -10.87688,-0.7182 -15.7461,0.625 -1.14199,15.914 -0.61638,32.0228 -0.83789,48.0996 0.11975,6.7311 -0.24086,13.498 0.14844,20.0332 0.96107,0.3139 2.10779,0.4162 3.43164,0.3613 1.57265,-0.065 3.28612,-0.2603 4.96289,-0.061 l -0.12304,-0.01 h 36.99996 a 1.0375975,1.0375975 0 0 1 1.0352,1.1094 c -0.1643,2.3658 0.4787,5.2261 -0.627,8.0019 a 1.0375975,1.0375975 0 0 1 -1.5898,0.4414 c -1.3673,-1.0367 -2.0995,-2.5441 -2.8809,-3.5254 -0.3906,-0.4906 -0.7662,-0.8369 -1.1308,-1.0136 -0.3647,-0.1768 -0.7332,-0.2444 -1.377,-0.076 a 1.0375975,1.0375975 0 0 1 -0.2148,0.033 c -11.5176,0.5279 -23.03868,0.094 -34.34377,1.3281 -1.58379,0.3684 -2.52715,1.3469 -3.16406,2.7402 -0.64178,1.404 -0.88233,3.2063 -0.84571,4.8262 a 1.0375975,1.0375975 0 0 1 -0.002,0.084 c -0.7481,12.7598 -0.10409,25.6953 -1.45117,38.582 a 1.0375975,1.0375975 0 0 1 -0.13672,0.418 c -0.80383,1.3715 -2.32648,1.7131 -3.59375,1.8008 -1.26727,0.088 -2.51427,0 -3.11914,0.1289 a 1.0375975,1.0375975 0 0 1 -0.21875,0.021 c -3.86322,-0.039 -8.04375,0.446 -12.04297,-0.4004 a 1.0375975,1.0375975 0 0 1 -0.80469,-0.8262 c -1.18296,-6.3951 -0.4077,-12.9097 -0.71093,-19.0996 a 1.0375975,1.0375975 0 0 1 0,-0.053 c 0.022,-14.8434 -0.22496,-29.7859 0.37695,-44.6328 a 1.0375975,1.0375975 0 0 1 1.9043,-0.5274 c 2.20914,3.3652 5.34152,6.147 8.25585,9.2363 a 1.0375975,1.0375975 0 0 1 -0.13867,1.5489 c -4.44433,3.2676 -8.31686,8.0742 -7.59179,13.623 a 1.0375975,1.0375975 0 0 1 0.008,0.1465 c -0.0522,4.2893 3.45799,7.6777 6.92578,10.1855 a 1.0375975,1.0375975 0 0 1 0.3457,1.2481 c -1.14419,2.6676 -3.16735,4.7625 -4.82422,6.8652 -1.61705,2.0522 -2.83379,4.0509 -2.93945,6.502 1.80712,4.7216 5.97808,8.443 9.51758,12.541 a 1.0375975,1.0375975 0 0 1 0.0723,0.092 c 0.51248,0.7502 1.1467,0.9409 1.83985,0.8359 0.69315,-0.1049 1.40359,-0.5822 1.7793,-1.3554 a 1.0375975,1.0375975 0 0 1 0.12695,-0.1993 c 0.89605,-1.1102 1.96901,-2.4785 2.46484,-3.7324 0.49583,-1.2539 0.55383,-2.1642 -0.50976,-3.2109 a 1.0375975,1.0375975 0 0 1 -0.0547,-0.059 c -1.53907,-1.7689 -3.40081,-3.3417 -5.18359,-5.0977 a 1.0375975,1.0375975 0 0 1 -0.084,-1.3847 c 1.72126,-2.1654 3.79354,-4.5446 5.0918,-7.0137 1.29236,-2.4579 1.82936,-4.8779 0.72851,-7.4844 -0.83148,-1.6279 -2.194,-3.0311 -3.62695,-4.5097 -1.44084,-1.4869 -2.95276,-3.0565 -3.86523,-5.125 a 1.0375975,1.0375975 0 0 1 0.0273,-0.8946 c 1.27705,-2.4752 3.41693,-4.3938 5.12109,-6.3633 1.67867,-1.9399 2.88148,-3.8245 2.84766,-6.2109 -0.56266,-2.1116 -1.87899,-3.8526 -3.46289,-5.5898 -1.61647,-1.773 -3.47805,-3.5198 -4.79883,-5.7227 a 1.0375975,1.0375975 0 0 1 0.0391,-1.127 c 2.78056,-3.9901 6.43953,-7.2937 8.52344,-11.2128 -1.16542,-1.4601 -2.69124,-2.7893 -4.25976,-4.209 -1.74558,-1.58 -3.49088,-3.3152 -4.45704,-5.6739 a 1.0375975,1.0375975 0 0 1 0.0293,-0.8496 c 1.12611,-2.2998 3.06041,-3.8609 4.75195,-5.4043 1.68912,-1.5412 3.12326,-3.0247 3.67774,-5.0332 0.57188,-2.1753 -0.25007,-3.803 -1.6836,-5.5507 -1.43448,-1.749 -3.46185,-3.411 -4.87304,-5.3672 l 0.21679,0.2207 c -0.5345,-0.4038 -0.91939,-0.7401 -1.14648,-1.295 -0.22709,-0.5548 0.0173,-1.3624 0.36719,-1.7011 0.65702,-0.636 1.2862,-0.7258 1.76367,-0.9356 1.71005,-1.2717 3.41098,-2.9551 4.50781,-4.8203 1.10554,-1.88 1.6092,-3.8849 1.07031,-5.9824 a 1.0375975,1.0375975 0 0 1 1.00391,-1.2949 c 16.73702,0.012 33.48959,-0.5789 50.26949,-0.6934 a 1.0375975,1.0375975 0 0 1 0.1856,0.016 c 0.9418,0.1647 2.2384,0.01 3.6133,-0.031 z m -72.7344,0.7148 c 1.78862,0 3.5804,-2e-4 5.37304,0.01 l -0.0156,0.016 a 1.0375975,1.0375975 0 0 1 0.0508,-0.02 c 0.75052,0.03 1.79294,0.016 2.78906,0.039 0.99612,0.023 1.89891,0.041 2.69922,0.3164 a 1.0375975,1.0375975 0 0 1 0.16602,1.8867 c -3.92878,2.1843 -7.93494,4.6863 -8.74805,8.9883 a 1.0375975,1.0375975 0 0 1 -0.006,0.027 c -0.58379,2.6706 0.22887,5.1126 1.72851,7.457 1.49965,2.3445 3.67966,4.512 5.62305,6.4219 a 1.0375975,1.0375975 0 0 1 0.0664,1.4082 c -1.71853,2.0422 -3.98541,3.9917 -5.58985,6.082 -1.59974,2.0843 -2.52022,4.1481 -1.89062,6.6934 0.90423,3.1453 3.87476,5.3584 6.57031,7.8008 a 1.0375975,1.0375975 0 0 1 0.0234,1.5156 c -2.3061,2.2265 -4.54492,4.5881 -7.00391,6.7813 a 1.0375975,1.0375975 0 0 1 -1.72851,-0.7344 c -0.68352,-17.8628 -1.15535,-35.7562 -1.14453,-53.6524 a 1.0375975,1.0375975 0 0 1 1.03711,-1.0371 z m 36.70117,9.6953 c 1.54843,0.1733 3.54778,0.048 5.52343,0.2852 1.97566,0.2376 4.0455,0.9124 5.3809,2.7988 a 1.0375975,1.0375975 0 0 1 0.1894,0.6192 c -0.01,0.3632 -0.1625,0.7624 -0.4023,1.0273 -0.2399,0.2649 -0.5165,0.4044 -0.7696,0.4942 -0.5061,0.1795 -0.97932,0.1955 -1.45504,0.2011 -0.95142,0.011 -2.02964,-0.021 -2.14453,0.01 a 1.0375975,1.0375975 0 0 1 -0.30664,0.025 c -3.3553,-0.2127 -7.5032,0.3791 -11.06445,-1.3926 a 1.0375975,1.0375975 0 0 1 -0.53125,-0.6348 c -0.26247,-0.8842 -0.18104,-1.8172 0.35547,-2.4277 0.5365,-0.6105 1.23991,-0.7713 1.86719,-0.8535 0.62727,-0.082 1.25128,-0.069 1.79882,-0.066 0.54754,0 1.03196,-0.02 1.20508,-0.061 a 1.0375975,1.0375975 0 0 1 0.35352,-0.022 z" /><path
         id="path3-19"
         style="opacity:0.984694;fill:#41beaf;fill-opacity:1;stroke:#000000;stroke-width:5;stroke-dasharray:none;stroke-opacity:0.988235;paint-order:stroke markers fill"
         d="m 1077.6941,2310.2855 c -7.0754,0.5247 -14.0251,-0.6077 -19.6036,1.6699 -0.9137,1.0339 -1.1579,2.3209 -1.0664,4.2578 0.099,2.0919 0.637,4.5763 0.3438,7.1621 l 0.01,-0.3535 c 1.9405,35.4397 2.1181,71.0371 1.0118,106.4785 v -0.1113 c 0.1782,8.4818 -1.9561,16.989 1.6464,23.4336 4.8574,5.6012 12.9261,8.015 20.252,12.084 l -0.088,-0.045 c 8.2778,4.103 17.1469,7.0201 26.0859,5.8457 a 2.1105235,2.1105235 0 0 1 0.084,-0.01 c 7.7748,-0.7074 14.7266,-6.0765 22.666,-9.7598 a 2.1105235,2.1105235 0 0 1 0.1426,-0.061 c 0.6125,-0.2313 1.7297,-0.9908 2.9785,-1.7441 1.2489,-0.7534 2.7811,-1.66 4.7754,-1.3184 a 2.1105235,2.1105235 0 0 1 1.6993,1.5977 c 0.5171,2.2049 0.4415,4.5259 0.8144,6.1582 0.1864,0.8161 0.4525,1.3914 0.7422,1.7246 0.2885,0.3319 0.5844,0.547 1.4023,0.6523 12.0894,1.2074 24.4838,0.4736 36.9239,0.3867 a 2.1105235,2.1105235 0 0 1 0.1972,0.01 c 1.9153,0.1655 3.395,-0.6389 4.5157,-2.0488 1.1207,-1.4099 1.7213,-3.4349 1.5,-5.2988 a 2.1105235,2.1105235 0 0 1 -0.012,-0.1426 c -1.0597,-21.1761 -1.7675,-42.3862 -1.7539,-63.6348 v -0.027 c 0,0 0,-0.01 0,-0.012 -0.4752,-26.9602 0.7456,-53.8367 1.3887,-80.6601 l 0.01,0.2168 c -0.141,-1.7785 0.099,-3.6988 -0.084,-4.8106 -0.091,-0.5559 -0.2526,-0.7474 -0.2246,-0.7226 0.028,0.025 0.081,-0.087 -0.6328,0.033 a 2.1105235,2.1105235 0 0 1 -0.3965,0.027 c -14.2431,-0.3169 -28.4875,-0.6098 -42.586,0.3066 -0.8103,0.073 -0.7145,0.1439 -0.7695,0.2422 -0.055,0.099 -0.1817,0.6431 -0.1133,1.502 0.1369,1.7178 1.0532,4.1321 0.5137,6.7715 l 0.041,-0.4669 c 0.6275,29.8926 2.1024,60.1984 -0.543,90.2442 a 2.1105235,2.1105235 0 0 1 0,0.01 c -0.1928,2.094 -0.3903,4.5222 -1.2265,6.8633 -0.8363,2.341 -2.4784,4.658 -5.2461,5.875 l 0.2871,-0.1543 c -2.5759,1.6485 -5.9107,3.7865 -9.584,4.8496 -3.6733,1.0631 -8.0296,0.8634 -11.3516,-2.3594 a 2.1105235,2.1105235 0 0 1 -0.1777,-0.1934 c -7.102,-8.85 -6.7732,-20.5891 -7.6152,-30.2168 a 2.1105235,2.1105235 0 0 1 -0.01,-0.123 c -0.7847,-27.1711 1.7243,-54.2094 1.9336,-81.1289 a 2.1105235,2.1105235 0 0 1 0.1289,-0.7109 c 0.3004,-0.8194 0.1954,-1.0697 0.1894,-1.084 -0.01,-0.014 -0.01,-0.082 -0.3847,-0.2442 -0.7506,-0.3237 -2.5807,-0.4773 -4.1836,-0.5761 -8.2179,-0.4015 -16.4863,-0.3933 -24.7813,-0.377 z m 4.3808,10.7793 c 1.4669,0.1041 3.068,0.3322 4.5078,1.3906 0.7199,0.5292 1.4115,1.3931 1.6192,2.4707 0.2076,1.0775 -0.072,2.1737 -0.6036,3.1504 a 2.1105235,2.1105235 0 0 1 -0.1054,0.1738 c -3.0542,4.5212 -6.4301,9.6033 -11.3067,13.043 a 2.1105235,2.1105235 0 0 1 -3.2988,-1.3848 c -0.9461,-5.8002 0.035,-11.5446 0.4258,-16.8437 a 2.1105235,2.1105235 0 0 1 2.1055,-1.9532 h 4.2812 l -0.2891,0.019 c 0.7832,-0.108 1.6885,-0.1356 2.6641,-0.066 z m 85.6953,1.8964 c 1.2671,0.016 2.6433,0.7797 3.2422,1.7911 0.599,1.0113 0.6614,1.9768 0.6777,2.8632 0.033,1.769 -0.241,3.5394 -0.1699,4.3438 0.1357,0.8494 0.312,1.4671 -0.2129,2.5547 -0.2746,0.5691 -1.1026,1.2677 -1.8828,1.3574 -0.7802,0.09 -1.2489,-0.1551 -1.5781,-0.334 -1.3169,-0.7156 -1.7739,-1.539 -2.2949,-2.1016 a 2.1105235,2.1105235 0 0 1 -0.1055,-0.123 c -0.5892,-0.7445 -1.609,-1.6744 -2.6191,-2.7754 -1.0101,-1.101 -2.0876,-2.4348 -2.4414,-4.2754 a 2.1105235,2.1105235 0 0 1 1.1113,-2.2773 c 1.8544,-0.9482 3.5849,-0.7034 4.6308,-0.7481 l -0.5488,0.096 c 0.7593,-0.241 1.4674,-0.38 2.1914,-0.3711 z m -13.332,11.2188 c 0.6123,-0.1099 1.2207,0.086 1.5723,0.3008 a 2.1105235,2.1105235 0 0 1 0.5761,0.5195 c 4.0343,5.2776 10.2428,9.8282 13.5391,16.9629 a 2.1105235,2.1105235 0 0 1 0.125,0.3496 c 1.5649,5.9602 2.4571,13.431 -1.5371,19.4902 a 2.1105235,2.1105235 0 0 1 -0.7403,0.6836 c -1.3874,0.7678 -2.66,0.9058 -3.5195,1.1543 -0.8594,0.2486 -1.1877,0.403 -1.5117,0.9258 a 2.1105235,2.1105235 0 0 1 -0.2266,0.3027 c -2.0552,2.2753 -4.4539,4.6985 -7.0156,6.4688 a 2.1105235,2.1105235 0 0 1 -3.3086,-1.8164 c 0.1537,-4.0004 2.2934,-7.0762 4.5664,-9.6016 2.273,-2.5253 4.7456,-4.6831 6.2285,-6.8379 a 2.1105235,2.1105235 0 0 1 0.3262,-0.3711 c 0.9445,-0.8499 1.7268,-2.0656 1.957,-3.0527 0.2303,-0.9871 0.1657,-1.6101 -0.7343,-2.4434 a 2.1105235,2.1105235 0 0 1 -0.3926,-0.4902 c -3.3678,-5.8107 -9.7517,-11.0877 -11.8281,-19.1016 a 2.1105235,2.1105235 0 0 1 -0.066,-0.5292 c 0,-0.3192 4e-4,-0.5511 0.1289,-1.0586 0.064,-0.2538 0.087,-0.571 0.5644,-1.1172 0.2386,-0.2731 0.6846,-0.6284 1.2969,-0.7383 z m -66.5586,7.9629 a 2.1105235,2.1105235 0 0 1 1.8281,2.5117 c -1.0676,5.3068 -3.3821,9.9188 -4.414,14.3965 0.5785,1.6249 1.5092,3.585 2.3945,5.6972 0.9684,2.3107 1.8837,4.7131 1.6152,7.2618 a 2.1105235,2.1105235 0 0 1 -3.6289,1.2324 c -4.0946,-4.3085 -8.8757,-9.0183 -11.5332,-14.8711 a 2.1105235,2.1105235 0 0 1 0.01,-1.7617 c 2.7289,-5.8756 7.9144,-10.3326 12.1094,-13.9668 a 2.1105235,2.1105235 0 0 1 1.6211,-0.5 z m 67.7812,11.0176 c 2.1278,0.905 3.1705,3.1367 3.0137,4.998 -0.1568,1.8613 -1.1788,3.6325 -3.0683,4.4395 a 2.1105235,2.1105235 0 0 1 -2.8965,-1.5215 c -0.1989,-0.9788 -0.3262,-2.1608 -0.3399,-3.3477 -0.014,-1.1869 -0.022,-2.2852 0.5508,-3.5176 a 2.1105235,2.1105235 0 0 1 2.7402,-1.0507 z m -80.916,21.3672 a 2.1105235,2.1105235 0 0 1 2.125,0.5312 c 3.3037,3.3358 7.9098,6.9566 9.6934,12.4668 a 2.1105235,2.1105235 0 0 1 -0.047,1.4336 c -2.4321,6.0939 -7.3459,10.2357 -11.0156,14.4082 a 2.1105235,2.1105235 0 0 1 -3.6895,-1.5332 c 0.5395,-8.1913 -0.045,-17.2479 1.4825,-25.668 a 2.1105235,2.1105235 0 0 1 1.4511,-1.6387 z m 95.3926,5.1816 a 2.1105235,2.1105235 0 0 1 1.2109,1.5273 c 1.5902,8.2818 -0.1935,16.4972 -0.4843,24.0528 a 2.1105235,2.1105235 0 0 1 -0.051,0.3808 c 0.024,-0.1062 -0.033,0.3628 -0.055,0.8555 -0.022,0.4927 -0.038,1.0693 -0.1523,1.709 -0.057,0.3198 -0.1293,0.6582 -0.3379,1.0859 -0.2086,0.4277 -0.647,1.0706 -1.4981,1.3535 -0.851,0.283 -1.6967,0 -2.1758,-0.2871 -0.4791,-0.2918 -0.7889,-0.6169 -1.1074,-0.9922 -3.645,-4.2451 -8.6465,-8.7998 -10.1855,-15.3379 a 2.1105235,2.1105235 0 0 1 0.3301,-1.7011 c 3.2065,-4.5481 7.3689,-9.4211 12.5605,-12.5313 a 2.1105235,2.1105235 0 0 1 1.9453,-0.1152 z m -82.3281,21.5117 a 2.1105235,2.1105235 0 0 1 1.4687,1.5273 l 0.023,0.096 a 2.1105235,2.1105235 0 0 1 0.059,0.502 c 1e-4,1.0398 0.2213,2.5042 0.2832,4.0957 0.062,1.5915 -0.024,3.4263 -1.0801,5.1094 a 2.1105235,2.1105235 0 0 1 -1.1367,0.8867 c -1.7293,0.5599 -3.1858,2.056 -3.8047,3.7422 -0.6189,1.6862 -0.4917,3.3752 0.7851,4.8437 a 2.1105235,2.1105235 0 0 1 0.2872,0.4258 c 4.8278,9.4563 14.5544,16.1125 25.1523,16.7363 a 2.1105235,2.1105235 0 0 1 0.041,0 c 15.0166,1.178 30.1811,-3.1062 44.4922,-8.2343 a 2.1105235,2.1105235 0 0 1 1.8516,0.2109 c 2.0599,1.3222 3.6174,3.0474 5.1054,4.4668 1.1881,1.1334 2.3021,1.9419 3.4356,2.4766 0.7653,-0.6253 1.1481,-1.4727 1.0879,-2.8379 -0.076,-1.7271 -0.9634,-3.811 -1.9219,-4.8594 a 2.1105235,2.1105235 0 0 1 -0.2734,-0.3711 c -2.9771,-5.1776 -8.9172,-9.9289 -10.7461,-17.2851 a 2.1105235,2.1105235 0 0 1 0.5097,-1.9532 c 0.813,-0.8672 2.2572,-1.2683 3.2813,-1.0449 1.0241,0.2234 1.6941,0.7308 2.2793,1.2129 1.1703,0.9642 2.25,2.1355 2.289,2.1621 a 2.1105235,2.1105235 0 0 1 0.4727,0.4414 c 1.0168,1.2989 2.6904,2.6489 4.3398,4.2129 1.6494,1.564 3.3586,3.4317 3.9453,6.0508 a 2.1105235,2.1105235 0 0 1 0.051,0.3867 c 0.3361,9.5143 1.0356,19.147 0.545,28.8984 a 2.1105235,2.1105235 0 0 1 -3.5293,1.4532 c -5.7946,-5.2885 -9.7657,-12.2057 -16.0372,-14.2442 -5.9294,-0.2396 -11.8589,3.6903 -18.7285,5.7344 l 0.078,-0.025 c -6.8067,2.3146 -13.8146,6.4949 -21.9356,7.3125 a 2.1105235,2.1105235 0 0 1 -1.1426,-0.207 c -7.9039,-3.891 -13.9727,-10.2043 -20.2695,-15.3125 a 2.1105235,2.1105235 0 0 1 -0.1465,-0.1309 c -4.9271,-4.83 -11.3677,-9.4813 -15.1601,-16.2988 a 2.1105235,2.1105235 0 0 1 -0.086,-1.8809 c 2.8744,-6.4846 6.9111,-12.7412 12.0801,-17.7832 a 2.1105235,2.1105235 0 0 1 2.0547,-0.5195 z m -14.0781,31.0391 a 2.1105235,2.1105235 0 0 1 1.4941,1.1914 c 2.0978,4.6048 7.3952,7.8539 12.0059,11.8711 a 2.1105235,2.1105235 0 0 1 0.01,0.01 c 0.751,0.6629 2.0787,1.5069 3.3828,2.4785 1.3042,0.9716 2.7126,2.0605 3.3809,3.9219 a 2.1105235,2.1105235 0 0 1 -2.4824,2.7636 c -7.9553,-1.9221 -15.0161,-6.885 -20.1543,-12.9394 a 2.1105235,2.1105235 0 0 1 -0.3028,-0.4707 c -0.5878,-1.2573 -0.766,-2.6321 -0.7304,-4.0645 0.035,-1.4323 0.1359,-2.971 1.5527,-4.2578 a 2.1105235,2.1105235 0 0 1 1.8438,-0.5039 z" /><path
         id="path4-18"
         style="opacity:0.984694;fill:#d7af33;fill-opacity:1;stroke:#000000;stroke-width:5;stroke-dasharray:none;stroke-opacity:0.988235;paint-order:stroke markers fill"
         d="m 1219.9245,2309.5433 c -6.5626,0.5793 -13.0989,0.06 -17.9551,2.6269 -0.5583,0.9108 -0.6966,2.0408 -0.5312,3.7344 0.185,1.8945 0.7377,4.1588 0.416,6.6367 l 0.018,-0.3886 c 1.8556,43.7368 1.8169,87.6275 -0.3399,131.3496 a 2.2695868,2.2695868 0 0 1 0,0.055 c -0.204,2.7647 -0.7092,5.85 -0.5274,8.375 0.1745,2.4217 0.7509,3.9981 2.6036,5.0761 9.4418,2.0654 19.6281,1.3919 29.8925,2.0899 0.013,8e-4 0.025,0 0.037,0 6.433,-0.236 12.6639,0.7978 17.6758,-0.9864 0.6511,-1.0258 0.866,-2.2907 0.7559,-4.0957 -0.1253,-2.0542 -0.6329,-4.4669 -0.3535,-7.0215 l -0.012,0.3536 c -0.985,-20.7118 -2.0525,-41.5357 -1.3965,-62.4063 a 2.2695868,2.2695868 0 0 1 4.1191,-1.2402 c 14.9844,21.1598 30.8994,41.9243 43.6445,64.8359 a 2.2695868,2.2695868 0 0 1 0.062,0.1172 c 1.8564,3.8509 4.2088,7.7287 6.8536,10.791 10.9091,-0.3156 21.6759,0.8004 31.8613,-0.8008 1.2276,-0.2065 1.6941,-0.7082 2.1133,-1.6679 0.4201,-0.9618 0.5419,-2.4251 0.3203,-3.7559 a 2.2695868,2.2695868 0 0 1 -0.025,-0.2187 c -2.8591,-41.8501 -1.8888,-83.9201 0.5058,-125.6758 0.1778,-8.5268 1.9941,-16.6562 2.3985,-24.5508 -0.175,-0.5378 -0.3668,-0.8664 -0.7578,-1.123 -0.4511,-0.2961 -1.2057,-0.547 -2.1758,-0.6856 -1.9402,-0.2771 -4.4868,-0.044 -6.8555,-0.4258 l 0.3184,0.029 c -12.2951,-0.2306 -24.5501,-1.1642 -36.377,0.2813 -1.564,0.8708 -1.9832,2.0836 -2.082,4.248 -0.104,2.2795 0.4165,5.1157 0.4004,7.7793 l -0.01,-0.2148 c 1.6132,18.1699 3.2677,36.5596 2.1621,55.0293 a 2.2695868,2.2695868 0 0 1 -0.041,0.3164 c -0.1048,0.5169 -0.2658,1.1217 -0.8808,1.7226 -0.6151,0.601 -1.7502,0.8383 -2.4278,0.6953 -1.3551,-0.2859 -1.6894,-0.8854 -2.1465,-1.3554 -0.457,-0.47 -0.8472,-0.9485 -1.1562,-1.3047 -0.309,-0.3562 -0.7801,-0.6199 -0.2149,-0.3164 a 2.2695868,2.2695868 0 0 1 -0.6464,-0.5215 c -16.4575,-19.161 -29.1789,-40.8569 -44.6719,-60.127 a 2.2695868,2.2695868 0 0 1 -0.076,-0.1 c -2.8584,-3.9905 -6.8594,-6.8272 -11.5332,-6.6601 a 2.2695868,2.2695868 0 0 1 -0.3301,-0.012 c -4.1689,-0.4595 -8.3901,-0.5774 -12.6328,-0.4902 z m 98.7891,10.207 a 2.2695868,2.2695868 0 0 1 2.2715,2.9824 c -0.6502,1.9533 -1.9403,2.517 -3.0039,3.2793 -1.0636,0.7624 -2.0864,1.5325 -2.334,1.8321 a 2.2695868,2.2695868 0 0 1 -0.2559,0.2636 c -0.2043,0.1784 -1.2637,1.1957 -2.2539,1.9141 -0.2475,0.1796 -0.492,0.3487 -0.8281,0.5176 -0.3361,0.1688 -0.7155,0.5958 -1.9727,0.2461 -0.6285,-0.1749 -1.3537,-0.8386 -1.5879,-1.4336 -0.2341,-0.595 -0.1875,-1.0069 -0.1464,-1.3086 0.082,-0.6035 0.2451,-0.9319 0.4394,-1.3438 a 2.2695868,2.2695868 0 0 1 0.2227,-0.373 c 1.9258,-2.6253 4.8389,-6.3347 9.4492,-6.5762 z m -100.0664,3.6113 c 0.5701,-0.021 1.1339,0.082 1.623,0.252 l -0.623,-0.1211 c 2.3898,0.126 5.5687,-0.034 8.3222,1.3457 a 2.2695868,2.2695868 0 0 1 0.9551,3.1504 c -1.8254,3.214 -4.5397,5.7727 -6.3379,8.293 -1.7981,2.5202 -2.6974,4.5582 -1.7949,7.4199 a 2.2695868,2.2695868 0 0 1 0.094,0.4492 c 0.078,0.7597 0.5278,1.1961 1.1211,1.4004 0.5932,0.2043 1.1476,0.1596 1.6835,-0.4278 a 2.2695868,2.2695868 0 0 1 0.4082,-0.3535 c 5.1755,-3.4828 9.1955,-8.9214 13.9219,-13.8203 a 2.2695868,2.2695868 0 0 1 2.6114,-0.4707 c 1.6695,0.7982 2.9511,2.4849 2.8828,4.2656 -0.068,1.7808 -1.1608,3.1496 -2.5215,4.0801 l 0.4785,-0.4414 c -6.9117,8.4986 -15.5715,15.0505 -20.6602,23.6895 -0.532,1.9406 0.1236,3.3995 1.6426,5.291 1.5695,1.9542 3.9369,3.9037 5.7031,6.2363 l -0.096,-0.1191 c 1.9216,2.212 4.7422,4.8606 6.8379,8.0547 2.0958,3.194 3.4625,7.2978 1.8379,11.5918 a 2.2695868,2.2695868 0 0 1 -0.1367,0.2968 c -4.115,7.4369 -11.607,10.9638 -15.1777,16.4121 -0.576,1.6755 -0.8972,3.4801 -0.7422,5.0313 0.163,1.6323 0.7252,2.9325 2.0332,4.0078 a 2.2695868,2.2695868 0 0 1 0.3594,0.373 c 4.181,5.4536 10.8695,10.2141 14.0878,17.8692 a 2.2695868,2.2695868 0 0 1 0.127,0.4004 c 0.1241,0.5765 0.2559,1.029 0.08,1.8633 -0.088,0.4171 -0.3197,1.0394 -0.9297,1.5136 -0.61,0.4742 -1.4253,0.5623 -1.9121,0.4883 -0.9736,-0.148 -1.2584,-0.4886 -1.6016,-0.7558 -0.3432,-0.2673 -0.6384,-0.547 -0.9394,-0.8457 -0.6021,-0.5974 -1.2097,-1.2684 -1.7344,-1.8164 -0.5247,-0.5481 -1.1389,-1.0085 -0.8945,-0.8711 a 2.2695868,2.2695868 0 0 1 -0.2383,-0.1543 c -1.6789,-1.2415 -3.0556,-2.9584 -4.3086,-3.8829 -0.6265,-0.4622 -1.1415,-0.6658 -1.3828,-0.6933 -0.2408,-0.028 -0.3066,-0.073 -0.7754,0.3496 -1.026,0.9335 -2.1101,2.2525 -2.4883,3.2168 -0.1894,0.483 -0.2133,0.8245 -0.166,1.0703 0.047,0.2459 0.1357,0.4906 0.6191,0.9043 a 2.2695868,2.2695868 0 0 1 0.459,0.5352 c 2.3412,3.808 7.8559,7.2357 9.584,13.4804 a 2.2695868,2.2695868 0 0 1 -1.332,2.7071 c -3.5478,1.4449 -8.4735,2.4678 -12.5996,0.1582 a 2.2695868,2.2695868 0 0 1 -1.1016,-1.4649 c -1.8952,-8.1268 -0.546,-16.2799 -1.041,-23.6289 a 2.2695868,2.2695868 0 0 1 -0.01,-0.1523 c -9e-4,-33.4195 -0.5054,-66.9102 0.459,-100.4024 a 2.2695868,2.2695868 0 0 1 0.1094,-0.6387 c -0.068,0.2097 -0.027,-0.9968 0.3086,-2.3496 0.1677,-0.6763 0.5128,-1.6414 1.5351,-2.2949 0.5112,-0.3267 1.0862,-0.4717 1.6563,-0.4922 z m 106.457,6.4043 a 2.2695868,2.2695868 0 0 1 1.3984,1.7442 c 1.2886,7.9491 0.9831,16.1212 0.3536,23.916 a 2.2695868,2.2695868 0 0 1 -0.3028,0.9629 c -0.3029,0.5177 -0.9621,1.1493 -1.7871,1.3281 -0.825,0.1788 -1.5004,-0.065 -1.9219,-0.2871 -0.8428,-0.4439 -1.1817,-0.9111 -1.5566,-1.3496 -0.3749,-0.4385 -0.6985,-0.8688 -0.9453,-1.1738 -0.2468,-0.3051 -0.6201,-0.5021 -0.086,-0.2012 a 2.2695868,2.2695868 0 0 1 -0.6622,-0.5625 c -2.6806,-3.3681 -6.1654,-6.9176 -8.4316,-11.041 a 2.2695868,2.2695868 0 0 1 0.9277,-3.0996 c 3.7702,-1.9941 6.3337,-6.5461 10.7989,-9.9356 a 2.2695868,2.2695868 0 0 1 2.2148,-0.3008 z m -76.4375,9.3125 a 2.2695868,2.2695868 0 0 1 1.7793,0.9336 l 3.8047,5.2305 a 2.2695868,2.2695868 0 0 1 0.072,0.1055 c 1.0339,1.6056 3.2355,3.7102 4.08,6.5351 a 2.2695868,2.2695868 0 0 1 -1.4843,2.8125 c -3.1187,0.996 -6.2696,0.9197 -8.9727,1.1875 -2.5872,0.2564 -4.5605,0.7866 -6.0703,2.1836 -0.6978,1.3573 -0.9984,2.9793 -1.1719,4.9238 -0.1858,2.0838 -0.2508,4.4564 -1.0703,6.8887 a 2.2695868,2.2695868 0 0 1 -3.7363,0.8985 c -1.9396,-1.8943 -5.3477,-4.1046 -6.7813,-7.6915 a 2.2695868,2.2695868 0 0 1 0.3262,-2.248 c 5.6096,-7.1067 11.7736,-13.9308 17.4004,-20.916 a 2.2695868,2.2695868 0 0 1 1.8242,-0.8438 z m 61.4649,15.6856 a 2.2695868,2.2695868 0 0 1 2.1992,0 l 0.1093,0.061 a 2.2695868,2.2695868 0 0 1 0.5196,0.3945 c 2.8997,2.9511 7.4136,6.3573 8.5508,11.8262 a 2.2695868,2.2695868 0 0 1 -0.1231,1.3222 c -1.6569,4.0513 -5.305,7.042 -8.998,8.5606 a 2.2695868,2.2695868 0 0 1 -3.0606,-1.5352 c -1.6354,-6.3767 -0.6723,-12.9619 -0.3633,-18.7656 a 2.2695868,2.2695868 0 0 1 1.1661,-1.8633 z m -47.7579,9.9629 c 3.1974,0.3521 6.3881,2.3594 7.5918,5.9277 0,0 0,0.01 0.01,0.012 3.0635,6.0975 4.5865,13.5744 2.7207,20.209 a 2.2695868,2.2695868 0 0 1 -3.8789,0.8965 c -6.37,-7.1371 -11.52,-15.2695 -16.8867,-22.5996 a 2.2695868,2.2695868 0 0 1 0.748,-3.334 c 2.6037,-1.4117 5.1791,-0.9307 6.6953,-1.0391 l -0.207,0.025 c 1.0642,-0.1754 2.1448,-0.2151 3.2109,-0.098 z m 61.5762,13.7148 c 0.6026,0 1.4763,0.402 1.8867,0.9356 0.7346,0.955 0.586,1.4797 0.5117,1.9003 0.293,8.3212 0.3279,16.9862 -0.2382,25.2891 a 2.2695868,2.2695868 0 0 1 -3.877,1.4414 c -3.7473,-3.7882 -8.9058,-7.5114 -11.7207,-13.2598 a 2.2695868,2.2695868 0 0 1 -0.1133,-1.7148 c 1.7747,-5.3256 6.624,-8.183 9.0684,-11.1738 a 2.2695868,2.2695868 0 0 1 1.6133,-0.8301 c -0.9606,0.061 -1.0001,0.3292 -1.0586,0.375 -0.059,0.046 -0.012,0.012 0.053,-0.055 0.1301,-0.1334 0.3653,-0.4023 0.6211,-0.6973 0.2558,-0.2949 0.5355,-0.6195 0.8359,-0.9336 0.3005,-0.314 0.4915,-0.6095 1.2286,-0.9863 0.2455,-0.1255 0.5868,-0.2946 1.1894,-0.291 z m -44.0391,1.25 a 2.2695868,2.2695868 0 0 1 2.2325,0.8008 c 4.7344,5.9026 5.1809,13.6879 6.1992,19.8359 a 2.2695868,2.2695868 0 0 1 0.023,0.1934 c 0.2776,3.5221 0.9181,8.3669 -0.2754,12.1172 a 2.2695868,2.2695868 0 0 1 -3.998,0.6484 c -1.2731,-1.7498 -3.2752,-3.6706 -4.9219,-6.0137 -1.6467,-2.343 -2.9431,-5.413 -2.1328,-8.8847 l -0.049,0.3086 c 0.4749,-5.1799 -0.3879,-11.5471 1.1953,-17.3789 a 2.2695868,2.2695868 0 0 1 1.7265,-1.627 z m 16.711,27.5801 a 2.2695868,2.2695868 0 0 1 1.9687,0.6738 c 2.2268,2.3231 3.6222,5.0694 5.0411,7.4434 1.1732,1.9631 2.3912,3.5132 3.8105,4.6816 0.2098,-0.2845 0.4433,-0.7901 0.6172,-1.4902 0.3569,-1.4368 0.4039,-3.4137 0.8476,-5.2813 l -0.055,0.3321 c 0.082,-0.9693 -0.02,-2.3207 0.496,-3.8555 0.129,-0.3837 0.2821,-0.8503 0.8575,-1.3789 0.5753,-0.5286 1.8439,-0.8118 2.6191,-0.5469 1.4811,0.5061 1.7563,1.2793 2.2871,2.2109 1.3427,1.4055 2.6624,3.1365 3.291,5.2852 0.6726,2.2991 0.2354,5.257 -1.9414,7.3457 l 0.1719,-0.1816 c -4.1943,5.0212 -8.6124,10.5369 -14.3086,14.6347 a 2.2695868,2.2695868 0 0 1 -3.2246,-0.5976 c -4.5281,-6.903 -4.088,-15.3465 -4.6348,-22.2207 a 2.2695868,2.2695868 0 0 1 -0.01,-0.2266 c 0.011,-0.5258 -0.051,-1.4567 -0.061,-2.418 -0.01,-0.9612 -0.1243,-1.9129 0.5332,-3.1992 a 2.2695868,2.2695868 0 0 1 1.6914,-1.2109 z m -61.4531,0.3144 a 2.2695868,2.2695868 0 0 1 2.1386,2.1895 c 0.036,1.0713 0.1818,2.6792 0.1953,4.2851 0.014,1.606 0.075,3.1926 -0.9003,4.836 a 2.2695868,2.2695868 0 0 1 -3.6114,0.3887 c -0.5142,-0.552 -2.0611,-1.5517 -3.2558,-3.0723 -0.5974,-0.7603 -1.2677,-1.967 -0.9356,-3.4219 0.3321,-1.4549 1.4672,-2.3715 2.7305,-2.998 l -0.375,0.2343 c 0.035,-0.027 0.5318,-0.5315 1.0703,-1.0488 0.2692,-0.2586 0.5624,-0.5338 0.9746,-0.8066 0.4122,-0.2728 0.9835,-0.6421 1.9688,-0.586 z m 89.1425,19.5665 a 2.2695868,2.2695868 0 0 1 1.2657,3.2792 c -3.8173,6.7022 -9.2376,12.6341 -15.4766,17.1524 a 2.2695868,2.2695868 0 0 1 -0.8809,0.3867 c -0.4676,0.094 -1.0756,0.2412 -1.9687,-0.2285 -0.8931,-0.4697 -1.3709,-1.7606 -1.332,-2.4023 0.078,-1.2836 0.4997,-1.5941 0.8183,-2.0801 0.3186,-0.4861 0.6596,-0.9242 0.9278,-1.2676 0.134,-0.1717 0.2493,-0.3188 0.3203,-0.4121 0.071,-0.093 0.1429,-0.2775 -0.047,0.1074 a 2.2695868,2.2695868 0 0 1 0.3496,-0.5156 c 4.1349,-4.5819 8.3009,-10.0698 14.0938,-13.7754 a 2.2695868,2.2695868 0 0 1 1.9296,-0.2441 z m -1.3027,17.0781 a 2.2695868,2.2695868 0 0 1 2.2734,0.8457 c 0.8449,1.1093 1.164,2.5287 0.9883,3.7558 -0.1756,1.2271 -0.7434,2.2649 -1.4629,3.1172 -1.4389,1.7047 -3.5238,2.8965 -5.955,2.7403 l 0.8105,-0.096 c -0.9011,0.2762 -1.661,0.4415 -2.4824,0.4277 -0.4107,-0.01 -0.8522,-0.051 -1.3731,-0.2774 -0.5209,-0.2259 -1.1562,-0.7413 -1.4492,-1.4589 -0.5859,-1.4354 0.087,-2.435 0.5625,-3.0625 0.4752,-0.6276 1.0535,-1.1343 1.7832,-1.668 l -0.096,0.074 c 1.3165,-1.0741 3.0664,-3.6953 6.4004,-4.3985 z" /><path
         style="opacity:0.984694;fill:#d4ad32;fill-opacity:1;stroke:#000000;stroke-width:5;stroke-dasharray:none;stroke-opacity:1;paint-order:stroke markers fill"
         d="m 1223.2282,2378.5389 c -1.9662,3.7845 -4.7825,8.1045 -3.2627,12.5425 0.9738,3.1811 4.6381,5.1209 7.7955,3.9775 2.5069,-0.7616 4.7492,-2.7773 5.666,-5.2363 0.05,-2.6806 -1.9064,-4.9302 -3.461,-6.9434 -1.7672,-1.7341 -3.7437,-3.4014 -5.8825,-4.593 -0.2996,-0.1924 -0.5732,0.193 -0.8553,0.2527 z"
         id="path7-0" /><path
         style="opacity:0.984694;fill:#a15789;fill-opacity:1;stroke:#000000;stroke-width:5;stroke-dasharray:none;stroke-opacity:1;paint-order:stroke markers fill"
         d="m 1385.1789,2380.8816 c -2.6807,0.5689 -4.4733,2.9969 -6.4122,4.7534 -1.6625,1.8576 -4.2134,4.1435 -3.2675,6.9122 1.162,2.1527 3.6074,3.2894 5.7828,4.1748 2.3815,0.8755 4.6546,-1.4636 5.5351,-3.4224 -0.152,-3.8519 0.3102,-7.7735 -0.2871,-11.5864 -0.1938,-0.5599 -0.7746,-0.8751 -1.3511,-0.8316 z"
         id="path8-4" /><path
         style="opacity:0.984694;fill:#a15789;fill-opacity:1;stroke:#000000;stroke-width:5;stroke-dasharray:none;stroke-opacity:1;paint-order:stroke markers fill"
         d="m 1418.6535,2379.867 c -4.066,0.1888 -7.0038,3.6784 -8.8632,6.9683 -1.3523,2.5862 0.7254,5.1888 2.3944,7.0203 2.6619,3.1814 6.6147,5.869 10.9146,5.5461 1.4363,-0.1362 1.5665,-1.9377 0.6534,-2.7949 -2.3966,-3.6885 -3.8172,-8.43 -2.0176,-12.6412 0.8464,-1.411 0.219,-3.3181 -1.376,-3.8154 -0.5407,-0.213 -1.1267,-0.2935 -1.7056,-0.2832 z"
         id="path9-7" /><path
         id="path10-7"
         style="opacity:0.984694;fill:#a3588b;fill-opacity:1;stroke:#000000;stroke-width:5;stroke-dasharray:none;stroke-opacity:1;paint-order:stroke markers fill"
         d="m 1364.8762,2310.2797 c -2.5847,-0.01 -5.0947,0.098 -7.4961,0.6133 a 1.4188749,1.4188749 0 0 1 -0.01,0 c -2.1724,0.4501 -3.5217,2.5647 -3.3789,4.8008 a 1.4188749,1.4188749 0 0 1 0,0.061 c 0.1625,8.0317 1.5672,16.1261 1.5996,24.455 0.4352,24.5162 0.3693,49.097 -0.07,73.6289 a 1.4188749,1.4188749 0 0 1 0,0.024 c -0.5125,15.0472 -0.902,30.2218 -2.709,45.248 -3e-4,0 0,0.01 0,0.01 -0.1087,1.8835 -0.5645,3.6917 -0.7676,5.3399 -0.1954,1.5863 -0.1404,2.9454 0.4258,4.1582 0.9378,1.1008 2.1999,1.5815 3.8457,1.793 1.6822,0.216 3.6358,0.1102 5.5078,0.2226 12.3126,-0.1231 24.6165,-0.227 36.8223,-1.2187 a 1.4188749,1.4188749 0 0 1 0.053,0 c 0.8932,-0.039 1.8833,-0.3868 2.5332,-0.9063 0.6499,-0.5195 0.9808,-1.0889 0.9316,-1.9375 a 1.4188749,1.4188749 0 0 1 0,-0.1309 c 0.5369,-15.5971 -0.079,-31.4014 0.7188,-47.0761 a 1.4188749,1.4188749 0 0 1 2.5508,-0.7793 c 11.0038,14.6699 21.4482,29.9192 31.0429,45.4648 a 1.4188749,1.4188749 0 0 1 0.039,0.066 c 0.8401,1.5414 1.78,3.1696 2.8848,4.3477 1.1032,1.1764 2.2642,1.8879 3.8281,1.9297 6.792,0.043 13.6557,-1.5076 20.7676,-2.0645 l 0.09,-0.01 c 7.235,-1.0156 14.6133,-0.9092 20.7012,-4.0196 a 1.4188749,1.4188749 0 0 1 0.01,0 c 3.0168,-1.5123 5.3072,-4.521 4.8984,-7.8066 a 1.4188749,1.4188749 0 0 1 -0.01,-0.082 c -0.4082,-6.1179 -5.8817,-10.4552 -10.4121,-15.1894 a 1.4188749,1.4188749 0 0 1 -0.053,-0.059 c -8.0324,-9.3795 -14.8826,-19.5989 -22.2187,-29.3164 a 1.4188749,1.4188749 0 0 1 -0.02,-0.027 c -5.7208,-7.9624 -11.8316,-15.7488 -17.2637,-24.0546 v 0 c -0.9415,-1.3213 -0.9585,-2.9261 -0.5176,-4.1524 0.4414,-1.2275 1.2265,-2.2083 1.9551,-2.9922 l -0.127,0.1582 c 12.6134,-18.1647 25.9687,-35.7606 39.5957,-53.1367 2.8556,-3.9061 6.4404,-6.9449 8.4981,-10.6758 0.2976,-0.8092 0.1198,-1.3638 -0.4238,-1.9941 -0.5605,-0.6498 -1.5688,-1.198 -2.4551,-1.3555 a 1.4188749,1.4188749 0 0 1 -0.07,-0.014 c -8.7597,-2.0177 -18.006,-1.7422 -27.2539,-2.1777 -7.723,-0.014 -15.4042,-0.6957 -22.6289,0.9199 a 1.4188749,1.4188749 0 0 1 -0.064,0.012 c -0.8362,0.1475 -1.4253,0.5583 -1.959,1.2188 -0.5338,0.6605 -0.9576,1.5786 -1.2461,2.5352 a 1.4188749,1.4188749 0 0 1 -0.094,0.2343 c -0.5295,1.0376 -1.2921,1.6414 -1.7891,2.1426 -0.4969,0.5013 -0.7197,0.8003 -0.7832,1.2402 a 1.4188749,1.4188749 0 0 1 -0.1328,0.4258 c -4.9336,9.9738 -11.2043,19.2099 -17.1855,28.416 a 1.4188749,1.4188749 0 0 1 -0.023,0.035 c -2.6824,3.8607 -5.2063,7.9564 -8.5411,11.5859 a 1.4188749,1.4188749 0 0 1 -2.4629,-0.8945 c -0.5597,-12.4802 -0.2431,-25.0428 -0.01,-37.4707 v 0.1 c -0.1027,-2.0181 0.2606,-3.9528 0.3829,-5.6973 0.1176,-1.6782 0,-3.0956 -0.6641,-4.3457 -1.0022,-1.0479 -2.2743,-1.4056 -3.959,-1.5 -1.7432,-0.098 -3.7628,0.134 -5.7598,-0.074 l 0.1387,0.01 c -6.44,-0.035 -12.8853,-0.023 -19.334,-0.022 h -0.064 c -2.6635,0.1187 -5.2975,0 -7.8613,0 z m 19.748,12.7832 -0.047,0.01 c 0.9242,-0.1108 1.8536,0.1196 2.5137,0.625 0.6601,0.5053 1.0258,1.1762 1.2617,1.8105 0.472,1.2685 0.5271,2.5765 0.6504,3.2969 a 1.4188749,1.4188749 0 0 1 0.016,0.1191 c 1.2242,14.3324 0.9831,28.7491 1.209,43.043 a 1.4188749,1.4188749 0 0 1 0,0.02 c 0.056,27.3816 0.1867,54.8711 -0.6953,82.2285 a 1.4188749,1.4188749 0 0 1 -0.037,0.2774 c 0.015,-0.065 -0.012,0.1782 -0.012,0.4765 6e-4,0.2984 0.013,0.6675 -0.059,1.1153 -0.072,0.4477 -0.25,1.1615 -1.0039,1.5937 -0.7539,0.4322 -1.5581,0.2391 -2.1641,-0.043 l 0.4238,0.1211 c -1.214,-0.1517 -2.7624,-0.2113 -4.1308,-0.5333 a 1.4188749,1.4188749 0 0 1 -0.8086,-2.2343 c 2.805,-3.7207 5.272,-7.7343 4.9082,-12.1133 a 1.4188749,1.4188749 0 0 1 0,-0.062 c -0.2846,-7.5004 -5.7709,-13.739 -10.8926,-19.5469 l -0.01,-0.01 c 0,-0.01 -0.01,-0.011 -0.014,-0.016 -1.1156,-1.2072 -2.4269,-2.5713 -3.4472,-4.1933 -1.0266,-1.632 -1.7616,-3.5963 -1.4961,-5.793 l -0.01,0.1055 c 0.012,-0.2763 -0.07,-1.0753 0.07,-1.9043 0.035,-0.2073 0.062,-0.4329 0.2714,-0.7774 0.1046,-0.1722 0.2723,-0.3898 0.5645,-0.5605 0.2922,-0.1708 0.7056,-0.2414 1.0234,-0.1914 0.6356,0.1 0.8723,0.3985 1.0704,0.6172 0.198,0.2187 0.3468,0.4429 0.5097,0.7148 l -0.1094,-0.1582 c 3.3251,4.1602 6.5597,8.4645 10.918,10.8379 0.076,0.018 0.1621,0.039 0.1699,0.035 0.012,-0.01 0.1213,-0.086 0.2403,-0.3242 0.2378,-0.4762 0.3573,-1.4763 0.2871,-1.9668 a 1.4188749,1.4188749 0 0 1 -0.01,-0.096 c -0.3218,-4.299 -1.2685,-8.7434 -3.8223,-11.9004 -3.0412,-2.3894 -6.5593,-4.8417 -8.6172,-8.8007 -2.5591,-4.6432 -4.0126,-11.0712 -0.7617,-16.1426 a 1.4188749,1.4188749 0 0 1 0.078,-0.1094 c 4.7802,-6.1103 10.768,-11.1205 13.1133,-17.9766 0.6287,-2.5875 0.097,-5.7152 -1.4746,-7.7832 -0.2322,-0.1895 -0.3866,-0.2604 -0.5664,-0.2597 -0.2047,8e-4 -0.5191,0.088 -0.9043,0.3105 -0.7678,0.4435 -1.6817,1.369 -2.4063,2.1211 -10e-4,0 0,0 0,0 -10e-4,0 0,0 0,0 -2.429,2.5602 -4.6922,5.3345 -7.0586,8.0801 a 1.4188749,1.4188749 0 0 1 -2.4707,-0.6719 c -0.674,-3.7058 1.2818,-6.992 3.6055,-9.3047 l -0.049,0.049 c 4.8805,-5.3474 10.481,-10.4578 11.0351,-17.3633 a 1.4188749,1.4188749 0 0 1 0.01,-0.092 c 0.6877,-4.6871 -0.6993,-9.4327 -3.041,-13.6816 l 0.059,0.096 c -0.2465,-0.3735 -0.4716,-0.6364 -0.5332,-1.2813 -0.031,-0.3225 0.058,-0.8215 0.3457,-1.1797 0.288,-0.3582 0.6405,-0.4975 0.875,-0.5605 0.469,-0.126 0.6918,-0.08 0.9082,-0.074 0.2165,0.01 0.3954,0.01 0.5235,0 z m 75.4141,2.125 c 0.2223,0.016 0.4646,0.037 0.7949,0.1738 0.3303,0.1365 0.8443,0.5206 1.0039,1.1133 0.1597,0.5928 -0.031,1.0583 -0.1992,1.3633 -0.1176,0.2125 -0.271,0.3745 -0.4199,0.5449 -1.7425,2.9481 -3.5461,5.9105 -5.6875,8.7266 a 1.4188749,1.4188749 0 0 1 -2.2774,-0.027 c -2.3122,-3.1929 -3.5787,-6.8181 -6.0508,-8.6855 a 1.4188749,1.4188749 0 0 1 0.4649,-2.4961 c 3.6008,-1.0335 7.1616,-0.5248 10.3242,-0.6992 a 1.4188749,1.4188749 0 0 1 0.332,0.02 c -0.067,-0.012 0.2337,0.01 0.5625,-0.012 0.3289,-0.018 0.708,-0.053 1.1524,-0.022 z m -87.2461,4.2617 a 1.4188749,1.4188749 0 0 1 1.0781,0.209 c 1.2362,0.8245 2.6186,2.0003 3.5235,3.5508 0.8995,1.5414 1.2025,3.7017 -0.02,5.543 -1.1552,1.9949 -2.7043,3.574 -4.127,5.0527 a 1.4188749,1.4188749 0 0 1 -2.4375,-1.0547 c 0.1889,-3.7768 -0.411,-8.0427 0.7949,-12.2598 a 1.4188749,1.4188749 0 0 1 0.066,-0.1855 c 0.2288,-0.5147 0.8478,-0.807 1.0801,-0.8516 0.2323,-0.045 0.2754,-0.053 0.041,0 z m 69.3359,2.5567 a 1.4188749,1.4188749 0 0 1 1.2657,2.0097 c -0.3699,0.8053 -0.1749,1.3565 0.4043,2.334 0.5791,0.9775 1.5627,2.0646 2.1835,3.4727 l -0.049,-0.1 c 0.9852,1.8311 2.6081,4.0455 2.7989,6.7675 a 1.4188749,1.4188749 0 0 1 -1.1953,1.502 c -5.4283,0.852 -11.0981,0.5612 -14.9414,3.6816 a 1.4188749,1.4188749 0 0 1 -0.057,0.043 c -1.3201,0.9678 -1.8118,2.2617 -1.8457,3.8477 -0.034,1.5859 0.4941,3.3966 1.2695,4.8496 a 1.4188749,1.4188749 0 0 1 0.09,0.207 c 0.1897,0.5521 0.6225,1.2899 1.0625,2.1269 0.44,0.8371 0.9159,1.8047 0.9336,2.9961 a 1.4188749,1.4188749 0 0 1 -0.5606,1.1524 c -1.1789,0.8948 -2.5329,1.0457 -3.6757,1.0801 -1.1429,0.034 -2.1655,-0.023 -2.877,0.1074 a 1.4188749,1.4188749 0 0 1 -0.037,0.01 c -1.6092,0.251 -3.1995,0.1168 -4.5312,0.2247 -1.3317,0.1078 -2.2586,0.3736 -2.9512,1.1738 a 1.4188749,1.4188749 0 0 1 -1.4863,0.1484 1.4188749,1.4188749 0 0 1 0.2968,1.584 l -0.1679,0.293 -0.037,0.066 a 1.4188749,1.4188749 0 0 1 -0.072,0.1172 c -0.4633,0.6787 -0.9644,1.8302 -1.0372,2.6308 -0.036,0.4003 0.023,0.6813 0.1075,0.8438 0.083,0.1602 0.1794,0.2799 0.5586,0.416 1.1042,0.3674 2.4981,0.4267 4.0039,0.457 1.5109,0.03 3.1311,0.027 4.7148,0.5703 a 1.4188749,1.4188749 0 0 1 0.8594,1.8594 c -1.4186,3.6264 -3.5382,6.4732 -3.0488,9.6035 a 1.4188749,1.4188749 0 0 1 0.016,0.2129 c 0.021,4.4706 3.8089,7.9904 6.6093,12.3106 a 1.4188749,1.4188749 0 0 1 -1.0195,2.1796 c -3.9063,0.4764 -7.7221,0.4607 -11.252,1.1368 0.01,0.1433 0.034,0.3383 0.1407,0.6328 0.2473,0.6853 0.8003,1.553 1.0312,2.709 l -0.1094,-0.3321 c 0.425,0.8926 0.6266,1.2473 0.7579,1.8555 0.033,0.152 0.1859,0.2887 -0.062,0.9199 -0.1243,0.3156 -0.5763,0.7868 -1.0489,0.8848 -0.4725,0.098 -0.7519,-0.033 -0.916,-0.1094 -0.6564,-0.3065 -0.5655,-0.4191 -0.6992,-0.5762 -0.5348,-0.6284 -1.2162,-1.6607 -1.7461,-2.3945 a 1.4188749,1.4188749 0 0 1 -0.031,-0.045 c -3.6117,-5.4406 -7.8828,-10.5213 -11.748,-16.002 a 1.4188749,1.4188749 0 0 1 -0.129,-0.2246 c -0.9706,-2.1029 -0.3278,-4.2241 0.6094,-5.8183 0.9372,-1.5942 2.1666,-2.937 2.8281,-3.9844 a 1.4188749,1.4188749 0 0 1 0.066,-0.098 c 2.8912,-3.8302 5.7359,-7.6802 8.4239,-11.625 a 1.4188749,1.4188749 0 0 1 1.5918,-0.3964 1.4188749,1.4188749 0 0 1 -0.2442,-1.5586 c 7.0203,-10.1932 13.9537,-20.4716 20.7364,-30.8047 a 1.4188749,1.4188749 0 0 1 0.055,-0.078 c 1.0143,-1.3382 2.0101,-2.8382 2.9648,-4.246 a 1.4188749,1.4188749 0 0 1 1.1973,-0.6211 z m -3.2011,23.2949 a 1.4188749,1.4188749 0 0 1 0.1308,0.029 c 0.6383,0.1764 1.3303,0.9401 1.375,1.625 0.045,0.6849 -0.2069,1.1183 -0.5508,1.4824 -0.1719,0.182 -0.3844,0.3578 -0.7246,0.4785 -0.3402,0.1207 -0.8892,0.1452 -1.3418,-0.1133 -0.4526,-0.2584 -0.678,-0.6774 -0.7754,-0.9961 -0.074,-0.2415 -0.07,-0.4487 -0.072,-0.6601 -0.051,-0.4791 0.1087,-1.0604 0.5079,-1.4297 0.4084,-0.3779 0.9811,-0.4996 1.4511,-0.416 z m -6.2539,54.4355 a 1.4188749,1.4188749 0 0 1 0.064,0 c 0.8178,0.026 2.1645,-0.048 3.5097,0.2481 0.6726,0.1479 1.3766,0.3935 2,0.9004 0.6235,0.5068 1.107,1.3142 1.2383,2.2207 a 1.4188749,1.4188749 0 0 1 0,0.4023 c -0.3531,2.4896 -1.6351,4.4666 -2.9102,6.2188 -1.1375,1.5631 -2.1731,2.9689 -2.8945,4.3925 2.0992,3.6991 3.8593,7.6061 7.127,9.2422 1.9937,0.56 4.2009,0.2879 6.6328,-0.051 2.4771,-0.3449 5.19,-0.7372 7.9551,0.2051 a 1.4188749,1.4188749 0 0 1 0.6132,0.4121 c 0.5039,0.5789 0.7384,1.3578 0.7149,2.0196 -0.024,0.6617 -0.2318,1.2126 -0.4629,1.6914 -0.4623,0.9575 -1.0758,1.7516 -1.2676,2.1211 a 1.4188749,1.4188749 0 0 1 -0.09,0.1464 c -1.1484,1.6785 -2.557,3.1869 -3.5078,4.6875 -0.9508,1.5007 -1.4415,2.8493 -1.0938,4.4922 a 1.4188749,1.4188749 0 0 1 -2.4882,1.1875 c -4.559,-5.6037 -9.2898,-11.2105 -13.3438,-17.3437 a 1.4188749,1.4188749 0 0 1 -0.2168,-0.5527 c -0.1917,-1.1674 -0.8931,-2.1561 -1.8945,-3.2559 -1.0015,-1.0998 -2.2741,-2.2388 -3.2149,-3.7852 l 0.094,0.1328 c -3.2983,-4.2412 -6.7792,-8.7527 -9.791,-13.0292 a 1.4188749,1.4188749 0 0 1 1.1094,-2.2344 c 3.9993,-0.141 8.0362,-0.41 12.1172,-0.4688 z m 12.58,11.9727 c 0.8277,0.1428 1.4971,0.5065 2.127,0.9629 0.3187,0.2309 0.6141,0.484 0.8789,0.8086 0.2648,0.3245 0.5781,0.7342 0.5586,1.4629 a 1.4188749,1.4188749 0 0 1 -0.918,1.291 c -0.3018,0.1137 -1.0646,0.5279 -2.0273,0.6699 -0.4814,0.071 -1.1303,0.091 -1.7696,-0.334 -0.6322,-0.4208 -0.9433,-1.2064 -0.9843,-1.8965 -0.06,-0.2406 -0.1695,-0.5811 -0.1309,-1.164 0.023,-0.3433 0.085,-0.8317 0.5391,-1.3008 0.4507,-0.4659 1.2168,-0.5943 1.7265,-0.5 z m -73.6972,12.0898 a 1.4188749,1.4188749 0 0 1 1.4824,0.5899 c 2.0539,3.0341 4.4528,6.7154 4.3613,11.0293 a 1.4188749,1.4188749 0 0 1 -0.016,0.1855 c -0.5338,3.4718 -3.596,5.2612 -5.5312,6.7031 a 1.4188749,1.4188749 0 0 1 -2.2637,-1.2363 c 0.3642,-5.2013 8e-4,-10.6308 0.873,-16.1094 a 1.4188749,1.4188749 0 0 1 1.0938,-1.1621 z m 91.6113,10.5879 h 0.014 0.012 a 1.4188749,1.4188749 0 0 1 0.9648,0.377 c 2.2937,2.1239 3.9051,4.8057 5.4844,7.0215 a 1.4188749,1.4188749 0 0 1 -1.0156,2.2363 c -4.5439,0.4552 -9.0254,0.7022 -13.3008,1.6523 a 1.4188749,1.4188749 0 0 1 -1.3555,-2.3418 c 2.5335,-2.7687 4.822,-6.3101 8.4082,-8.707 a 1.4188749,1.4188749 0 0 1 0.7891,-0.2383 z" /><path
         style="fill:#ef9f48;fill-opacity:0.976471;stroke:#000000;stroke-width:5;stroke-dasharray:none;stroke-opacity:0.988235;paint-order:stroke markers fill"
         d="m 1611.8842,2474.5429 c -6.2039,-1.5704 -9.8073,-3.3467 -14.5412,-7.168 -5.0114,-4.0453 -11.7811,-10.9526 -11.7811,-12.0205 0,-0.4179 -1.1407,-2.1465 -2.5349,-3.8413 -10.6601,-12.9594 -16.0711,-39.938 -13.6921,-68.268 2.5922,-30.8697 12.0686,-54.2686 25.7344,-63.5432 9.8115,-6.6587 24.7213,-11.8282 34.2958,-11.891 4.6873,-0.031 6.6237,0.6781 7.7862,2.8503 1.5879,2.9669 5.6332,32.7092 5.6332,41.4167 v 4.629 l -1.5427,-0.01 c -0.8486,0 -3.9411,-0.5056 -6.8724,-1.1146 -6.9943,-1.4531 -8.7456,-1.4066 -12.2195,0.3245 -9.8614,4.9141 -16.4922,22.4416 -15.6866,41.4647 0.3495,8.2508 1.5562,13.7266 4.3527,19.7515 2.2236,4.7904 6.1687,9.6198 9.2301,11.2989 2.6526,1.4549 13.5184,1.2229 17.9174,-0.3825 5.6831,-2.074 7.0651,-1.426 7.0651,3.313 0,2.1009 -3.0089,24.7647 -4.5387,34.187 -1.2733,7.8425 -4.3063,9.6653 -16.4991,9.9159 -6.2877,0.1293 -8.7022,-0.053 -12.1066,-0.915 z m 12.5264,-13.518 c 3.3857,-0.9402 4.7344,-2.5913 6.6208,-8.1053 0.95,-2.777 1.8611,-5.8369 2.0246,-6.7997 l 0.2972,-1.7507 -6.3642,-0.2455 c -7.4544,-0.2875 -10.5909,-1.4451 -15.5422,-5.736 -10.6578,-9.2362 -15.4959,-21.1911 -16.1742,-39.9664 -0.3768,-10.43 0.2844,-17.0637 2.6201,-26.2867 4.9422,-19.5149 15.4229,-32.2938 27.2657,-33.2444 2.2137,-0.1777 3.8069,-0.5803 3.9691,-1.003 0.4135,-1.0777 -1.5206,-16.1458 -2.175,-16.9444 -0.316,-0.3857 -1.2157,-0.7013 -1.9994,-0.7013 -1.756,0 -12.3701,3.5824 -15.891,5.3633 -3.4133,1.7266 -8.1069,6.0734 -12.6143,11.6823 -4.3902,5.463 -10.9455,18.4015 -12.5993,24.8679 -4.5074,17.6241 -3.9918,51.8568 0.9615,63.8363 0.7655,1.8513 1.654,4.2496 1.9745,5.3295 0.5718,1.9272 6.3545,13.3468 8.1331,16.0614 1.2662,1.9323 9.3267,8.3158 13.3991,10.6112 5.4211,3.0558 11.7286,4.2439 16.0939,3.0315 z"
         id="path12" /><path
         style="fill:#ef9f48;fill-opacity:0.976471;stroke:#000000;stroke-width:5;stroke-dasharray:none;stroke-opacity:0.988235;paint-order:stroke markers fill"
         d="m 1609.898,2339.8697 c -1.2017,-0.3229 -3.6254,-2.2942 -4.2286,-3.4394 -0.8866,-1.6831 -0.6801,-3.3371 0.5729,-4.5893 0.8664,-0.8659 1.8403,-1.25 3.513,-1.3854 1.3393,-0.1085 3.1185,-0.7148 5.9957,-2.0434 3.0757,-1.4202 4.7885,-1.9499 6.5217,-2.0166 1.4069,-0.054 2.2136,0.2135 2.6323,0.8738 0.4022,0.6342 0.3477,1.3681 -0.1811,2.4391 -0.4025,0.8153 -0.8625,1.4249 -1.8182,2.4097 -1.321,1.3612 -2.3863,2.1974 -4.9106,3.8545 -4.2389,2.7827 -5.8197,3.6798 -6.8804,3.9045 -0.5889,0.1248 -0.7278,0.1239 -1.2167,-0.01 z"
         id="path13" /><path
         style="fill:#ef9f48;fill-opacity:0.976471;stroke:#000000;stroke-width:5;stroke-dasharray:none;stroke-opacity:0.988235;paint-order:stroke markers fill"
         d="m 1600.9499,2352.0025 c -0.8397,-0.4465 -2.5414,-2.1617 -3.1939,-3.2192 -0.5885,-0.9538 -0.9751,-2.2178 -0.9735,-3.1829 10e-4,-0.8061 0.2582,-1.7585 0.658,-2.4394 1.0391,-1.77 2.9733,-2.2307 4.8136,-1.1466 0.5981,0.3523 1.3559,1.0278 2.9329,2.6144 1.2323,1.2398 1.2835,1.3023 1.1981,1.4623 -0.2207,0.4134 -2.4317,4.0043 -2.7368,4.4448 -1.0737,1.5502 -1.7994,1.9446 -2.6984,1.4666 z"
         id="path14" /><path
         style="fill:#ef9f48;fill-opacity:0.976471;stroke:#000000;stroke-width:5;stroke-dasharray:none;stroke-opacity:0.988235;paint-order:stroke markers fill"
         d="m 1586.2078,2373.0055 c -0.1199,-0.3125 0.081,-1.4061 0.9428,-5.1426 0.4909,-2.1273 0.9915,-4.3141 1.1125,-4.8595 0.7646,-3.4477 3.2982,-8.8849 4.7522,-10.1985 0.3708,-0.335 0.4315,-0.3561 0.8712,-0.3035 0.6675,0.08 1.6473,0.5729 2.0083,1.0107 0.5037,0.6106 0.7178,1.3189 0.7704,2.5492 0.083,1.9315 -0.5164,4.1661 -1.8203,6.789 -1.4249,2.8664 -3.002,5.0403 -5.5504,7.6508 -2.2511,2.306 -2.9464,2.8701 -3.0867,2.5044 z"
         id="path15" /><path
         style="fill:#ef9f48;fill-opacity:0.976471;stroke:#000000;stroke-width:5;stroke-dasharray:none;stroke-opacity:0.988235;paint-order:stroke markers fill"
         d="m 1588.8583,2400.9159 c -0.2437,-0.1206 -0.7859,-0.5654 -1.2049,-0.9884 -2.3213,-2.3432 -3.3695,-4.338 -3.8207,-7.2714 -0.2103,-1.3672 -0.1365,-3.875 0.1572,-5.3424 0.9165,-4.5783 3.4672,-8.0839 6.8874,-9.4654 1.2983,-0.5245 1.3907,-0.029 0.7485,4.0105 -0.6079,3.8244 -0.9179,7.6226 -1.0835,13.2766 -0.054,1.8545 -0.1471,3.7066 -0.2063,4.1157 -0.1566,1.0822 -0.5479,1.869 -0.9355,1.8811 -0.055,0 -0.2985,-0.096 -0.5422,-0.2163 z"
         id="path16" /><path
         style="fill:#ef9f48;fill-opacity:0.976471;stroke:#000000;stroke-width:5;stroke-dasharray:none;stroke-opacity:0.988235;paint-order:stroke markers fill"
         d="m 1591.8049,2416.8627 c -0.314,-0.1291 -0.9834,-0.4686 -1.4876,-0.7545 -3.9961,-2.2658 -5.5869,-4.4142 -4.9909,-6.7405 0.1358,-0.53 1.5023,-3.4439 1.7317,-3.6926 0.077,-0.083 2.6875,1.9741 3.4655,2.7314 1.7269,1.6809 2.7967,4.4283 2.8315,7.2716 0.011,0.8604 -0.015,1.0359 -0.1766,1.2149 -0.2475,0.2741 -0.6555,0.2651 -1.3736,-0.03 z"
         id="path17" /><path
         style="fill:#ef9f48;fill-opacity:0.976471;stroke:#000000;stroke-width:5;stroke-dasharray:none;stroke-opacity:0.988235;paint-order:stroke markers fill"
         d="m 1599.1684,2443.6871 c -0.787,-0.2394 -1.548,-0.9439 -1.9891,-1.8413 -0.3064,-0.6233 -0.5841,-1.7315 -0.587,-2.3427 0,-0.6592 -1.3891,-3.2602 -4.0625,-7.6241 -2.3413,-3.8218 -3.6858,-6.8067 -3.5267,-7.8296 0.039,-0.2482 0.077,-0.6299 0.085,-0.8481 0.014,-0.3639 -0.01,-0.3956 -0.2331,-0.3843 -0.1363,0.01 -0.3928,0.072 -0.5699,0.1455 -0.2834,0.1174 -0.3421,0.1131 -0.4907,-0.036 -0.3931,-0.393 -0.018,-1.4348 0.6941,-1.9283 0.544,-0.377 1.482,-0.4328 2.2393,-0.1332 3.07,1.2146 7.4314,6.8917 9.768,12.7146 1.2708,3.1669 1.786,6.1261 1.3613,7.8195 -0.4179,1.6668 -1.5534,2.6329 -2.6887,2.2875 z"
         id="path18" /><path
         style="fill:#ef9f48;fill-opacity:0.976471;stroke:#000000;stroke-width:5;stroke-dasharray:none;stroke-opacity:0.988235;paint-order:stroke markers fill"
         d="m 1621.4018,2455.8564 c -4.636,-0.2732 -10.6229,-2.098 -13.7525,-4.1919 -1.4495,-0.9698 -2.7346,-2.4366 -3.1365,-3.5799 -0.2218,-0.631 -0.2419,-1.5016 -0.046,-1.9715 0.2122,-0.508 0.8761,-1.1731 1.466,-1.4688 0.8328,-0.4176 1.5977,-0.5729 2.8209,-0.5729 2.1951,0 4.1778,0.6296 6.7149,2.1322 1.0403,0.6161 3.0911,1.6389 4.269,2.1291 1.7243,0.7177 2.7856,1.0091 4.2242,1.1602 1.461,0.1534 2.0427,0.3601 2.4144,0.8581 0.2291,0.3068 0.3114,0.8865 0.419,2.9503 l 0.07,1.3399 -0.2592,0.3081 c -0.6519,0.7746 -2.3702,1.0741 -5.2045,0.9071 z"
         id="path19" /><path
         style="fill:#ef9f48;fill-opacity:0.976471;stroke:#000000;stroke-width:5;stroke-dasharray:none;stroke-opacity:0.988235;paint-order:stroke markers fill"
         d="m 1673.6479,2472.6757 c -4.2482,-2.0898 -7.5528,-4.5414 -11.5521,-8.5704 -9.4167,-9.4867 -8.6204,-2.6683 -8.379,-71.7467 0.1415,-40.4927 -0.083,-62.7775 -0.6929,-68.7802 -1.0472,-10.3068 -0.648,-11.6711 3.7739,-12.8992 4.3819,-1.2169 29.7148,-1.0879 31.2748,0.1593 2.0245,1.6185 2.1317,3.7785 0.9956,20.0525 -1.6341,23.4064 -2.9041,68.3466 -2.2903,81.047 0.4269,8.8336 0.8568,11.7638 2.0023,13.6473 3.1159,5.1237 11.43,6.9981 17.382,3.9186 2.9904,-1.5472 3.723,-2.4075 4.6071,-5.41 1.7091,-5.8046 2.547,-36.6496 2.0053,-73.8226 -0.2769,-19.0026 -0.2653,-35.4989 0.026,-36.6584 0.7773,-3.097 4.3323,-3.7566 20.2745,-3.7617 h 13.8072 l -0.7164,25.5866 c -0.9087,32.4521 -0.9231,90.8136 -0.028,114.1303 l 0.6882,17.9326 -2.4069,2.6953 -2.407,2.6954 -13.1913,0.2672 c -14.3491,0.2906 -15.5033,0.01 -15.5033,-3.8354 0,-3.6791 -0.9413,-7.1425 -1.9411,-7.1425 -0.5221,0 -3.423,1.9997 -6.4462,4.4437 -12.1808,9.8469 -20.3571,11.4297 -31.2819,6.0557 z m 57.7864,-13.5702 c 0.1873,-1.3242 -0.6232,-2.7913 -2.7395,-4.9586 -1.6531,-1.6929 -3.2902,-3.078 -3.638,-3.078 -0.3478,0 -0.6323,1.7649 -0.6323,3.922 0,3.1653 0.3443,4.1647 1.7851,5.1805 2.4733,1.7438 4.8972,1.2493 5.2247,-1.0659 z m -36.5045,-1.0161 c 1.7064,-1.0249 6.9879,-4.7945 11.7367,-8.3767 12.532,-9.4538 12.7739,-9.5618 17.4308,-7.7833 2.1454,0.8193 5.2796,2.9751 7.2036,4.9548 2.0282,2.0869 3.7816,3.2724 4.3344,2.9307 0.6804,-0.4205 0.7928,-3.8597 0.4208,-12.8746 -0.2791,-6.7654 -0.6855,-12.4787 -0.903,-12.6962 -0.2175,-0.2175 -1.8382,1.2436 -3.6015,3.2469 -3.8368,4.3588 -7.7486,6.9169 -10.5773,6.9169 -1.14,0 -3.954,1.1963 -6.2534,2.6585 -12.6273,8.0296 -25.2061,8.1288 -32.1209,0.2533 -1.396,-1.5901 -2.9465,-4.413 -3.4454,-6.2733 -0.499,-1.8602 -1.0733,-3.6545 -1.2764,-3.9871 -0.6259,-1.0255 -2.3082,0.4096 -6.2889,5.3651 -2.1031,2.6182 -4.0177,4.9388 -4.2545,5.157 -0.9552,0.8799 -2.6581,6.0848 -2.6516,8.1045 0.014,4.326 7.6982,11.4887 14.8328,13.8261 4.6045,1.5085 11.6102,0.8619 15.4138,-1.4226 z m -27.6514,-30.78 c 0.4547,-0.8497 2.2192,-3.1537 3.9211,-5.1201 5.849,-6.758 6.1349,-11.8142 1.0938,-19.3496 -2.3421,-3.501 -3.5511,-4.5922 -5.3195,-4.8013 l -2.2886,-0.2706 0.5221,3.8093 c 0.2872,2.095 1.4112,5.0922 2.4979,6.6602 2.5829,3.7271 2.4925,5.8519 -0.4044,9.5095 -1.9414,2.4514 -2.3801,3.7518 -2.3801,7.0563 0,4.1967 0.9261,5.1812 2.3577,2.5063 z m 62.3646,-6.9083 c 3.8895,-4.2462 5.8888,-9.0395 5.8888,-14.1177 0,-4.3395 -9e-4,-4.3411 -5.6013,-9.7276 -3.0807,-2.963 -5.9936,-5.5252 -6.473,-5.6937 -1.0664,-0.3749 -0.2454,12.5022 0.8681,13.6157 0.4336,0.4336 1.4016,0.3581 2.4238,-0.1889 2.1396,-1.1451 4.8155,-0.3522 4.8155,1.4269 0,0.7422 -1.4779,3.128 -3.2842,5.3018 -3.8852,4.6756 -5.5289,8.2129 -4.9122,10.5711 0.6765,2.587 3.2661,2.0969 6.2745,-1.1876 z m -53.6271,-28.2725 c 0.01,-0.781 -0.7019,-2.8196 -1.5746,-4.5303 -1.9114,-3.7466 -1.9004,-3.54 -0.2739,-5.1665 0.7221,-0.7221 1.4816,-3.0682 1.6877,-5.2137 0.346,-3.6002 0.2408,-3.9007 -1.365,-3.9007 -4.5474,0 -7.1893,3.9598 -7.1893,10.7756 0,4.2942 0.1715,4.6789 3.624,8.1314 2.909,2.909 3.7676,3.3972 4.3515,2.4741 0.4001,-0.6324 0.7329,-1.7889 0.7396,-2.5699 z m 59.6157,-5.7827 c 0.6459,-7.1439 0.8092,-18.2022 0.2767,-18.7347 -0.7462,-0.7461 -12.2772,11.7258 -12.2772,13.2789 0,1.7118 9.4505,11.622 10.6934,11.2136 0.4459,-0.1465 1.0341,-2.7375 1.3071,-5.7578 z m -63.8155,-20.1134 c 5.6312,-5.3842 7.7705,-10.3245 5.4679,-12.6272 -1.1305,-1.1304 -1.6284,-0.8476 -5.4327,3.0851 -4.858,5.022 -7.2831,9.561 -6.5879,12.3306 0.2645,1.0539 0.7419,1.9144 1.0608,1.9122 0.319,0 2.7903,-2.1176 5.4919,-4.7007 z m 59.4427,-3.4151 c 5.6062,-4.9223 6.6987,-11.8592 2.7595,-17.5222 -3.2123,-4.6179 -8.4859,-9.5549 -9.5222,-8.9144 -2.2414,1.3852 0.061,11.0792 2.8677,12.0768 2.2195,0.7887 4.2011,2.7621 4.2011,4.1837 0,0.711 -1.0729,1.9265 -2.3842,2.7012 -2.7149,1.6037 -4.7562,5.0451 -4.7562,8.0182 0,2.9271 3.1686,2.6752 6.8343,-0.5433 z m -60.2958,-12.5081 c 1.8935,-1.7455 4.1649,-3.1736 5.0473,-3.1736 1.4459,0 1.6045,-0.5099 1.6045,-5.157 0,-6.4225 -0.6461,-6.5315 -7.0631,-1.1912 -4.9293,4.1022 -6.4466,7.289 -5.2562,11.0396 0.7472,2.3542 1.7615,2.0826 5.6675,-1.5178 z m -0.9573,-17.3609 c 3.9348,-5.1136 5.7663,-8.5479 4.9786,-9.3356 -0.2795,-0.2795 -2.2523,-0.6757 -4.3841,-0.8806 -5.1737,-0.4971 -6.4729,1.2251 -6.4729,8.5802 0,7.943 0.8445,8.178 5.8784,1.636 z m 66.6313,1.825 c 0.7759,-2.0218 0.5534,-9.0293 -0.3397,-10.6979 -1.5648,-2.924 -10.2861,-1.5108 -10.2861,1.6667 0,1.803 7.5496,10.2862 9.1542,10.2862 0.5445,0 1.2068,-0.5648 1.4716,-1.255 z"
         id="path20" /><path
         style="fill:#ef9f48;fill-opacity:0.976471;stroke:#000000;stroke-width:5;stroke-dasharray:none;stroke-opacity:0.988235;paint-order:stroke markers fill"
         d="m 1681.946,2453.158 c -6.0739,-2.8284 -8.9655,-6.8605 -8.3258,-11.6097 0.3376,-2.5058 1.4906,-2.3397 5.2345,0.7541 2.4911,2.0585 6.0486,3.9245 9.9746,5.232 6.7462,2.2467 8.1774,3.8629 5.4072,6.1061 -2.4082,1.95 -7.4956,1.7503 -12.2905,-0.4825 z"
         id="path21" /><path
         style="fill:#ef9f48;fill-opacity:0.976471;stroke:#000000;stroke-width:5;stroke-dasharray:none;stroke-opacity:0.988235;paint-order:stroke markers fill"
         d="m 1766.4816,2473.2837 c -11.2636,-0.5369 -10.8323,0.5073 -9.0994,-22.0335 1.8499,-24.0642 2.4637,-61.7971 1.6849,-103.5838 -0.3646,-19.5625 -0.425,-35.807 -0.1341,-36.0989 0.8674,-0.8707 30.0114,-1.0925 32.2394,-0.2454 1.8717,0.7116 2.0712,1.2482 2.4508,6.5918 0.2273,3.1994 0.1209,10.2798 -0.2363,15.7343 -2.4919,38.0463 -2.4496,91.983 0.073,93.7 2.6876,1.8291 13.0393,-0.081 24.7572,-4.5674 5.8463,-2.2385 5.8632,-2.1729 4.2817,16.5574 -1.8133,21.4742 -2.8828,31.0487 -3.5457,31.7415 -1.4823,1.5492 -35.8889,2.9944 -52.4719,2.204 z m 38.1545,-12.8041 c 1.4833,-0.4968 3.4848,-1.6156 4.4478,-2.4863 2.1196,-1.9164 3.5875,-8.3285 3.2513,-14.2021 -0.2122,-3.7069 -0.4369,-4.1988 -1.8287,-4.0027 -0.8727,0.123 -4.0246,0.637 -7.0041,1.1422 -6.028,1.0222 -14.9802,0 -16.9131,-1.935 -1.8638,-1.8638 -2.7555,-23.4459 -2.9102,-70.4386 -0.1457,-44.248 -0.1681,-44.8262 -1.7344,-44.8262 -1.3744,0 -1.6941,0.7964 -2.389,5.9504 -0.6977,5.1744 -1.0239,5.9821 -2.5019,6.1939 -1.0617,0.1521 -2.175,-0.4353 -2.9663,-1.565 -1.6933,-2.4176 -1.6139,-3.1024 0.7667,-6.6104 2.2849,-3.367 1.7796,-4.6346 -1.686,-4.2292 -1.7049,0.1994 -2.3755,0.8175 -2.8649,2.6405 -0.3513,1.3091 -1.0377,26.1221 -1.5251,55.1401 -0.8804,52.4038 -0.4462,74.3735 1.5085,76.3282 0.4628,0.4627 7.1295,1.2861 14.8148,1.8298 7.6854,0.5436 14.1952,1.21 14.4661,1.481 0.7156,0.7156 2.0223,0.6097 5.0685,-0.4106 z"
         id="path22" /><path
         style="fill:#ef9f48;fill-opacity:0.976471;stroke:#000000;stroke-width:5;stroke-dasharray:none;stroke-opacity:0.988235;paint-order:stroke markers fill"
         d="m 1779.8621,2453.7395 c -1.8545,-0.077 -3.7971,-0.252 -4.3168,-0.3884 -1.2046,-0.3162 -1.8329,-1.0522 -2.1332,-2.4988 -0.5483,-2.6408 0.3945,-3.548 4.326,-4.1627 1.9462,-0.3043 15.4049,-0.6496 26.1013,-0.6696 l 4.7377,-0.01 -0.099,1.8347 c -0.1194,2.2158 -0.6288,4.1324 -1.2546,4.7203 -0.2538,0.2385 -0.9802,0.5582 -1.6141,0.7106 -2.2828,0.5486 -17.2321,0.8173 -25.7474,0.4628 z"
         id="path25" /><path
         style="fill:#ef9f48;fill-opacity:0.976471;stroke:#000000;stroke-width:5;stroke-dasharray:none;stroke-opacity:0.988235;paint-order:stroke markers fill"
         d="m 1775.6552,2440.4695 c -2.0953,-1.2943 -2.9994,-5.4644 -2.7739,-12.7949 0.2151,-6.9945 1.5187,-12.6337 3.3611,-14.5393 1.049,-1.085 1.9815,-0.7094 2.3539,0.9483 0.7044,3.135 1.278,19.474 0.7834,22.3143 -0.5824,3.3439 -2.1421,5.049 -3.7245,4.0716 z"
         id="path26" /><path
         style="fill:#ef9f48;fill-opacity:0.976471;stroke:#000000;stroke-width:5;stroke-dasharray:none;stroke-opacity:0.988235;paint-order:stroke markers fill"
         d="m 1772.9752,2406.3915 c -0.1582,-0.3713 -0.2358,-2.3179 -0.243,-6.0991 -0.011,-5.6802 0.081,-6.4462 0.7732,-6.4462 0.4258,0 3.1765,1.9088 4.1421,2.8745 1.6685,1.6685 2.055,3.4661 1.1304,5.2577 -0.5028,0.9742 -2.8219,3.4866 -4.053,4.3905 -0.9764,0.7171 -1.4511,0.7232 -1.7497,0.023 z"
         id="path27" /><path
         style="fill:#ef9f48;fill-opacity:0.976471;stroke:#000000;stroke-width:5;stroke-dasharray:none;stroke-opacity:0.988235;paint-order:stroke markers fill"
         d="m 1776.7784,2353.7096 c -2.7607,-0.9872 -4.3397,-3.6876 -4.0954,-7.0037 0.1129,-1.5318 0.6224,-2.9174 1.2912,-3.511 1.0603,-0.9413 3.108,0.5748 4.3835,3.2455 0.6108,1.2788 0.7206,1.7279 0.7789,3.1848 0.079,1.9687 -0.1991,3.2134 -0.866,3.8804 -0.5411,0.541 -0.5474,0.5419 -1.4922,0.204 z"
         id="path28" /><path
         style="fill:#ef9f48;fill-opacity:0.976471;stroke:#000000;stroke-width:5;stroke-dasharray:none;stroke-opacity:0.988235;paint-order:stroke markers fill"
         d="m 1776.3559,2387.3129 c -1.8541,-1.9066 -2.7268,-4.1576 -3.4194,-8.8198 -1.2949,-8.7161 -0.4553,-19.3626 1.567,-19.8702 0.5048,-0.1267 1.4146,0.2721 1.915,0.8396 0.5538,0.6279 1.3382,2.3624 1.753,3.8762 0.7821,2.8547 1.0256,5.2298 1.1348,11.0696 0.1646,8.7994 -0.3387,13.852 -1.3997,14.0509 -0.2435,0.046 -0.7703,-0.3438 -1.5507,-1.1463 z"
         id="path29" /><path
         style="fill:#ef9f48;fill-opacity:0.976471;stroke:#000000;stroke-width:5;stroke-dasharray:none;stroke-opacity:0.988235;paint-order:stroke markers fill"
         d="m 1861.1839,2475.5539 c -7.943,-0.8193 -16.77,-3.523 -21.6098,-6.6189 -1.6596,-1.0617 -3.4365,-2.8187 -4.0267,-3.9819 -0.4368,-0.8608 -0.4998,-1.2273 -0.4768,-2.7768 0.014,-0.9818 0.073,-2.2314 0.1311,-2.7768 0.2441,-2.314 0.9016,-19.1833 1.3027,-33.4213 0.333,-11.822 0.4652,-48.6718 0.2038,-56.8261 -0.2249,-7.0169 -0.4807,-10.9673 -0.7846,-12.1141 -0.2722,-1.0277 -0.8376,-1.1481 -5.7808,-1.2317 -2.8826,-0.049 -7.2513,0.071 -12.3383,0.3377 -4.3315,0.2272 -8.1601,0.4132 -8.5078,0.4132 h -0.6323 l 0.1314,-4.3141 c 0.072,-2.3727 0.2642,-8.6875 0.4266,-14.0329 0.4009,-13.1982 0.7943,-20.4232 1.3159,-24.163 0.1803,-1.2928 0.287,-1.5784 0.6397,-1.7125 4.9396,-1.878 81.3701,-2.5353 85.2123,-0.7328 0.6224,0.2921 0.8691,1.2247 1.1678,4.4147 0.4376,4.6723 0.6135,10.258 0.6147,19.5159 10e-4,11.6615 -0.3676,18.3866 -1.061,19.3349 -0.3092,0.4229 -1.5235,0.5808 -9.9416,1.2928 -6.7348,0.5697 -10.6386,1.014 -11.8983,1.3542 -0.775,0.2094 -0.8183,0.4456 -1.1328,6.1832 -0.3327,6.0688 -0.3306,51.165 0,65.3549 0.4362,18.5565 0.7593,25.7877 1.4312,32.0329 0.5262,4.8913 0.7696,9.0164 0.5982,10.1384 -0.288,1.8858 -1.9671,3.1584 -5.2152,3.9527 -1.9373,0.4738 -6.9587,0.6677 -9.7724,0.3774 z m -5.0578,-15.2815 c 3.7636,-0.1253 6.8875,-0.2688 6.9421,-0.3189 0.055,-0.05 0.1564,-22.2861 0.2265,-49.4132 0.082,-31.9373 0.2043,-50.6503 0.3459,-53.0906 0.6151,-10.6025 1.5969,-14.2026 4.2624,-15.6284 0.8089,-0.4327 0.9191,-0.4376 9.8428,-0.4405 9.1592,0 10.7422,-0.1116 11.2922,-0.7742 0.4355,-0.5247 0.6224,-2.5282 0.6308,-6.76 0.01,-4.6282 -0.1306,-6.6474 -0.4938,-7.1353 -0.1815,-0.2437 -1.1765,-0.3353 -5.3797,-0.495 -6.9055,-0.2624 -21.5451,-0.5535 -39.8675,-0.7929 -8.2909,-0.1083 -16.9108,-0.2461 -19.1554,-0.3063 l -4.081,-0.1095 -0.2436,3.6261 c -0.2831,4.2146 -0.7751,9.2555 -1.0063,10.3096 -0.1938,0.8836 0.1168,1.4331 0.927,1.6405 0.3032,0.078 5.014,0.2065 10.4685,0.2864 11.4308,0.1674 11.6268,0.1922 14.5064,1.8364 0.9669,0.5521 1.7797,1.0227 1.8063,1.0458 0.027,0.023 0.2678,10.2995 0.5361,22.8365 0.901,42.0998 1.4415,57.5341 2.0748,59.2461 0.1253,0.3388 0.3018,0.1265 1.0763,-1.2943 2.5567,-4.6903 7.2732,-10.9323 8.8938,-11.7703 0.5469,-0.2828 0.5725,-0.2742 0.7758,0.2593 0.4813,1.2637 -1.0165,6.9909 -2.6988,10.3195 -0.702,1.3889 -1.46,2.3914 -3.7873,5.0091 -4.4405,4.9945 -5.4699,6.4765 -6.1612,8.87 -0.287,0.9936 -0.3419,2.6354 -0.4116,12.3124 l -0.08,11.1659 0.958,-0.1032 c 0.5269,-0.057 4.0373,-0.2056 7.8009,-0.3309 z"
         id="path30" /><path
         style="fill:#ef9f48;fill-opacity:0.976471;stroke:#000000;stroke-width:5;stroke-dasharray:none;stroke-opacity:0.988235;paint-order:stroke markers fill"
         d="m 1827.7626,2336.1106 c -1.0336,-0.1323 -1.3803,-0.2702 -1.7485,-0.6953 -0.3837,-0.443 -0.4377,-0.6646 -0.3279,-1.347 0.2743,-1.7041 1.0095,-2.4048 3.1683,-3.0192 0.9913,-0.2822 2.385,-0.353 8.3791,-0.4256 l 7.1901,-0.087 v 2.8948 2.8946 l -7.6859,-0.025 c -4.2273,-0.014 -8.2661,-0.1 -8.9752,-0.1902 z"
         id="path31" /><path
         style="fill:#ef9f48;fill-opacity:0.976471;stroke:#000000;stroke-width:5;stroke-dasharray:none;stroke-opacity:0.988235;paint-order:stroke markers fill"
         d="m 1853.4484,2337.1285 c -1.6845,-0.362 -2.5052,-0.8296 -3.0985,-1.7652 -1.061,-1.673 -0.5657,-3.2545 1.3137,-4.1944 0.8492,-0.4247 1.2617,-0.4958 2.8757,-0.4953 1.5927,4e-4 2.0186,0.072 2.7523,0.4631 1.5822,0.8431 2.2546,1.8519 2.2331,3.3502 -0.016,1.0946 -0.4743,1.9509 -1.2632,2.3589 -0.7348,0.3799 -3.5826,0.5472 -4.8131,0.2827 z"
         id="path32" /><path
         style="fill:#ef9f48;fill-opacity:0.976471;stroke:#000000;stroke-width:5;stroke-dasharray:none;stroke-opacity:0.988235;paint-order:stroke markers fill"
         d="m 1875.4648,2337.0991 c -5.768,-0.2411 -8.1499,-0.8453 -9.0455,-2.2943 -0.2887,-0.4672 -0.5146,-1.3356 -0.68,-2.614 -0.1363,-1.053 -0.2351,-1.9291 -0.2198,-1.947 0.028,-0.033 1.7839,0.092 8.9536,0.6379 6.4826,0.4936 9.4027,1.0634 10.8204,2.1115 0.6266,0.4633 1.1795,1.6452 1.1795,2.5214 0,1.7555 -1.5568,1.9796 -11.0082,1.5845 z"
         id="path33" /><path
         style="fill:#ef9f48;fill-opacity:0.976471;stroke:#000000;stroke-width:5;stroke-dasharray:none;stroke-opacity:0.988235;paint-order:stroke markers fill"
         d="m 1857.0028,2367.4889 c -2.0086,-1.2249 -4.0275,-5.6159 -4.9349,-10.7334 -0.2356,-1.3285 -0.3677,-3.5664 -0.4479,-7.5867 l -0.1137,-5.7025 h 3.8771 3.8771 l 0.1596,2.3306 c 0.088,1.2818 0.1636,6.0793 0.1683,10.6611 0.01,7.406 -0.03,8.4556 -0.3401,9.458 -0.2153,0.6957 -0.5484,1.2844 -0.8698,1.5372 -0.6328,0.4978 -0.6186,0.4974 -1.3757,0.036 z"
         id="path34" /><path
         style="fill:#ef9f48;fill-opacity:0.976471;stroke:#000000;stroke-width:5;stroke-dasharray:none;stroke-opacity:0.988235;paint-order:stroke markers fill"
         d="m 1856.4213,2388.8127 c -0.438,-0.6685 -0.6919,-1.6615 -0.6919,-2.7062 0,-1.0053 -0.4292,-1.7809 -0.9854,-1.7809 -0.8298,0 -1.8818,-1.9853 -2.5226,-4.7603 -0.3608,-1.5627 -0.6,-8.5104 -0.3108,-9.0272 0.1639,-0.2928 0.401,-0.036 1.4901,1.6122 0.7124,1.0783 2.1201,2.853 3.1282,3.9439 2.6112,2.8257 2.6715,2.9891 2.6715,7.2396 0,3.1043 -0.044,3.5659 -0.415,4.3678 -0.2283,0.4932 -0.5694,1.0511 -0.758,1.2397 -0.4912,0.4912 -1.2392,0.4313 -1.6061,-0.1286 z"
         id="path35" /><path
         style="fill:#ef9f48;fill-opacity:0.976471;stroke:#000000;stroke-width:5;stroke-dasharray:none;stroke-opacity:0.988235;paint-order:stroke markers fill"
         d="m 1851.6328,2403.1223 c 0.134,-8.2378 0.2951,-10.2683 0.8653,-10.9051 0.2682,-0.2995 0.366,-0.3072 0.8256,-0.065 1.1012,0.58 4.3854,4.4874 5.3172,6.326 1.6683,3.2923 0.06,7.0963 -4.6399,10.9714 -1.0362,0.8545 -2.0231,1.6332 -2.1931,1.7305 -0.2786,0.1595 -0.2959,-0.6341 -0.1751,-8.0576 z"
         id="path36" /><path
         style="fill:#ef9f48;fill-opacity:0.976471;stroke:#000000;stroke-width:5;stroke-dasharray:none;stroke-opacity:0.988235;paint-order:stroke markers fill"
         d="m 1852.2832,2454.3691 c -0.7883,-0.871 -1.4013,-5.6414 -1.2834,-9.9865 l 0.068,-2.521 0.8163,-0.8508 c 0.449,-0.468 1.6926,-1.963 2.7637,-3.3223 1.071,-1.3592 2.3438,-2.8678 2.8284,-3.3523 0.79,-0.7901 0.9014,-0.8445 1.0791,-0.527 0.7598,1.3576 0.4501,12.6468 -0.4788,17.4581 -0.1772,0.9175 -0.3793,1.3325 -0.8825,1.8124 -0.9,0.8582 -2.3424,1.5173 -3.5372,1.6164 -0.827,0.069 -1.0679,0.011 -1.374,-0.327 z"
         id="path37" /><path
         style="fill:#ef9f48;fill-opacity:0.976471;stroke:#000000;stroke-width:5;stroke-dasharray:none;stroke-opacity:0.988235;paint-order:stroke markers fill"
         d="m 1939.043,2474.952 c -5.271,-0.6819 -10.9197,-2.6555 -13.8622,-4.8435 -0.6167,-0.4585 -1.6705,-1.3742 -2.3418,-2.0347 -0.8979,-0.8837 -1.5322,-1.3148 -2.4003,-1.6313 -1.579,-0.5757 -3.1856,-1.9321 -5.7272,-4.8353 -5.2644,-6.0132 -7.6144,-10.3662 -8.8194,-16.3368 -0.6625,-3.2823 -0.7421,-9.5915 -0.2021,-16.0195 0.8953,-10.6586 1.2085,-26.3567 1.209,-60.5946 3e-4,-24.6018 -0.1947,-39.2504 -0.6034,-45.322 -0.1101,-1.6364 -0.2549,-4.423 -0.3216,-6.1926 -0.1721,-4.5595 0.1908,-5.3701 2.7181,-6.0716 1.9392,-0.5382 4.0083,-0.5729 18.7219,-0.3137 l 14.4966,0.2554 -0.043,12.4091 c -0.103,29.9029 -0.4736,80.4289 -0.6581,89.7317 -0.1107,5.5814 -0.2962,10.6238 -0.4123,11.2055 -0.2605,1.3058 -0.1115,2.0168 0.4227,2.0168 0.2767,0 0.3929,-0.1337 0.3929,-0.4518 0,-0.9888 1.0284,-1.7118 1.544,-1.0854 0.1122,0.1364 0.2687,0.6942 0.3478,1.2397 0.3614,2.4923 2.0447,4.0419 5.1949,4.7821 2.0638,0.4849 6.1438,0.2895 8.4737,-0.4059 3.8919,-1.1615 6.8478,-3.3295 8.0292,-5.8889 0.6674,-1.4459 0.8853,-3.0095 1.1986,-8.603 0.7315,-13.0598 1.0617,-34.2126 0.9355,-59.9282 -0.1032,-21.0323 -0.2132,-25.3136 -0.8398,-32.6992 -0.1665,-1.9637 -0.358,-5.3637 -0.4254,-7.5557 l -0.1225,-3.9855 0.4766,-0.1272 c 1.358,-0.3627 8.9882,-0.5973 19.9144,-0.6124 11.0855,-0.015 12.2294,0.014 13.6548,0.348 l 1.5556,0.3648 -0.1229,3.1063 c -0.1601,4.0481 -0.6633,23.2014 -0.9206,35.04 -0.1114,5.1272 -0.2535,24.5403 -0.3157,43.1402 -0.1177,35.1718 0.043,50.9483 0.6484,63.669 0.3673,7.7165 0.2998,12.3463 -0.1994,13.683 -0.3693,0.989 -1.1191,1.871 -1.9669,2.3137 -1.0437,0.545 -3.4129,0.8399 -8.4743,1.0545 -7.2958,0.3095 -12.0393,0.5778 -14.8672,0.841 -1.3636,0.127 -2.7549,0.2305 -3.0918,0.2301 -1.3513,0 -3.2547,-1.8642 -4.0342,-3.9476 -0.3639,-0.9725 -0.4111,-1.5396 -0.4111,-4.9343 0,-2.1095 -0.055,-4.1093 -0.1217,-4.4439 l -0.1217,-0.6084 -2.3248,2.0751 c -5.8217,5.1961 -13.39,10.4535 -16.3761,11.3758 -2.4689,0.7626 -6.5707,1.0098 -9.8074,0.5912 z m 3.0838,-14.058 c 2.2497,-0.5589 6.1513,-2.6031 10.1503,-5.3183 15.9322,-10.8171 18.0503,-12.345 20.9694,-15.1258 2.0808,-1.9824 2.5833,-2.2384 3.1118,-1.5857 0.8507,1.0506 1.0967,3.4016 1.3774,13.163 0.126,4.382 0.2392,7.9787 0.2515,7.9925 0.012,0.014 1.7931,0.1351 3.9574,0.2692 6.1042,0.3783 7.2652,0.114 8.2632,-1.8815 0.4825,-0.9647 0.4957,-1.1037 0.4892,-5.1567 0,-2.2909 -0.1161,-12.5553 -0.2498,-22.8097 -0.3803,-29.1633 0.018,-84.1165 0.6471,-89.2777 0.6222,-5.1052 0.92,-12.903 0.573,-15.0026 l -0.123,-0.7438 h -1.4565 c -1.3909,0 -1.4694,0.025 -1.7407,0.5494 -0.4418,0.8545 -0.6982,2.5869 -1.0193,6.8885 -0.4478,5.9984 -1.0758,9.1784 -2.3145,11.7188 -0.6238,1.2794 -1.8838,2.6613 -2.4266,2.6613 -0.5245,0 -0.8168,-2.6854 -1.1012,-10.1156 -0.3257,-8.5093 -0.6842,-12.3318 -1.317,-14.0436 -0.9763,-2.6408 -2.0062,1.3822 -2.4528,9.5808 -0.4377,8.0374 -0.045,25.4498 0.5977,26.4895 0.2723,0.4405 0.9704,-0.1971 3.985,-3.6394 2.8113,-3.2102 3.934,-4.2577 4.3125,-4.0237 0.3206,0.1981 0.6217,2.0188 0.6217,3.7588 0,3.0877 -0.3666,3.7912 -5.9582,11.4311 -2.786,3.8066 -4.3621,7.803 -4.0562,10.2852 0.3179,2.5796 1.2301,4.2564 3.8505,7.0779 2.5537,2.7497 3.8099,4.928 4.1117,7.1302 0.1397,1.0191 -0.3236,2.7263 -0.9816,3.6174 l -0.4724,0.6398 -0.596,-0.4415 c -1.2316,-0.9122 -3.0745,-3.3196 -3.7922,-4.9538 -1.2033,-2.7399 -1.6058,-0.1454 -2.4228,15.6198 -0.8069,15.5711 -1.4313,22.5812 -2.2793,25.5907 -0.2534,0.8993 -0.4669,1.1494 -2.2013,2.5785 -4.4729,3.6856 -7.5194,5.7199 -11.6885,7.8047 -3.6206,1.8106 -6.1268,2.203 -14.0907,2.2059 h -4.5773 l -2.5753,-2.6281 c -2.9164,-2.976 -3.5254,-3.7934 -4.7399,-6.3613 -2.1637,-4.575 -3.2017,-10.5865 -3.3968,-19.6716 -0.1049,-4.8865 -0.02,-7.3163 0.5581,-16.0112 0.4044,-6.0809 -0.3231,-35.0272 -1.5219,-60.5502 -0.4495,-9.5697 -0.8038,-13.9834 -1.1226,-13.9834 -0.5712,0 -1.0702,2.5042 -1.3521,6.7855 -0.1129,1.7138 -0.3345,3.8572 -0.4924,4.7629 -0.6232,3.5735 -2.0109,7.3354 -3.1533,8.548 -1.2995,1.3794 -1.7039,0.1083 -1.8501,-5.8155 -0.1084,-4.3891 0.091,-7.7391 0.6538,-11.0029 0.381,-2.2082 0.2614,-2.9759 -0.5393,-3.4628 -0.8816,-0.5362 -2.0517,-0.6729 -2.735,-0.3196 -1.2985,0.6715 -1.7066,4.1913 -1.5075,13.0002 0.2185,9.6644 0.6507,22.6306 0.758,22.7378 0.055,0.055 0.8186,-0.9547 1.6963,-2.2444 2.4208,-3.5568 5.6166,-7.0059 6.4914,-7.0059 0.4815,0 0.8759,0.8568 0.8759,1.903 0,1.2604 -0.7439,4.2521 -1.5777,6.3452 -0.8942,2.2447 -2.023,4.0558 -3.6158,5.8015 -3.2155,3.5239 -4.2204,5.7792 -4.2251,9.4827 0,1.8976 0.051,2.2694 0.375,2.6281 1.0603,1.1724 3.0148,-0.2382 5.4673,-3.9458 1.6068,-2.4291 2.9871,-3.595 3.7638,-3.1793 0.8878,0.4751 1.399,3.4644 1.02,5.9649 -0.3736,2.4652 -1.1529,3.6628 -5.4795,8.421 -3.2022,3.5216 -4.0588,4.7947 -4.0578,6.0307 9e-4,1.1136 0.2446,1.5167 2.4691,4.0849 3.8643,4.4613 6.359,9.1692 6.7663,12.7693 0.1568,1.3861 -0.1721,3.0107 -0.7076,3.4953 -0.3411,0.3087 -0.4128,0.3081 -1.0828,-0.01 -1.6917,-0.8027 -3.9175,-3.3928 -5.0331,-5.8567 -0.6754,-1.4915 -1.3808,-2.2277 -2.0443,-2.1334 -0.881,0.1252 -1.3489,1.9025 -1.8972,7.2064 -0.5108,4.9416 -0.5074,23.0457 0,28.044 0.4503,4.3899 0.8203,6.1862 1.5645,7.5954 1.1515,2.1803 6.4809,8.3808 9.3618,10.8919 1.4152,1.2335 3.7112,2.6206 7.0926,4.2849 1.8755,0.923 3.4744,1.0499 5.8365,0.4631 z"
         id="path38" /><path
         style="fill:#ef9f48;fill-opacity:0.976471;stroke:#000000;stroke-width:5;stroke-dasharray:none;stroke-opacity:0.988235;paint-order:stroke markers fill"
         d="m 1920.9617,2428.6052 c -0.3128,-0.9228 -0.304,-5.0517 0.016,-7.3873 0.2369,-1.7298 1.5502,-6.0018 1.8154,-5.9052 0.081,0.03 0.8799,0.8573 1.7744,1.8391 0.8944,0.9818 2.4208,2.6477 3.3919,3.7021 l 1.7656,1.9169 -2.9318,2.453 c -2.7895,2.3339 -4.189,3.3934 -5.1482,3.8975 -0.3938,0.2069 -0.4531,0.1621 -0.683,-0.5161 z"
         id="path39" /><path
         style="fill:#ef9f48;fill-opacity:0.976471;stroke:#000000;stroke-width:5;stroke-dasharray:none;stroke-opacity:0.988235;paint-order:stroke markers fill"
         d="m 1940.5693,2455.8457 c -2.402,-0.9878 -5.2888,-2.9919 -11.745,-8.1537 -6.224,-4.9762 -7.2655,-6.367 -6.3711,-8.5077 0.4201,-1.0053 2.9453,-4.6761 3.7975,-5.5202 0.413,-0.4091 0.9417,-0.7438 1.1748,-0.7438 0.6285,0 1.5244,1.0575 2.6886,3.1735 2.8229,5.131 6.8558,9.5019 14.2718,15.4677 1.6319,1.3129 3.0654,2.5705 3.1853,2.7946 0.3282,0.6133 -0.035,0.9059 -1.8263,1.4718 -2.0426,0.6453 -3.6363,0.6508 -5.1756,0.018 z"
         id="path40" /><path
         style="fill:#ef9f48;fill-opacity:0.976471;stroke:#000000;stroke-width:5;stroke-dasharray:none;stroke-opacity:0.988235;paint-order:stroke markers fill"
         d="m 1983.3391,2452.5073 c -1.4647,-1.286 -2.3273,-4.3916 -2.8695,-10.3303 -0.2869,-3.1426 -0.1376,-8.5894 0.3163,-11.5377 0.1847,-1.2 0.3588,-2.2058 0.3868,-2.2351 0.1268,-0.1328 3.1333,4.3785 3.554,5.3328 1.0319,2.3405 1.5149,6.0511 1.5204,11.6791 0,4.4298 -0.3144,6.2967 -1.2441,7.2892 -0.5558,0.5934 -0.795,0.5649 -1.6639,-0.198 z"
         id="path41" /><path
         style="fill:#ef9f48;fill-opacity:0.976471;stroke:#000000;stroke-width:5;stroke-dasharray:none;stroke-opacity:0.988235;paint-order:stroke markers fill"
         d="m 1984.7533,2422.7705 c -1.0866,-0.6185 -2.9381,-2.2822 -3.3811,-3.0381 -0.9113,-1.555 -1.1782,-3.7147 -1.6919,-13.688 -0.1236,-2.4 -0.1931,-4.6309 -0.1544,-4.9576 0.066,-0.5599 0.2216,-0.4119 2.7038,2.5785 2.9365,3.5378 3.7017,4.8698 4.0251,7.0071 0.3314,2.1896 0.1709,10.8654 -0.2151,11.634 -0.3339,0.6646 -0.7012,0.7971 -1.2864,0.4641 z"
         id="path42" /><path
         style="fill:#ef9f48;fill-opacity:0.976471;stroke:#000000;stroke-width:5;stroke-dasharray:none;stroke-opacity:0.988235;paint-order:stroke markers fill"
         d="m 1982.8693,2378.6228 c -1.9686,-0.9837 -1.3116,-3.3428 2.0824,-7.4773 1.6571,-2.0188 1.6256,-2.0734 1.3091,2.2628 -0.2209,3.028 -0.5514,4.5471 -1.1278,5.184 -0.429,0.4741 -1.3513,0.4865 -2.2637,0.031 z"
         id="path43" /><path
         style="fill:#ef9f48;fill-opacity:0.976471;stroke:#000000;stroke-width:5;stroke-dasharray:none;stroke-opacity:0.988235;paint-order:stroke markers fill"
         d="m 2037.1076,2474.9489 c -3.3947,-0.2302 -19.0355,-1.5334 -20.2223,-1.6848 -3.3952,-0.4334 -4.9253,-1.9625 -5.5504,-5.547 -0.3587,-2.057 -0.4064,-10.5401 -0.1021,-18.1358 0.6204,-15.481 1.3031,-40.2296 1.5841,-57.4211 0.3427,-20.9738 0.2107,-38.8612 -0.4189,-56.7269 -0.1268,-3.5999 -0.2384,-9.6693 -0.248,-13.4875 -0.016,-6.4507 0.01,-7.0182 0.3755,-8.0168 0.2161,-0.591 0.616,-1.2361 0.8888,-1.4335 1.1343,-0.8209 6.1513,-1.2812 17.0313,-1.5625 10.5803,-0.2736 25.6283,0.091 33.2493,0.8051 5.2823,0.495 6.845,0.9501 11.6253,3.3851 9.0451,4.6075 15.5434,10.9107 19.6097,19.0209 3.2009,6.384 4.6936,13.0243 4.9047,21.818 0.2005,8.3526 -1.0382,17.5263 -3.3387,24.7265 -1.2242,3.8313 -2.0992,5.3469 -3.2966,5.71 -0.2669,0.081 -0.4927,0.3487 -0.5627,0.6675 -0.4157,1.8918 -0.7266,2.5969 -1.591,3.6088 -0.5116,0.5987 -1.9779,2.3829 -3.2585,3.9647 -2.6294,3.2477 -5.3802,5.9977 -7.4311,7.4285 -2.8348,1.9778 -3.4711,2.8471 -3.4711,4.7425 0,1.466 0.5828,3.2395 2.2234,6.7655 3.0719,6.6022 4.6158,10.3291 5.9832,14.4424 0.9109,2.7401 2.2452,5.8141 9.7902,22.5546 5.9428,13.1853 6.7964,15.4295 6.7964,17.8665 0,2.6394 -1.4558,3.7546 -5.7906,4.4356 -3.3754,0.5303 -13.8726,1.1048 -20.073,1.0987 -5.8083,-0.01 -8.0015,-0.4004 -9.2222,-1.66 -0.5264,-0.5431 -0.6806,-0.9107 -0.8507,-2.0286 -0.4518,-2.969 -4.4484,-18.5755 -7.8163,-30.5221 -3.4371,-12.1924 -5.2763,-16.9585 -6.5439,-16.9585 -0.676,0 -1.0129,0.6482 -1.3542,2.6053 -0.5916,3.3925 -0.7374,9.0757 -0.6812,26.5515 0.058,18.1234 -5e-4,19.6078 -0.8416,21.2564 -0.9132,1.79 -3.8811,2.2408 -11.3968,1.731 z m -1.204,-14.2796 c 0.9692,-0.1064 1.9179,-0.2769 2.1082,-0.3787 0.2752,-0.1473 0.3715,-0.5617 0.4708,-2.0258 0.166,-2.4476 0.4676,-14.7913 0.7161,-29.3114 0.2283,-13.3375 0.5431,-25.081 0.7055,-26.3185 0.095,-0.7233 0.1913,-0.8564 0.7434,-1.0271 1.6756,-0.5181 4.8507,-0.8253 8.7056,-0.8422 2.9592,-0.013 3.2287,0.017 4.0823,0.4565 2.5805,1.3279 6.1994,8.5607 9.7568,19.4999 1.3234,4.0693 2.6934,8.9417 5.1589,18.347 1.087,4.1464 1.7786,6.2455 3.8558,11.7024 3.118,8.1912 4.8354,10.3156 8.3367,10.3129 3.6974,0 4.2055,-0.9292 2.611,-4.7592 -0.4769,-1.1455 -1.6033,-3.7785 -2.5032,-5.8512 -0.8998,-2.0727 -2.6852,-6.4463 -3.9675,-9.719 -1.2824,-3.2727 -2.9178,-7.3525 -3.6344,-9.0663 -0.7166,-1.7139 -2.2543,-5.5965 -3.4171,-8.6281 -2.885,-7.5217 -4.5472,-11.6603 -6.2366,-15.5285 -3.5841,-8.2062 -3.5118,-9.1925 0.8388,-11.4374 3.4907,-1.8012 7.3135,-5.0828 11.1802,-9.5973 7.1388,-8.3349 13.7193,-19.564 16.0926,-27.4608 0.6565,-2.1846 0.8333,-5.1817 0.3667,-6.2164 -0.3753,-0.8323 -1.1886,-1.4199 -1.9651,-1.4199 -0.6672,0 -0.9851,-0.4785 -2.7721,-4.1724 -2.3199,-4.7952 -4.6025,-8.034 -7.8965,-11.204 -6.748,-6.4939 -15.0668,-10.1966 -26.3554,-11.7311 -1.7887,-0.2431 -3.8881,-0.3373 -7.5372,-0.3381 -6.7853,0 -10.5877,0.4513 -19.0227,2.2647 l -3.0408,0.6538 0.1104,57.3376 c 0.099,51.5029 0.2731,71.7659 0.6394,74.5242 0.1202,0.9052 0.1449,0.9323 1.3463,1.4752 0.7488,0.3384 1.7626,0.6048 2.6122,0.6864 1.6271,0.1563 5.4078,0.048 7.9109,-0.2272 z"
         id="path44" /><path
         style="fill:#ef9f48;fill-opacity:0.976471;stroke:#000000;stroke-width:5;stroke-dasharray:none;stroke-opacity:0.988235;paint-order:stroke markers fill"
         d="m 2043.662,2397.0461 c -1.5328,-0.408 -2.4194,-1.1821 -3.0998,-2.7065 -0.3789,-0.8488 -0.4659,-1.5243 -0.6131,-4.7579 -0.2503,-5.4963 0.2194,-36.563 0.8381,-55.4376 l 0.1918,-5.8512 0.5813,-0.528 c 2.9987,-2.7237 19.2177,1.1551 26.1408,6.2515 1.2567,0.9252 1.5364,1.2377 3.9309,4.3921 0.8281,1.0909 2.1033,2.7091 2.8338,3.5961 7.6647,9.3057 6.6695,25.945 -2.3545,39.3656 -4.5592,6.7805 -10.8504,11.7917 -17.6233,14.0377 -3.8125,1.2643 -9.1796,2.0765 -10.826,1.6382 z m 7.903,-11.8279 c 1.9137,-0.3953 5.3268,-1.5554 6.3636,-2.163 1.1516,-0.6749 4.3054,-4.0213 5.9147,-6.2759 1.6947,-2.3743 3.3908,-5.7762 3.9016,-7.8255 2.2666,-9.0938 1.1839,-17.382 -2.9502,-22.5843 -3.0335,-3.8173 -7.3609,-5.7507 -13.4661,-6.0163 l -2.8457,-0.1238 0.1236,5.4366 c 0.068,2.9902 0.209,10.7474 0.3134,17.2382 0.1044,6.4909 0.2476,14.2338 0.3183,17.2065 0.1474,6.1973 -0.1189,5.6127 2.3268,5.1075 z"
         id="path45" /><path
         style="fill:#ef9f48;fill-opacity:0.976471;stroke:#000000;stroke-width:5;stroke-dasharray:none;stroke-opacity:0.988235;paint-order:stroke markers fill"
         d="m 2083.0758,2363.4086 c -0.689,-0.8759 -0.9357,-2.3663 -0.9208,-5.5622 0.019,-4.005 0.6906,-7.3431 1.4487,-7.1971 0.4835,0.093 0.992,1.1644 1.5467,3.2591 0.4217,1.5925 0.5216,2.4329 0.5393,4.5368 0.022,2.5739 0.019,2.5868 -0.6726,3.9669 -0.7936,1.5829 -1.2826,1.8339 -1.9413,0.9965 z"
         id="path46" /><path
         style="fill:#ef9f48;fill-opacity:0.976471;stroke:#000000;stroke-width:5;stroke-dasharray:none;stroke-opacity:0.988235;paint-order:stroke markers fill"
         d="m 2033.5408,2358.1092 c -3.4411,-3.219 -6.0767,-8.0946 -7.165,-13.2544 -0.4741,-2.2481 -0.4753,-6.3133 0,-8.2186 1.0287,-4.1445 3.6643,-6.7641 7.0491,-7.0063 2.2619,-0.1618 2.8981,0.5536 2.8673,3.2249 -0.024,2.0617 -0.6706,4.2269 -2.2913,7.6689 -1.2049,2.559 -1.2454,2.6968 -1.2444,4.2319 10e-4,1.5362 0.044,1.6803 1.3405,4.5207 2.0514,4.4937 2.7548,7.6666 2.0647,9.3139 -0.467,1.1148 -1.0214,1.0129 -2.6185,-0.481 z"
         id="path47" /><path
         style="fill:#ef9f48;fill-opacity:0.976471;stroke:#000000;stroke-width:5;stroke-dasharray:none;stroke-opacity:0.988235;paint-order:stroke markers fill"
         d="m 2027.2085,2380.3765 c -0.4082,-0.7894 -0.8515,-3.4597 -1.1084,-6.6764 -0.3654,-4.5768 0.2708,-7.9187 1.8005,-9.457 0.6261,-0.6296 0.8706,-0.7438 1.5929,-0.7438 1.1793,0 2.3607,0.626 3.7351,1.9792 1.737,1.7103 2.2992,2.78 2.3003,4.3769 10e-4,2.0962 -1.3181,4.4274 -4.9095,8.673 -2.1169,2.5025 -2.8633,2.9069 -3.4109,1.8481 z"
         id="path48" /><path
         style="fill:#ef9f48;fill-opacity:0.976471;stroke:#000000;stroke-width:5;stroke-dasharray:none;stroke-opacity:0.988235;paint-order:stroke markers fill"
         d="m 2033.4193,2405.5545 c -1.3132,-0.8698 -4.9561,-4.6993 -5.666,-5.9563 -0.7492,-1.3267 -1.2482,-2.9581 -1.2482,-4.0812 0,-2.1334 1.311,-4.6503 3.8261,-7.3453 2.9216,-3.1306 4.4743,-4.0762 4.8915,-2.9788 0.3552,0.9341 0.4356,3.2624 0.2271,6.5706 -0.227,3.6015 -0.5608,5.2519 -1.3263,6.5581 -0.6097,1.0403 -0.602,1.4955 0.038,2.2562 1.0644,1.265 1.5856,3.7155 1.0756,5.057 -0.2534,0.6665 -0.7217,0.6459 -1.8179,-0.08 z"
         id="path49" /><path
         style="fill:#ef9f48;fill-opacity:0.976471;stroke:#000000;stroke-width:5;stroke-dasharray:none;stroke-opacity:0.988235;paint-order:stroke markers fill"
         d="m 2028.0118,2427.6549 c -0.9473,-0.9473 -1.3916,-4.7954 -1.4005,-12.1316 -0.01,-5.0904 0.032,-5.833 0.3154,-6.117 0.2902,-0.2908 0.3796,-0.2934 0.8926,-0.026 0.604,0.315 3.4692,3.1924 4.6853,4.7052 0.9846,1.2247 1.7317,2.8956 1.734,3.8781 0,1.076 -0.5909,2.7506 -1.7114,4.8286 -1.671,3.0991 -3.28,5.1694 -4.0175,5.1694 -0.1051,0 -0.3292,-0.1381 -0.4979,-0.3068 z"
         id="path50" /><path
         style="fill:#ef9f48;fill-opacity:0.976471;stroke:#000000;stroke-width:5;stroke-dasharray:none;stroke-opacity:0.988235;paint-order:stroke markers fill"
         d="m 2031.1345,2454.0937 c -3.8777,-4.1129 -5.3603,-9.297 -3.7786,-13.2129 0.8923,-2.209 1.7854,-3.4314 4.7029,-6.4363 l 2.876,-2.9622 0.1314,0.9669 c 0.4098,3.0159 0.098,5.975 -1.1279,10.7183 -0.9369,3.6235 -0.9167,4.25 0.2031,6.3042 1.0021,1.8384 1.0541,2.2137 0.4815,3.4759 -1.1341,2.5001 -1.9569,2.7705 -3.4884,1.1461 z"
         id="path51" /><path
         style="fill:#ef9f48;fill-opacity:0.976471;stroke:#000000;stroke-width:5;stroke-dasharray:none;stroke-opacity:0.988235;paint-order:stroke markers fill"
         d="m 2109.3789,2473.1158 c -1.245,-0.9287 -1.377,-14.9021 -0.7665,-81.1152 l 0.7377,-79.9933 30.6325,0.3303 c 27.6333,0.298 30.8286,0.5263 32.6344,2.3318 1.7162,1.716 2.0555,4.5323 2.3778,19.7402 0.4456,21.0269 0.012,22.0754 -8.6736,20.9552 -2.8416,-0.3665 -8.3625,-0.7825 -12.2686,-0.9244 -9.2517,-0.3361 -10.2891,0.9605 -10.2891,12.8596 v 8.7617 h 11.701 c 9.1412,0 12.0867,0.3857 13.4641,1.7631 1.4438,1.4438 1.7632,4.7665 1.7632,18.3438 v 16.5805 l -10.9657,0.6681 c -6.0311,0.3674 -11.7877,0.9835 -12.7926,1.3691 -2.3676,0.9086 -3.1359,3.9788 -3.1547,12.6075 l -0.015,7.0126 9.2566,-0.017 c 5.0911,-0.01 12.0539,-0.6761 15.4727,-1.481 7.5774,-1.784 8.9272,-1.4167 8.9445,2.4335 0.019,4.133 -4.6806,35.6878 -5.516,37.0395 -0.9372,1.5164 -60.5559,2.2169 -62.5424,0.7349 z m 55.4784,-13.1275 c 0.7405,-0.7406 1.3464,-4.2779 1.3464,-7.8607 v -6.5142 l -9.2566,0.673 c -17.6505,1.2831 -22.2233,-2.6884 -22.0761,-19.1731 0.099,-11.0902 1.3661,-20.4118 2.9961,-22.0418 0.6771,-0.6771 5.9414,-1.4869 11.6983,-1.7995 5.757,-0.3127 11.0984,-1.0707 11.8698,-1.6846 0.7713,-0.6139 1.4025,-3.2646 1.4025,-5.8905 0,-2.6259 -0.6312,-5.2754 -1.4025,-5.8879 -0.7714,-0.6125 -5.6943,-1.3825 -10.9397,-1.7111 -12.043,-0.7544 -13.1651,-1.2407 -14.7028,-6.3732 -1.6693,-5.5716 0.1233,-36.0666 2.2724,-38.6561 1.2001,-1.4459 3.9351,-1.7893 14.2508,-1.7893 h 12.7658 v -7.2175 c 0,-5.9164 -0.354,-7.3166 -1.9635,-7.7671 -1.08,-0.3023 -11.6422,-0.891 -23.4718,-1.3082 l -21.5082,-0.7585 0.4861,56.4917 c 0.5273,61.2775 0.9572,77.5826 2.0943,79.4225 1.0901,1.7637 42.365,1.6198 44.1387,-0.1539 z"
         id="path52" /><path
         style="fill:#ef9f48;fill-opacity:0.976471;stroke:#000000;stroke-width:5;stroke-dasharray:none;stroke-opacity:0.988235;paint-order:stroke markers fill"
         d="m 2146.8018,2336.3125 c -4.1874,-0.3297 -8.0925,-1.0466 -8.7716,-1.6102 -0.4086,-0.3391 -1.3882,-2.3442 -1.5396,-3.1515 -0.3162,-1.6853 1.552,-2.1123 7.7816,-1.7783 9.4404,0.506 14.2113,1.4484 16.2081,3.2016 0.5495,0.4825 0.7016,0.7649 0.7016,1.3027 0,1.4035 -0.4695,1.6883 -3.3667,2.0422 -1.9007,0.2321 -8.0293,0.2285 -11.0134,-0.01 z"
         id="path53" /><path
         style="fill:#ef9f48;fill-opacity:0.976471;stroke:#000000;stroke-width:5;stroke-dasharray:none;stroke-opacity:0.988235;paint-order:stroke markers fill"
         d="m 2129.2375,2352.0283 c -1.0532,-0.6711 -4.6885,-4.4269 -6.1174,-6.3202 -1.2616,-1.6715 -2.1415,-3.3862 -2.3082,-4.4978 -0.3546,-2.3646 1.3888,-4.5993 5.9202,-7.5887 2.3815,-1.5711 4.3222,-2.651 4.764,-2.651 0.5362,0 0.4131,1.1135 -0.579,5.2408 -0.5003,2.0811 -0.9587,4.421 -1.0187,5.1998 -0.1027,1.3335 -0.08,1.4412 0.3929,1.8523 0.7718,0.6711 1.0395,1.9493 1.0395,4.9631 0,2.8359 -0.1074,3.5502 -0.6095,4.0523 -0.4113,0.4113 -0.4574,0.4035 -1.4838,-0.2506 z"
         id="path54" /><path
         style="fill:#ef9f48;fill-opacity:0.976471;stroke:#000000;stroke-width:5;stroke-dasharray:none;stroke-opacity:0.988235;paint-order:stroke markers fill"
         d="m 2122.5971,2371.7468 c -0.079,-0.6351 -0.098,-2.5051 -0.041,-4.1557 0.1528,-4.4491 0.8447,-6.247 3.3453,-8.6939 1.4731,-1.4414 2.6236,-2.0655 3.267,-1.7723 0.9258,0.4218 1.1637,1.2761 1.1674,4.1926 0.01,3.7415 -0.1567,4.0489 -4.3734,8.3209 l -3.2209,3.2631 z"
         id="path55" /><path
         style="fill:#ef9f48;fill-opacity:0.976471;stroke:#000000;stroke-width:5;stroke-dasharray:none;stroke-opacity:0.988235;paint-order:stroke markers fill"
         d="m 2121.5835,2385.8107 c -0.3972,-1.0351 1.3568,-5.0257 3.9447,-8.9748 1.7013,-2.5962 2.8923,-3.816 3.7259,-3.816 0.5375,0 0.6629,0.1139 1.0367,0.9421 0.3499,0.7752 0.4386,1.4165 0.5008,3.6198 0.098,3.4788 -0.112,3.9406 -2.5502,5.5999 -3.4742,2.3644 -6.3271,3.4909 -6.6579,2.629 z"
         id="path56" /><path
         style="fill:#ef9f48;fill-opacity:0.976471;stroke:#000000;stroke-width:5;stroke-dasharray:none;stroke-opacity:0.988235;paint-order:stroke markers fill"
         d="m 2129.8432,2398.8725 c -1.2623,-0.1952 -3.016,-0.7719 -4.5171,-1.4853 -1.5891,-0.7553 -3.4167,-2.2173 -3.4167,-2.7332 0,-0.8036 2.7708,-2.3786 5.1165,-2.9083 1.2551,-0.2835 1.4407,-0.2838 1.9827,0 1.1276,0.5831 2.1462,2.9251 2.3574,5.4203 0.1202,1.4201 0.1167,1.4337 -0.4162,1.6363 -0.2955,0.1124 -0.5538,0.1922 -0.574,0.1773 -0.02,-0.015 -0.2598,-0.062 -0.5326,-0.1036 z"
         id="path57" /><path
         style="fill:#ffffff;stroke:none;stroke-width:0.991729;paint-order:stroke markers fill"
         d=""
         id="path58"
         transform="translate(-663.5952,2241.9783)" /><path
         style="fill:#ef9f48;fill-opacity:0.976471;stroke:#000000;stroke-width:5;stroke-dasharray:none;stroke-opacity:0.988235;paint-order:stroke markers fill"
         d="m 2129.6934,2418.5014 c -0.5176,-0.7304 -1.7689,-2.3593 -2.7806,-3.6198 -2.7107,-3.3771 -3.8323,-5.9864 -3.8873,-9.0437 -0.031,-1.6944 0.3296,-2.3895 1.3359,-2.5783 1.3204,-0.2477 3.1009,1.0443 4.6681,3.3875 1.9967,2.9853 2.7339,5.8456 2.5162,9.7633 -0.1377,2.4782 -0.3322,3.4191 -0.7069,3.4191 -0.1124,0 -0.6278,-0.5976 -1.1454,-1.3281 z"
         id="path59" /><path
         style="fill:#ef9f48;fill-opacity:0.976471;stroke:#000000;stroke-width:5;stroke-dasharray:none;stroke-opacity:0.988235;paint-order:stroke markers fill"
         d="m 2124.0034,2434.6514 c -0.4037,-0.6162 -0.9044,-3.0994 -0.9016,-4.4713 0.01,-2.1757 0.8211,-4.2404 2.1528,-5.4435 1.6902,-1.5269 3.2796,-1.4396 5.098,0.2801 1.2145,1.1487 1.7642,2.1557 1.5791,2.893 -0.2373,0.9459 -1.2964,2.2137 -3.6258,4.3408 -2.2927,2.0935 -3.2907,2.8494 -3.7638,2.8508 -0.1339,5e-4 -0.3763,-0.202 -0.5387,-0.4499 z"
         id="path60" /><path
         style="fill:#ef9f48;fill-opacity:0.976471;stroke:#000000;stroke-width:5;stroke-dasharray:none;stroke-opacity:0.988235;paint-order:stroke markers fill"
         d="m 2147.496,2398.9853 c -4.693,-0.6041 -8.9429,-2.0897 -9.8237,-3.4339 -0.4193,-0.64 -0.9637,-2.6076 -0.8229,-2.9745 0.3181,-0.829 2.2416,-0.8116 10.3491,0.094 7.8093,0.8721 10.0165,1.7591 10.0165,4.0254 0,0.3783 -0.056,0.8328 -0.1237,1.01 -0.1778,0.4635 -1.3908,1.0286 -2.7455,1.279 -1.3332,0.2464 -4.9356,0.2465 -6.8498,1e-4 z"
         id="path61" /><path
         style="fill:#ef9f48;fill-opacity:0.976471;stroke:#000000;stroke-width:5;stroke-dasharray:none;stroke-opacity:0.988235;paint-order:stroke markers fill"
         d="m 2144.9175,2457.3187 c -4.39,-0.2945 -6.8977,-0.8905 -7.5774,-1.8009 -0.4674,-0.626 -0.5213,-2.1841 -0.098,-2.8302 0.4371,-0.6671 1.7692,-1.2356 3.5794,-1.5275 2.7678,-0.4464 14.7166,0.092 17.9069,0.8072 1.8497,0.4145 2.6519,1.1368 2.6519,2.3877 0,1.0977 -0.8804,1.698 -3.2727,2.2312 -2.9378,0.6548 -9.1805,1.0015 -13.19,0.7325 z"
         id="path62" /><path
         style="fill:#ef9f48;fill-opacity:0.976471;stroke:#000000;stroke-width:5;stroke-dasharray:none;stroke-opacity:0.988235;paint-order:stroke markers fill"
         d="m 2126.8565,2456.6437 c -2.1255,-1.4443 -3.3076,-5.2676 -3.1216,-10.0966 0.08,-2.0878 0.1693,-2.6076 0.6098,-3.5699 0.9022,-1.9706 4.1864,-4.8999 5.4936,-4.8999 0.2436,0 0.572,0.2592 0.8165,0.6446 0.381,0.6003 0.3981,0.8083 0.2493,3.0248 -0.2797,4.1643 -0.1588,6.4964 0.4523,8.7272 0.2988,1.0909 0.5791,2.4904 0.6229,3.11 0.077,1.0947 0.055,1.1527 -0.77,2.0483 -0.4673,0.5069 -1.0953,1.0487 -1.3955,1.204 -0.8534,0.4413 -2.1487,0.357 -2.9573,-0.1925 z"
         id="path63" /></g></g></svg>
