<svg xmlns="http://www.w3.org/2000/svg" version="1.1" xmlns:xlink="http://www.w3.org/1999/xlink" width="613.6748" height="354.63342"><svg version="1.1" id="SvgjsSvg1262" width="613.6748" height="354.63342" viewBox="0 0 613.6748 354.63342" xml:space="preserve" xmlns="http://www.w3.org/2000/svg" xmlns:svg="http://www.w3.org/2000/svg"><defs id="SvgjsDefs1261"><rect x="553.77002" y="202.14999" width="809.53186" height="459.70193" id="SvgjsRect1260"></rect></defs><g id="SvgjsG1259" transform="translate(2630.1827,-855.65944)"><g id="SvgjsG1258" transform="translate(-2813.5991,-1449.6503)"><text xml:space="preserve" style="font-size:66.6667px;font-family:Arial;-inkscape-font-specification:Arial;text-align:center;writing-mode:lr-tb;direction:ltr;text-anchor:middle;opacity:0.984694;fill:none;stroke:#f6ff0e;stroke-width:1.88976;paint-order:markers fill stroke" x="258.66412" y="-191.26572" id="SvgjsText1257"><tspan id="SvgjsTspan1256" x="258.66412" y="-191.26572"></tspan></text><text xml:space="preserve" id="SvgjsText1255" style="font-style:normal;font-variant:normal;font-weight:normal;font-stretch:normal;font-size:66.6667px;font-family:'Segoe Print';-inkscape-font-specification:'Segoe Print, Normal';font-variant-ligatures:normal;font-variant-caps:normal;font-variant-numeric:normal;font-variant-east-asian:normal;text-align:center;writing-mode:lr-tb;direction:ltr;white-space:pre;shape-inside:url(#rect2655-6);display:inline;opacity:0.984694;fill:#182d3a;fill-opacity:1;stroke:#3b1a44;stroke-width:1.88976;stroke-opacity:1;paint-order:markers fill stroke"></text><path id="SvgjsPath1254" style="opacity:0.984694;fill:#d56b3e;fill-opacity:0.976471;stroke:#000000;stroke-width:5;stroke-dasharray:none;stroke-opacity:0.988235;paint-order:stroke markers fill" d="m 246.68139,2307.8266 c -9.07684,0.3794 -18.27671,-0.5057 -26.71485,2.0781 a 1.0375975,1.0375975 0 0 1 -0.0625,0.016 c -1.85223,0.4451 -2.79642,1.6056 -3.34961,3.2285 -0.55318,1.6229 -0.58247,3.6833 -0.32031,5.4473 a 1.0375975,1.0375975 0 0 1 0.006,0.047 c 2.74697,26.6775 1.76539,53.5502 1.81055,80.25 a 1.0375975,1.0375975 0 0 1 0,0.016 c -0.27922,20.4199 0.0952,40.9272 -2.64649,61.3008 -8e-5,0 8e-5,0.01 0,0.01 -0.0544,1.6908 -0.19998,3.565 -0.0234,5.2207 0.16378,1.5359 0.63021,2.7742 1.53321,3.6758 18.42945,-0.1502 36.85145,0.344 55.18554,-0.5078 1.85984,-0.1308 2.82245,-1.5992 2.54102,-3.4082 a 1.0375975,1.0375975 0 0 1 -0.0117,-0.1778 c 0.20628,-12.4315 -3.04068,-24.9858 -1.39062,-37.8027 a 1.0375975,1.0375975 0 0 1 0.004,-0.025 c 0.58708,-3.809 4.21269,-6.2155 7.91797,-5.75 l -0.20117,-0.01 c 11.68008,-0.8127 22.78581,2.7892 33.89844,3.586 1.23866,0.062 1.88362,-0.4827 2.40234,-1.459 0.51905,-0.9769 0.72054,-2.3916 0.60156,-3.5234 a 1.0375975,1.0375975 0 0 1 -0.006,-0.1172 c 0.0883,-12.4091 0.94298,-24.8345 -0.67382,-36.9922 a 1.0375975,1.0375975 0 0 1 -0.006,-0.062 c -0.10229,-1.4366 -0.71072,-2.9121 -1.63477,-3.9063 -0.92405,-0.9942 -2.08042,-1.5351 -3.57227,-1.3203 a 1.0375975,1.0375975 0 0 1 -0.0879,0.01 c -9.82109,0.5801 -19.5598,2.9036 -29.625,3.5293 -4.32564,0.4164 -8.65515,0.7173 -12.98046,0.9785 a 1.0375975,1.0375975 0 0 1 -1.09766,-1.0878 c 0.38246,-7.4237 -0.97405,-15.3952 1.4668,-23.0391 a 1.0375975,1.0375975 0 0 1 0.0703,-0.168 c 1.22889,-2.3316 3.5567,-3.146 5.76953,-3.3183 2.21283,-0.1723 4.48552,0.1651 6.1543,0.1523 a 1.0375975,1.0375975 0 0 1 0.11523,0.01 c 14.37618,1.495 28.17803,5.8758 42.28516,7.0136 a 1.0375975,1.0375975 0 0 1 0.0586,0.01 c 2.37435,0.3274 4.65468,-1.3827 4.50195,-3.8242 a 1.0375975,1.0375975 0 0 1 -0.002,-0.078 c 0.1512,-12.3058 -2.16768,-24.561 -2.875,-37.045 l -0.01,-0.098 c -0.58272,-3.9235 -0.37554,-7.8986 -1.70704,-11.1465 -3.14052,-1.0901 -7.0622,-0.5251 -10.93359,-0.9551 l 0.0879,0.01 c -22.13484,-0.5756 -44.28712,-0.7572 -66.43555,-0.7539 z m 2.77148,15.9941 a 1.0375975,1.0375975 0 0 1 1.35156,0.1953 c 0.1998,0.2328 0.3573,0.4599 0.46289,0.7442 0.10559,0.2842 0.15394,0.6706 -0.002,1.041 -0.15589,0.3704 -0.48845,0.6165 -0.76563,0.7148 -0.27717,0.098 -0.52118,0.1005 -0.75195,0.062 -0.46153,-0.076 -1.07714,-0.3702 -1.19922,-1.1367 -0.061,-0.3832 0.0731,-0.7631 0.25196,-1.0195 0.17887,-0.2565 0.39685,-0.4358 0.65234,-0.6016 z m 57.99414,0.08 c 1.37489,-0.037 2.93457,0.074 4.20898,1.1328 a 1.0375975,1.0375975 0 0 1 0.23829,0.2832 c 1.69345,2.9597 1.40989,6.6388 1.1875,9.334 a 1.0375975,1.0375975 0 0 1 -1.58789,0.791 c -4.99544,-3.1625 -9.24766,-7.4933 -14.89063,-7.6348 h -0.002 c -2.15714,-0.051 -4.26881,-0.097 -6.11524,0.3086 0.0497,0.087 0.0253,0.179 0.0957,0.2715 0.27439,0.3604 0.72722,0.748 1.27539,1.1367 1.09634,0.7774 2.55042,1.5053 3.54101,2.75 l -0.14648,-0.1484 c 2.19154,1.834 4.53669,3.5404 6.65234,5.6719 a 1.0375975,1.0375975 0 0 1 -0.80664,1.7656 c -6.33365,-0.4281 -10.72373,-5.4927 -14.82812,-8.9785 a 1.0375975,1.0375975 0 0 1 -0.0293,-0.025 c -1.80273,-1.652 -4.04149,-2.2441 -6.56836,-2.4981 -2.52687,-0.2539 -5.28141,-0.1371 -7.92188,-0.5078 l 0.12696,0.01 c -5.40031,-0.087 -10.87688,-0.7182 -15.7461,0.625 -1.14199,15.914 -0.61638,32.0228 -0.83789,48.0996 0.11975,6.7311 -0.24086,13.498 0.14844,20.0332 0.96107,0.3139 2.10779,0.4162 3.43164,0.3613 1.57265,-0.065 3.28612,-0.2603 4.96289,-0.061 l -0.12304,-0.01 h 37 a 1.0375975,1.0375975 0 0 1 1.03515,1.1094 c -0.1643,2.3658 0.47874,5.2261 -0.62695,8.0019 a 1.0375975,1.0375975 0 0 1 -1.58985,0.4414 c -1.36728,-1.0367 -2.09953,-2.5441 -2.88085,-3.5254 -0.39066,-0.4906 -0.76622,-0.8369 -1.13086,-1.0136 -0.36465,-0.1768 -0.73322,-0.2444 -1.37696,-0.076 a 1.0375975,1.0375975 0 0 1 -0.21484,0.033 c -11.51757,0.5279 -23.03866,0.094 -34.34375,1.3281 -1.58379,0.3684 -2.52715,1.3469 -3.16406,2.7402 -0.64178,1.404 -0.88233,3.2063 -0.84571,4.8262 a 1.0375975,1.0375975 0 0 1 -0.002,0.084 c -0.7481,12.7598 -0.10409,25.6953 -1.45117,38.582 a 1.0375975,1.0375975 0 0 1 -0.13672,0.418 c -0.80383,1.3715 -2.32648,1.7131 -3.59375,1.8008 -1.26727,0.088 -2.51427,0 -3.11914,0.1289 a 1.0375975,1.0375975 0 0 1 -0.21875,0.021 c -3.86322,-0.039 -8.04375,0.446 -12.04297,-0.4004 a 1.0375975,1.0375975 0 0 1 -0.80469,-0.8262 c -1.18296,-6.3951 -0.4077,-12.9097 -0.71093,-19.0996 a 1.0375975,1.0375975 0 0 1 0,-0.053 c 0.022,-14.8434 -0.22496,-29.7859 0.37695,-44.6328 a 1.0375975,1.0375975 0 0 1 1.9043,-0.5274 c 2.20914,3.3652 5.34152,6.147 8.25585,9.2363 a 1.0375975,1.0375975 0 0 1 -0.13867,1.5489 c -4.44433,3.2676 -8.31686,8.0742 -7.59179,13.623 a 1.0375975,1.0375975 0 0 1 0.008,0.1465 c -0.0522,4.2893 3.45799,7.6777 6.92578,10.1855 a 1.0375975,1.0375975 0 0 1 0.3457,1.2481 c -1.14419,2.6676 -3.16735,4.7625 -4.82422,6.8652 -1.61705,2.0522 -2.83379,4.0509 -2.93945,6.502 1.80712,4.7216 5.97808,8.443 9.51758,12.541 a 1.0375975,1.0375975 0 0 1 0.0723,0.092 c 0.51248,0.7502 1.1467,0.9409 1.83985,0.8359 0.69315,-0.1049 1.40359,-0.5822 1.7793,-1.3554 a 1.0375975,1.0375975 0 0 1 0.12695,-0.1993 c 0.89605,-1.1102 1.96901,-2.4785 2.46484,-3.7324 0.49583,-1.2539 0.55383,-2.1642 -0.50976,-3.2109 a 1.0375975,1.0375975 0 0 1 -0.0547,-0.059 c -1.53907,-1.7689 -3.40081,-3.3417 -5.18359,-5.0977 a 1.0375975,1.0375975 0 0 1 -0.084,-1.3847 c 1.72126,-2.1654 3.79354,-4.5446 5.0918,-7.0137 1.29236,-2.4579 1.82936,-4.8779 0.72851,-7.4844 -0.83148,-1.6279 -2.194,-3.0311 -3.62695,-4.5097 -1.44084,-1.4869 -2.95276,-3.0565 -3.86523,-5.125 a 1.0375975,1.0375975 0 0 1 0.0273,-0.8946 c 1.27705,-2.4752 3.41693,-4.3938 5.12109,-6.3633 1.67867,-1.9399 2.88148,-3.8245 2.84766,-6.2109 -0.56266,-2.1116 -1.87899,-3.8526 -3.46289,-5.5898 -1.61647,-1.773 -3.47805,-3.5198 -4.79883,-5.7227 a 1.0375975,1.0375975 0 0 1 0.0391,-1.127 c 2.78056,-3.9901 6.43953,-7.2937 8.52344,-11.2128 -1.16542,-1.4601 -2.69124,-2.7893 -4.25976,-4.209 -1.74558,-1.58 -3.49088,-3.3152 -4.45704,-5.6739 a 1.0375975,1.0375975 0 0 1 0.0293,-0.8496 c 1.12611,-2.2998 3.06041,-3.8609 4.75195,-5.4043 1.68912,-1.5412 3.12326,-3.0247 3.67774,-5.0332 0.57188,-2.1753 -0.25007,-3.803 -1.6836,-5.5507 -1.43448,-1.749 -3.46185,-3.411 -4.87304,-5.3672 l 0.21679,0.2207 c -0.5345,-0.4038 -0.91939,-0.7401 -1.14648,-1.295 -0.22709,-0.5548 0.0173,-1.3624 0.36719,-1.7011 0.65702,-0.636 1.2862,-0.7258 1.76367,-0.9356 1.71005,-1.2717 3.41098,-2.9551 4.50781,-4.8203 1.10554,-1.88 1.6092,-3.8849 1.07031,-5.9824 a 1.0375975,1.0375975 0 0 1 1.00391,-1.2949 c 16.73702,0.012 33.48956,-0.5789 50.26953,-0.6934 a 1.0375975,1.0375975 0 0 1 0.18555,0.016 c 0.94177,0.1647 2.23837,0.01 3.61328,-0.031 z m -72.73437,0.7148 c 1.78862,0 3.5804,-2e-4 5.37304,0.01 l -0.0156,0.016 a 1.0375975,1.0375975 0 0 1 0.0508,-0.02 c 0.75052,0.03 1.79294,0.016 2.78906,0.039 0.99612,0.023 1.89891,0.041 2.69922,0.3164 a 1.0375975,1.0375975 0 0 1 0.16602,1.8867 c -3.92878,2.1843 -7.93494,4.6863 -8.74805,8.9883 a 1.0375975,1.0375975 0 0 1 -0.006,0.027 c -0.58379,2.6706 0.22887,5.1126 1.72851,7.457 1.49965,2.3445 3.67966,4.512 5.62305,6.4219 a 1.0375975,1.0375975 0 0 1 0.0664,1.4082 c -1.71853,2.0422 -3.98541,3.9917 -5.58985,6.082 -1.59974,2.0843 -2.52022,4.1481 -1.89062,6.6934 0.90423,3.1453 3.87476,5.3584 6.57031,7.8008 a 1.0375975,1.0375975 0 0 1 0.0234,1.5156 c -2.3061,2.2265 -4.54492,4.5881 -7.00391,6.7813 a 1.0375975,1.0375975 0 0 1 -1.72851,-0.7344 c -0.68352,-17.8628 -1.15535,-35.7562 -1.14453,-53.6524 a 1.0375975,1.0375975 0 0 1 1.03711,-1.0371 z m 36.70117,9.6953 c 1.54843,0.1733 3.54778,0.048 5.52343,0.2852 1.97566,0.2376 4.04548,0.9124 5.38086,2.7988 a 1.0375975,1.0375975 0 0 1 0.18946,0.6192 c -0.007,0.3632 -0.16248,0.7624 -0.40235,1.0273 -0.23986,0.2649 -0.51646,0.4044 -0.76953,0.4942 -0.50612,0.1795 -0.97936,0.1955 -1.45508,0.2011 -0.95142,0.011 -2.02964,-0.021 -2.14453,0.01 a 1.0375975,1.0375975 0 0 1 -0.30664,0.025 c -3.3553,-0.2127 -7.5032,0.3791 -11.06445,-1.3926 a 1.0375975,1.0375975 0 0 1 -0.53125,-0.6348 c -0.26247,-0.8842 -0.18104,-1.8172 0.35547,-2.4277 0.5365,-0.6105 1.23991,-0.7713 1.86719,-0.8535 0.62727,-0.082 1.25128,-0.069 1.79882,-0.066 0.54754,0 1.03196,-0.02 1.20508,-0.061 a 1.0375975,1.0375975 0 0 1 0.35352,-0.022 z"></path><path id="SvgjsPath1253" style="opacity:0.984694;fill:#41beaf;fill-opacity:1;stroke:#000000;stroke-width:5;stroke-dasharray:none;stroke-opacity:0.988235;paint-order:stroke markers fill" d="m 358.52275,2310.2855 c -7.0754,0.5247 -14.0251,-0.6077 -19.6036,1.6699 -0.9137,1.0339 -1.1579,2.3209 -1.0664,4.2578 0.099,2.0919 0.637,4.5763 0.3438,7.1621 l 0.01,-0.3535 c 1.9405,35.4397 2.1181,71.0371 1.0118,106.4785 v -0.1113 c 0.1782,8.4818 -1.9561,16.989 1.6464,23.4336 4.8574,5.6012 12.9261,8.015 20.252,12.084 l -0.088,-0.045 c 8.2778,4.103 17.1469,7.0201 26.0859,5.8457 a 2.1105235,2.1105235 0 0 1 0.084,-0.01 c 7.7748,-0.7074 14.7266,-6.0765 22.666,-9.7598 a 2.1105235,2.1105235 0 0 1 0.1426,-0.061 c 0.6125,-0.2313 1.7297,-0.9908 2.9785,-1.7441 1.2489,-0.7534 2.7811,-1.66 4.7754,-1.3184 a 2.1105235,2.1105235 0 0 1 1.6993,1.5977 c 0.5171,2.2049 0.4415,4.5259 0.8144,6.1582 0.1864,0.8161 0.4525,1.3914 0.7422,1.7246 0.2885,0.3319 0.5844,0.547 1.4023,0.6523 12.0894,1.2074 24.4838,0.4736 36.9239,0.3867 a 2.1105235,2.1105235 0 0 1 0.1972,0.01 c 1.9153,0.1655 3.395,-0.6389 4.5157,-2.0488 1.1207,-1.4099 1.7213,-3.4349 1.5,-5.2988 a 2.1105235,2.1105235 0 0 1 -0.012,-0.1426 c -1.0597,-21.1761 -1.7675,-42.3862 -1.7539,-63.6348 v -0.027 c 0,0 0,-0.01 0,-0.012 -0.4752,-26.9602 0.7456,-53.8367 1.3887,-80.6601 l 0.01,0.2168 c -0.141,-1.7785 0.099,-3.6988 -0.084,-4.8106 -0.091,-0.5559 -0.2526,-0.7474 -0.2246,-0.7226 0.028,0.025 0.081,-0.087 -0.6328,0.033 a 2.1105235,2.1105235 0 0 1 -0.3965,0.027 c -14.2431,-0.3169 -28.4875,-0.6098 -42.586,0.3066 -0.8103,0.073 -0.7145,0.1439 -0.7695,0.2422 -0.055,0.099 -0.1817,0.6431 -0.1133,1.502 0.1369,1.7178 1.0532,4.1321 0.5137,6.7715 l 0.041,-0.4669 c 0.6275,29.8926 2.1024,60.1984 -0.543,90.2442 a 2.1105235,2.1105235 0 0 1 0,0.01 c -0.1928,2.094 -0.3903,4.5222 -1.2265,6.8633 -0.8363,2.341 -2.4784,4.658 -5.2461,5.875 l 0.2871,-0.1543 c -2.5759,1.6485 -5.9107,3.7865 -9.584,4.8496 -3.6733,1.0631 -8.0296,0.8634 -11.3516,-2.3594 a 2.1105235,2.1105235 0 0 1 -0.1777,-0.1934 c -7.102,-8.85 -6.7732,-20.5891 -7.6152,-30.2168 a 2.1105235,2.1105235 0 0 1 -0.01,-0.123 c -0.7847,-27.1711 1.7243,-54.2094 1.9336,-81.1289 a 2.1105235,2.1105235 0 0 1 0.1289,-0.7109 c 0.3004,-0.8194 0.1954,-1.0697 0.1894,-1.084 -0.01,-0.014 -0.01,-0.082 -0.3847,-0.2442 -0.7506,-0.3237 -2.5807,-0.4773 -4.1836,-0.5761 -8.2179,-0.4015 -16.4863,-0.3933 -24.7813,-0.377 z m 4.3808,10.7793 c 1.4669,0.1041 3.068,0.3322 4.5078,1.3906 0.7199,0.5292 1.4115,1.3931 1.6192,2.4707 0.2076,1.0775 -0.072,2.1737 -0.6036,3.1504 a 2.1105235,2.1105235 0 0 1 -0.1054,0.1738 c -3.0542,4.5212 -6.4301,9.6033 -11.3067,13.043 a 2.1105235,2.1105235 0 0 1 -3.2988,-1.3848 c -0.9461,-5.8002 0.035,-11.5446 0.4258,-16.8437 a 2.1105235,2.1105235 0 0 1 2.1055,-1.9532 h 4.2812 l -0.2891,0.019 c 0.7832,-0.108 1.6885,-0.1356 2.6641,-0.066 z m 85.6953,1.8964 c 1.2671,0.016 2.6433,0.7797 3.2422,1.7911 0.599,1.0113 0.6614,1.9768 0.6777,2.8632 0.033,1.769 -0.241,3.5394 -0.1699,4.3438 0.1357,0.8494 0.312,1.4671 -0.2129,2.5547 -0.2746,0.5691 -1.1026,1.2677 -1.8828,1.3574 -0.7802,0.09 -1.2489,-0.1551 -1.5781,-0.334 -1.3169,-0.7156 -1.7739,-1.539 -2.2949,-2.1016 a 2.1105235,2.1105235 0 0 1 -0.1055,-0.123 c -0.5892,-0.7445 -1.609,-1.6744 -2.6191,-2.7754 -1.0101,-1.101 -2.0876,-2.4348 -2.4414,-4.2754 a 2.1105235,2.1105235 0 0 1 1.1113,-2.2773 c 1.8544,-0.9482 3.5849,-0.7034 4.6308,-0.7481 l -0.5488,0.096 c 0.7593,-0.241 1.4674,-0.38 2.1914,-0.3711 z m -13.332,11.2188 c 0.6123,-0.1099 1.2207,0.086 1.5723,0.3008 a 2.1105235,2.1105235 0 0 1 0.5761,0.5195 c 4.0343,5.2776 10.2428,9.8282 13.5391,16.9629 a 2.1105235,2.1105235 0 0 1 0.125,0.3496 c 1.5649,5.9602 2.4571,13.431 -1.5371,19.4902 a 2.1105235,2.1105235 0 0 1 -0.7403,0.6836 c -1.3874,0.7678 -2.66,0.9058 -3.5195,1.1543 -0.8594,0.2486 -1.1877,0.403 -1.5117,0.9258 a 2.1105235,2.1105235 0 0 1 -0.2266,0.3027 c -2.0552,2.2753 -4.4539,4.6985 -7.0156,6.4688 a 2.1105235,2.1105235 0 0 1 -3.3086,-1.8164 c 0.1537,-4.0004 2.2934,-7.0762 4.5664,-9.6016 2.273,-2.5253 4.7456,-4.6831 6.2285,-6.8379 a 2.1105235,2.1105235 0 0 1 0.3262,-0.3711 c 0.9445,-0.8499 1.7268,-2.0656 1.957,-3.0527 0.2303,-0.9871 0.1657,-1.6101 -0.7343,-2.4434 a 2.1105235,2.1105235 0 0 1 -0.3926,-0.4902 c -3.3678,-5.8107 -9.7517,-11.0877 -11.8281,-19.1016 a 2.1105235,2.1105235 0 0 1 -0.066,-0.5292 c 0,-0.3192 4e-4,-0.5511 0.1289,-1.0586 0.064,-0.2538 0.087,-0.571 0.5644,-1.1172 0.2386,-0.2731 0.6846,-0.6284 1.2969,-0.7383 z m -66.5586,7.9629 a 2.1105235,2.1105235 0 0 1 1.8281,2.5117 c -1.0676,5.3068 -3.3821,9.9188 -4.414,14.3965 0.5785,1.6249 1.5092,3.585 2.3945,5.6972 0.9684,2.3107 1.8837,4.7131 1.6152,7.2618 a 2.1105235,2.1105235 0 0 1 -3.6289,1.2324 c -4.0946,-4.3085 -8.8757,-9.0183 -11.5332,-14.8711 a 2.1105235,2.1105235 0 0 1 0.01,-1.7617 c 2.7289,-5.8756 7.9144,-10.3326 12.1094,-13.9668 a 2.1105235,2.1105235 0 0 1 1.6211,-0.5 z m 67.7812,11.0176 c 2.1278,0.905 3.1705,3.1367 3.0137,4.998 -0.1568,1.8613 -1.1788,3.6325 -3.0683,4.4395 a 2.1105235,2.1105235 0 0 1 -2.8965,-1.5215 c -0.1989,-0.9788 -0.3262,-2.1608 -0.3399,-3.3477 -0.014,-1.1869 -0.022,-2.2852 0.5508,-3.5176 a 2.1105235,2.1105235 0 0 1 2.7402,-1.0507 z m -80.916,21.3672 a 2.1105235,2.1105235 0 0 1 2.125,0.5312 c 3.3037,3.3358 7.9098,6.9566 9.6934,12.4668 a 2.1105235,2.1105235 0 0 1 -0.047,1.4336 c -2.4321,6.0939 -7.3459,10.2357 -11.0156,14.4082 a 2.1105235,2.1105235 0 0 1 -3.6895,-1.5332 c 0.5395,-8.1913 -0.045,-17.2479 1.4825,-25.668 a 2.1105235,2.1105235 0 0 1 1.4511,-1.6387 z m 95.3926,5.1816 a 2.1105235,2.1105235 0 0 1 1.2109,1.5273 c 1.5902,8.2818 -0.1935,16.4972 -0.4843,24.0528 a 2.1105235,2.1105235 0 0 1 -0.051,0.3808 c 0.024,-0.1062 -0.033,0.3628 -0.055,0.8555 -0.022,0.4927 -0.038,1.0693 -0.1523,1.709 -0.057,0.3198 -0.1293,0.6582 -0.3379,1.0859 -0.2086,0.4277 -0.647,1.0706 -1.4981,1.3535 -0.851,0.283 -1.6967,0 -2.1758,-0.2871 -0.4791,-0.2918 -0.7889,-0.6169 -1.1074,-0.9922 -3.645,-4.2451 -8.6465,-8.7998 -10.1855,-15.3379 a 2.1105235,2.1105235 0 0 1 0.3301,-1.7011 c 3.2065,-4.5481 7.3689,-9.4211 12.5605,-12.5313 a 2.1105235,2.1105235 0 0 1 1.9453,-0.1152 z m -82.3281,21.5117 a 2.1105235,2.1105235 0 0 1 1.4687,1.5273 l 0.023,0.096 a 2.1105235,2.1105235 0 0 1 0.059,0.502 c 1e-4,1.0398 0.2213,2.5042 0.2832,4.0957 0.062,1.5915 -0.024,3.4263 -1.0801,5.1094 a 2.1105235,2.1105235 0 0 1 -1.1367,0.8867 c -1.7293,0.5599 -3.1858,2.056 -3.8047,3.7422 -0.6189,1.6862 -0.4917,3.3752 0.7851,4.8437 a 2.1105235,2.1105235 0 0 1 0.2872,0.4258 c 4.8278,9.4563 14.5544,16.1125 25.1523,16.7363 a 2.1105235,2.1105235 0 0 1 0.041,0 c 15.0166,1.178 30.1811,-3.1062 44.4922,-8.2343 a 2.1105235,2.1105235 0 0 1 1.8516,0.2109 c 2.0599,1.3222 3.6174,3.0474 5.1054,4.4668 1.1881,1.1334 2.3021,1.9419 3.4356,2.4766 0.7653,-0.6253 1.1481,-1.4727 1.0879,-2.8379 -0.076,-1.7271 -0.9634,-3.811 -1.9219,-4.8594 a 2.1105235,2.1105235 0 0 1 -0.2734,-0.3711 c -2.9771,-5.1776 -8.9172,-9.9289 -10.7461,-17.2851 a 2.1105235,2.1105235 0 0 1 0.5097,-1.9532 c 0.813,-0.8672 2.2572,-1.2683 3.2813,-1.0449 1.0241,0.2234 1.6941,0.7308 2.2793,1.2129 1.1703,0.9642 2.25,2.1355 2.289,2.1621 a 2.1105235,2.1105235 0 0 1 0.4727,0.4414 c 1.0168,1.2989 2.6904,2.6489 4.3398,4.2129 1.6494,1.564 3.3586,3.4317 3.9453,6.0508 a 2.1105235,2.1105235 0 0 1 0.051,0.3867 c 0.3361,9.5143 1.0356,19.147 0.545,28.8984 a 2.1105235,2.1105235 0 0 1 -3.5293,1.4532 c -5.7946,-5.2885 -9.7657,-12.2057 -16.0372,-14.2442 -5.9294,-0.2396 -11.8589,3.6903 -18.7285,5.7344 l 0.078,-0.025 c -6.8067,2.3146 -13.8146,6.4949 -21.9356,7.3125 a 2.1105235,2.1105235 0 0 1 -1.1426,-0.207 c -7.9039,-3.891 -13.9727,-10.2043 -20.2695,-15.3125 a 2.1105235,2.1105235 0 0 1 -0.1465,-0.1309 c -4.9271,-4.83 -11.3677,-9.4813 -15.1601,-16.2988 a 2.1105235,2.1105235 0 0 1 -0.086,-1.8809 c 2.8744,-6.4846 6.9111,-12.7412 12.0801,-17.7832 a 2.1105235,2.1105235 0 0 1 2.0547,-0.5195 z m -14.0781,31.0391 a 2.1105235,2.1105235 0 0 1 1.4941,1.1914 c 2.0978,4.6048 7.3952,7.8539 12.0059,11.8711 a 2.1105235,2.1105235 0 0 1 0.01,0.01 c 0.751,0.6629 2.0787,1.5069 3.3828,2.4785 1.3042,0.9716 2.7126,2.0605 3.3809,3.9219 a 2.1105235,2.1105235 0 0 1 -2.4824,2.7636 c -7.9553,-1.9221 -15.0161,-6.885 -20.1543,-12.9394 a 2.1105235,2.1105235 0 0 1 -0.3028,-0.4707 c -0.5878,-1.2573 -0.766,-2.6321 -0.7304,-4.0645 0.035,-1.4323 0.1359,-2.971 1.5527,-4.2578 a 2.1105235,2.1105235 0 0 1 1.8438,-0.5039 z"></path><path id="SvgjsPath1252" style="opacity:0.984694;fill:#d7af33;fill-opacity:1;stroke:#000000;stroke-width:5;stroke-dasharray:none;stroke-opacity:0.988235;paint-order:stroke markers fill" d="m 500.75315,2309.5433 c -6.5626,0.5793 -13.0989,0.06 -17.9551,2.6269 -0.5583,0.9108 -0.6966,2.0408 -0.5312,3.7344 0.185,1.8945 0.7377,4.1588 0.416,6.6367 l 0.018,-0.3886 c 1.8556,43.7368 1.8169,87.6275 -0.3399,131.3496 a 2.2695868,2.2695868 0 0 1 0,0.055 c -0.204,2.7647 -0.7092,5.85 -0.5274,8.375 0.1745,2.4217 0.7509,3.9981 2.6036,5.0761 9.4418,2.0654 19.6281,1.3919 29.8925,2.0899 0.013,8e-4 0.025,0 0.037,0 6.433,-0.236 12.6639,0.7978 17.6758,-0.9864 0.6511,-1.0258 0.866,-2.2907 0.7559,-4.0957 -0.1253,-2.0542 -0.6329,-4.4669 -0.3535,-7.0215 l -0.012,0.3536 c -0.985,-20.7118 -2.0525,-41.5357 -1.3965,-62.4063 a 2.2695868,2.2695868 0 0 1 4.1191,-1.2402 c 14.9844,21.1598 30.8994,41.9243 43.6445,64.8359 a 2.2695868,2.2695868 0 0 1 0.062,0.1172 c 1.8564,3.8509 4.2088,7.7287 6.8536,10.791 10.9091,-0.3156 21.6759,0.8004 31.8613,-0.8008 1.2276,-0.2065 1.6941,-0.7082 2.1133,-1.6679 0.4201,-0.9618 0.5419,-2.4251 0.3203,-3.7559 a 2.2695868,2.2695868 0 0 1 -0.025,-0.2187 c -2.8591,-41.8501 -1.8888,-83.9201 0.5058,-125.6758 0.1778,-8.5268 1.9941,-16.6562 2.3985,-24.5508 -0.175,-0.5378 -0.3668,-0.8664 -0.7578,-1.123 -0.4511,-0.2961 -1.2057,-0.547 -2.1758,-0.6856 -1.9402,-0.2771 -4.4868,-0.044 -6.8555,-0.4258 l 0.3184,0.029 c -12.2951,-0.2306 -24.5501,-1.1642 -36.377,0.2813 -1.564,0.8708 -1.9832,2.0836 -2.082,4.248 -0.104,2.2795 0.4165,5.1157 0.4004,7.7793 l -0.01,-0.2148 c 1.6132,18.1699 3.2677,36.5596 2.1621,55.0293 a 2.2695868,2.2695868 0 0 1 -0.041,0.3164 c -0.1048,0.5169 -0.2658,1.1217 -0.8808,1.7226 -0.6151,0.601 -1.7502,0.8383 -2.4278,0.6953 -1.3551,-0.2859 -1.6894,-0.8854 -2.1465,-1.3554 -0.457,-0.47 -0.8472,-0.9485 -1.1562,-1.3047 -0.309,-0.3562 -0.7801,-0.6199 -0.2149,-0.3164 a 2.2695868,2.2695868 0 0 1 -0.6464,-0.5215 c -16.4575,-19.161 -29.1789,-40.8569 -44.6719,-60.127 a 2.2695868,2.2695868 0 0 1 -0.076,-0.1 c -2.8584,-3.9905 -6.8594,-6.8272 -11.5332,-6.6601 a 2.2695868,2.2695868 0 0 1 -0.3301,-0.012 c -4.1689,-0.4595 -8.3901,-0.5774 -12.6328,-0.4902 z m 98.7891,10.207 a 2.2695868,2.2695868 0 0 1 2.2715,2.9824 c -0.6502,1.9533 -1.9403,2.517 -3.0039,3.2793 -1.0636,0.7624 -2.0864,1.5325 -2.334,1.8321 a 2.2695868,2.2695868 0 0 1 -0.2559,0.2636 c -0.2043,0.1784 -1.2637,1.1957 -2.2539,1.9141 -0.2475,0.1796 -0.492,0.3487 -0.8281,0.5176 -0.3361,0.1688 -0.7155,0.5958 -1.9727,0.2461 -0.6285,-0.1749 -1.3537,-0.8386 -1.5879,-1.4336 -0.2341,-0.595 -0.1875,-1.0069 -0.1464,-1.3086 0.082,-0.6035 0.2451,-0.9319 0.4394,-1.3438 a 2.2695868,2.2695868 0 0 1 0.2227,-0.373 c 1.9258,-2.6253 4.8389,-6.3347 9.4492,-6.5762 z m -100.0664,3.6113 c 0.5701,-0.021 1.1339,0.082 1.623,0.252 l -0.623,-0.1211 c 2.3898,0.126 5.5687,-0.034 8.3222,1.3457 a 2.2695868,2.2695868 0 0 1 0.9551,3.1504 c -1.8254,3.214 -4.5397,5.7727 -6.3379,8.293 -1.7981,2.5202 -2.6974,4.5582 -1.7949,7.4199 a 2.2695868,2.2695868 0 0 1 0.094,0.4492 c 0.078,0.7597 0.5278,1.1961 1.1211,1.4004 0.5932,0.2043 1.1476,0.1596 1.6835,-0.4278 a 2.2695868,2.2695868 0 0 1 0.4082,-0.3535 c 5.1755,-3.4828 9.1955,-8.9214 13.9219,-13.8203 a 2.2695868,2.2695868 0 0 1 2.6114,-0.4707 c 1.6695,0.7982 2.9511,2.4849 2.8828,4.2656 -0.068,1.7808 -1.1608,3.1496 -2.5215,4.0801 l 0.4785,-0.4414 c -6.9117,8.4986 -15.5715,15.0505 -20.6602,23.6895 -0.532,1.9406 0.1236,3.3995 1.6426,5.291 1.5695,1.9542 3.9369,3.9037 5.7031,6.2363 l -0.096,-0.1191 c 1.9216,2.212 4.7422,4.8606 6.8379,8.0547 2.0958,3.194 3.4625,7.2978 1.8379,11.5918 a 2.2695868,2.2695868 0 0 1 -0.1367,0.2968 c -4.115,7.4369 -11.607,10.9638 -15.1777,16.4121 -0.576,1.6755 -0.8972,3.4801 -0.7422,5.0313 0.163,1.6323 0.7252,2.9325 2.0332,4.0078 a 2.2695868,2.2695868 0 0 1 0.3594,0.373 c 4.181,5.4536 10.8695,10.2141 14.0878,17.8692 a 2.2695868,2.2695868 0 0 1 0.127,0.4004 c 0.1241,0.5765 0.2559,1.029 0.08,1.8633 -0.088,0.4171 -0.3197,1.0394 -0.9297,1.5136 -0.61,0.4742 -1.4253,0.5623 -1.9121,0.4883 -0.9736,-0.148 -1.2584,-0.4886 -1.6016,-0.7558 -0.3432,-0.2673 -0.6384,-0.547 -0.9394,-0.8457 -0.6021,-0.5974 -1.2097,-1.2684 -1.7344,-1.8164 -0.5247,-0.5481 -1.1389,-1.0085 -0.8945,-0.8711 a 2.2695868,2.2695868 0 0 1 -0.2383,-0.1543 c -1.6789,-1.2415 -3.0556,-2.9584 -4.3086,-3.8829 -0.6265,-0.4622 -1.1415,-0.6658 -1.3828,-0.6933 -0.2408,-0.028 -0.3066,-0.073 -0.7754,0.3496 -1.026,0.9335 -2.1101,2.2525 -2.4883,3.2168 -0.1894,0.483 -0.2133,0.8245 -0.166,1.0703 0.047,0.2459 0.1357,0.4906 0.6191,0.9043 a 2.2695868,2.2695868 0 0 1 0.459,0.5352 c 2.3412,3.808 7.8559,7.2357 9.584,13.4804 a 2.2695868,2.2695868 0 0 1 -1.332,2.7071 c -3.5478,1.4449 -8.4735,2.4678 -12.5996,0.1582 a 2.2695868,2.2695868 0 0 1 -1.1016,-1.4649 c -1.8952,-8.1268 -0.546,-16.2799 -1.041,-23.6289 a 2.2695868,2.2695868 0 0 1 -0.01,-0.1523 c -9e-4,-33.4195 -0.5054,-66.9102 0.459,-100.4024 a 2.2695868,2.2695868 0 0 1 0.1094,-0.6387 c -0.068,0.2097 -0.027,-0.9968 0.3086,-2.3496 0.1677,-0.6763 0.5128,-1.6414 1.5351,-2.2949 0.5112,-0.3267 1.0862,-0.4717 1.6563,-0.4922 z m 106.457,6.4043 a 2.2695868,2.2695868 0 0 1 1.3984,1.7442 c 1.2886,7.9491 0.9831,16.1212 0.3536,23.916 a 2.2695868,2.2695868 0 0 1 -0.3028,0.9629 c -0.3029,0.5177 -0.9621,1.1493 -1.7871,1.3281 -0.825,0.1788 -1.5004,-0.065 -1.9219,-0.2871 -0.8428,-0.4439 -1.1817,-0.9111 -1.5566,-1.3496 -0.3749,-0.4385 -0.6985,-0.8688 -0.9453,-1.1738 -0.2468,-0.3051 -0.6201,-0.5021 -0.086,-0.2012 a 2.2695868,2.2695868 0 0 1 -0.6622,-0.5625 c -2.6806,-3.3681 -6.1654,-6.9176 -8.4316,-11.041 a 2.2695868,2.2695868 0 0 1 0.9277,-3.0996 c 3.7702,-1.9941 6.3337,-6.5461 10.7989,-9.9356 a 2.2695868,2.2695868 0 0 1 2.2148,-0.3008 z m -76.4375,9.3125 a 2.2695868,2.2695868 0 0 1 1.7793,0.9336 l 3.8047,5.2305 a 2.2695868,2.2695868 0 0 1 0.072,0.1055 c 1.0339,1.6056 3.2355,3.7102 4.08,6.5351 a 2.2695868,2.2695868 0 0 1 -1.4843,2.8125 c -3.1187,0.996 -6.2696,0.9197 -8.9727,1.1875 -2.5872,0.2564 -4.5605,0.7866 -6.0703,2.1836 -0.6978,1.3573 -0.9984,2.9793 -1.1719,4.9238 -0.1858,2.0838 -0.2508,4.4564 -1.0703,6.8887 a 2.2695868,2.2695868 0 0 1 -3.7363,0.8985 c -1.9396,-1.8943 -5.3477,-4.1046 -6.7813,-7.6915 a 2.2695868,2.2695868 0 0 1 0.3262,-2.248 c 5.6096,-7.1067 11.7736,-13.9308 17.4004,-20.916 a 2.2695868,2.2695868 0 0 1 1.8242,-0.8438 z m 61.4649,15.6856 a 2.2695868,2.2695868 0 0 1 2.1992,0 l 0.1093,0.061 a 2.2695868,2.2695868 0 0 1 0.5196,0.3945 c 2.8997,2.9511 7.4136,6.3573 8.5508,11.8262 a 2.2695868,2.2695868 0 0 1 -0.1231,1.3222 c -1.6569,4.0513 -5.305,7.042 -8.998,8.5606 a 2.2695868,2.2695868 0 0 1 -3.0606,-1.5352 c -1.6354,-6.3767 -0.6723,-12.9619 -0.3633,-18.7656 a 2.2695868,2.2695868 0 0 1 1.1661,-1.8633 z m -47.7579,9.9629 c 3.1974,0.3521 6.3881,2.3594 7.5918,5.9277 0,0 0,0.01 0.01,0.012 3.0635,6.0975 4.5865,13.5744 2.7207,20.209 a 2.2695868,2.2695868 0 0 1 -3.8789,0.8965 c -6.37,-7.1371 -11.52,-15.2695 -16.8867,-22.5996 a 2.2695868,2.2695868 0 0 1 0.748,-3.334 c 2.6037,-1.4117 5.1791,-0.9307 6.6953,-1.0391 l -0.207,0.025 c 1.0642,-0.1754 2.1448,-0.2151 3.2109,-0.098 z m 61.5762,13.7148 c 0.6026,0 1.4763,0.402 1.8867,0.9356 0.7346,0.955 0.586,1.4797 0.5117,1.9003 0.293,8.3212 0.3279,16.9862 -0.2382,25.2891 a 2.2695868,2.2695868 0 0 1 -3.877,1.4414 c -3.7473,-3.7882 -8.9058,-7.5114 -11.7207,-13.2598 a 2.2695868,2.2695868 0 0 1 -0.1133,-1.7148 c 1.7747,-5.3256 6.624,-8.183 9.0684,-11.1738 a 2.2695868,2.2695868 0 0 1 1.6133,-0.8301 c -0.9606,0.061 -1.0001,0.3292 -1.0586,0.375 -0.059,0.046 -0.012,0.012 0.053,-0.055 0.1301,-0.1334 0.3653,-0.4023 0.6211,-0.6973 0.2558,-0.2949 0.5355,-0.6195 0.8359,-0.9336 0.3005,-0.314 0.4915,-0.6095 1.2286,-0.9863 0.2455,-0.1255 0.5868,-0.2946 1.1894,-0.291 z m -44.0391,1.25 a 2.2695868,2.2695868 0 0 1 2.2325,0.8008 c 4.7344,5.9026 5.1809,13.6879 6.1992,19.8359 a 2.2695868,2.2695868 0 0 1 0.023,0.1934 c 0.2776,3.5221 0.9181,8.3669 -0.2754,12.1172 a 2.2695868,2.2695868 0 0 1 -3.998,0.6484 c -1.2731,-1.7498 -3.2752,-3.6706 -4.9219,-6.0137 -1.6467,-2.343 -2.9431,-5.413 -2.1328,-8.8847 l -0.049,0.3086 c 0.4749,-5.1799 -0.3879,-11.5471 1.1953,-17.3789 a 2.2695868,2.2695868 0 0 1 1.7265,-1.627 z m 16.711,27.5801 a 2.2695868,2.2695868 0 0 1 1.9687,0.6738 c 2.2268,2.3231 3.6222,5.0694 5.0411,7.4434 1.1732,1.9631 2.3912,3.5132 3.8105,4.6816 0.2098,-0.2845 0.4433,-0.7901 0.6172,-1.4902 0.3569,-1.4368 0.4039,-3.4137 0.8476,-5.2813 l -0.055,0.3321 c 0.082,-0.9693 -0.02,-2.3207 0.496,-3.8555 0.129,-0.3837 0.2821,-0.8503 0.8575,-1.3789 0.5753,-0.5286 1.8439,-0.8118 2.6191,-0.5469 1.4811,0.5061 1.7563,1.2793 2.2871,2.2109 1.3427,1.4055 2.6624,3.1365 3.291,5.2852 0.6726,2.2991 0.2354,5.257 -1.9414,7.3457 l 0.1719,-0.1816 c -4.1943,5.0212 -8.6124,10.5369 -14.3086,14.6347 a 2.2695868,2.2695868 0 0 1 -3.2246,-0.5976 c -4.5281,-6.903 -4.088,-15.3465 -4.6348,-22.2207 a 2.2695868,2.2695868 0 0 1 -0.01,-0.2266 c 0.011,-0.5258 -0.051,-1.4567 -0.061,-2.418 -0.01,-0.9612 -0.1243,-1.9129 0.5332,-3.1992 a 2.2695868,2.2695868 0 0 1 1.6914,-1.2109 z m -61.4531,0.3144 a 2.2695868,2.2695868 0 0 1 2.1386,2.1895 c 0.036,1.0713 0.1818,2.6792 0.1953,4.2851 0.014,1.606 0.075,3.1926 -0.9003,4.836 a 2.2695868,2.2695868 0 0 1 -3.6114,0.3887 c -0.5142,-0.552 -2.0611,-1.5517 -3.2558,-3.0723 -0.5974,-0.7603 -1.2677,-1.967 -0.9356,-3.4219 0.3321,-1.4549 1.4672,-2.3715 2.7305,-2.998 l -0.375,0.2343 c 0.035,-0.027 0.5318,-0.5315 1.0703,-1.0488 0.2692,-0.2586 0.5624,-0.5338 0.9746,-0.8066 0.4122,-0.2728 0.9835,-0.6421 1.9688,-0.586 z m 89.1425,19.5665 a 2.2695868,2.2695868 0 0 1 1.2657,3.2792 c -3.8173,6.7022 -9.2376,12.6341 -15.4766,17.1524 a 2.2695868,2.2695868 0 0 1 -0.8809,0.3867 c -0.4676,0.094 -1.0756,0.2412 -1.9687,-0.2285 -0.8931,-0.4697 -1.3709,-1.7606 -1.332,-2.4023 0.078,-1.2836 0.4997,-1.5941 0.8183,-2.0801 0.3186,-0.4861 0.6596,-0.9242 0.9278,-1.2676 0.134,-0.1717 0.2493,-0.3188 0.3203,-0.4121 0.071,-0.093 0.1429,-0.2775 -0.047,0.1074 a 2.2695868,2.2695868 0 0 1 0.3496,-0.5156 c 4.1349,-4.5819 8.3009,-10.0698 14.0938,-13.7754 a 2.2695868,2.2695868 0 0 1 1.9296,-0.2441 z m -1.3027,17.0781 a 2.2695868,2.2695868 0 0 1 2.2734,0.8457 c 0.8449,1.1093 1.164,2.5287 0.9883,3.7558 -0.1756,1.2271 -0.7434,2.2649 -1.4629,3.1172 -1.4389,1.7047 -3.5238,2.8965 -5.955,2.7403 l 0.8105,-0.096 c -0.9011,0.2762 -1.661,0.4415 -2.4824,0.4277 -0.4107,-0.01 -0.8522,-0.051 -1.3731,-0.2774 -0.5209,-0.2259 -1.1562,-0.7413 -1.4492,-1.4589 -0.5859,-1.4354 0.087,-2.435 0.5625,-3.0625 0.4752,-0.6276 1.0535,-1.1343 1.7832,-1.668 l -0.096,0.074 c 1.3165,-1.0741 3.0664,-3.6953 6.4004,-4.3985 z"></path><path style="opacity:0.984694;fill:#d4ad32;fill-opacity:1;stroke:#000000;stroke-width:5;stroke-dasharray:none;stroke-opacity:1;paint-order:stroke markers fill" d="m 504.05682,2378.5389 c -1.9662,3.7845 -4.7825,8.1045 -3.2627,12.5425 0.9738,3.1811 4.6381,5.1209 7.7955,3.9775 2.5069,-0.7616 4.7492,-2.7773 5.666,-5.2363 0.05,-2.6806 -1.9064,-4.9302 -3.461,-6.9434 -1.7672,-1.7341 -3.7437,-3.4014 -5.8825,-4.593 -0.2996,-0.1924 -0.5732,0.193 -0.8553,0.2527 z" id="SvgjsPath1251"></path><path style="opacity:0.984694;fill:#a15789;fill-opacity:1;stroke:#000000;stroke-width:5;stroke-dasharray:none;stroke-opacity:1;paint-order:stroke markers fill" d="m 666.00752,2380.8816 c -2.6807,0.5689 -4.4733,2.9969 -6.4122,4.7534 -1.6625,1.8576 -4.2134,4.1435 -3.2675,6.9122 1.162,2.1527 3.6074,3.2894 5.7828,4.1748 2.3815,0.8755 4.6546,-1.4636 5.5351,-3.4224 -0.152,-3.8519 0.3102,-7.7735 -0.2871,-11.5864 -0.1938,-0.5599 -0.7746,-0.8751 -1.3511,-0.8316 z" id="SvgjsPath1250"></path><path style="opacity:0.984694;fill:#a15789;fill-opacity:1;stroke:#000000;stroke-width:5;stroke-dasharray:none;stroke-opacity:1;paint-order:stroke markers fill" d="m 699.48212,2379.867 c -4.066,0.1888 -7.0038,3.6784 -8.8632,6.9683 -1.3523,2.5862 0.7254,5.1888 2.3944,7.0203 2.6619,3.1814 6.6147,5.869 10.9146,5.5461 1.4363,-0.1362 1.5665,-1.9377 0.6534,-2.7949 -2.3966,-3.6885 -3.8172,-8.43 -2.0176,-12.6412 0.8464,-1.411 0.219,-3.3181 -1.376,-3.8154 -0.5407,-0.213 -1.1267,-0.2935 -1.7056,-0.2832 z" id="SvgjsPath1249"></path><path id="SvgjsPath1248" style="opacity:0.984694;fill:#a3588b;fill-opacity:1;stroke:#000000;stroke-width:5;stroke-dasharray:none;stroke-opacity:1;paint-order:stroke markers fill" d="m 645.70482,2310.2797 c -2.58463,-0.01 -5.0947,0.098 -7.49609,0.6133 a 1.4188749,1.4188749 0 0 1 -0.01,0 c -2.17243,0.4501 -3.52167,2.5647 -3.3789,4.8008 a 1.4188749,1.4188749 0 0 1 0.002,0.061 c 0.1625,8.0317 1.56719,16.1261 1.59961,24.455 0.43516,24.5162 0.36933,49.097 -0.0703,73.6289 a 1.4188749,1.4188749 0 0 1 0,0.024 c -0.51251,15.0472 -0.90199,30.2218 -2.70899,45.248 -3.1e-4,0 -0.002,0.01 -0.002,0.01 -0.10873,1.8835 -0.56449,3.6917 -0.76758,5.3399 -0.19547,1.5863 -0.14046,2.9454 0.42578,4.1582 0.93777,1.1008 2.19985,1.5815 3.84571,1.793 1.68222,0.216 3.6358,0.1102 5.50781,0.2226 12.31258,-0.1231 24.61648,-0.227 36.82226,-1.2187 a 1.4188749,1.4188749 0 0 1 0.0527,0 c 0.89323,-0.039 1.88334,-0.3868 2.5332,-0.9063 0.64987,-0.5195 0.98078,-1.0889 0.93164,-1.9375 a 1.4188749,1.4188749 0 0 1 -0.002,-0.1309 c 0.53689,-15.5971 -0.0793,-31.4014 0.71875,-47.0761 a 1.4188749,1.4188749 0 0 1 2.55078,-0.7793 c 11.00382,14.6699 21.44828,29.9192 31.04297,45.4648 a 1.4188749,1.4188749 0 0 1 0.0391,0.066 c 0.8401,1.5414 1.78,3.1696 2.88477,4.3477 1.10319,1.1764 2.26425,1.8879 3.82812,1.9297 6.79202,0.043 13.65566,-1.5076 20.76758,-2.0645 l 0.0898,-0.01 c 7.235,-1.0156 14.61326,-0.9092 20.70118,-4.0196 a 1.4188749,1.4188749 0 0 1 0.008,0 c 3.01683,-1.5123 5.30719,-4.521 4.89844,-7.8066 a 1.4188749,1.4188749 0 0 1 -0.008,-0.082 c -0.40821,-6.1179 -5.88169,-10.4552 -10.41211,-15.1894 a 1.4188749,1.4188749 0 0 1 -0.0527,-0.059 c -8.03236,-9.3795 -14.88257,-19.5989 -22.21875,-29.3164 a 1.4188749,1.4188749 0 0 1 -0.0195,-0.027 c -5.72079,-7.9624 -11.8316,-15.7488 -17.26367,-24.0546 h -0.002 c -0.94152,-1.3213 -0.95853,-2.9261 -0.51757,-4.1524 0.44138,-1.2275 1.22652,-2.2083 1.95507,-2.9922 l -0.12695,0.1582 c 12.6134,-18.1647 25.9687,-35.7606 39.5957,-53.1367 2.8556,-3.9061 6.44036,-6.9449 8.49805,-10.6758 0.29765,-0.8092 0.11977,-1.3638 -0.42383,-1.9941 -0.56043,-0.6498 -1.56871,-1.198 -2.45508,-1.3555 a 1.4188749,1.4188749 0 0 1 -0.0703,-0.014 c -8.75963,-2.0177 -18.00595,-1.7422 -27.2539,-2.1777 -7.72299,-0.014 -15.40419,-0.6957 -22.62891,0.9199 a 1.4188749,1.4188749 0 0 1 -0.0644,0.012 c -0.83617,0.1475 -1.42525,0.5583 -1.95899,1.2188 -0.53373,0.6605 -0.95761,1.5786 -1.24609,2.5352 a 1.4188749,1.4188749 0 0 1 -0.0937,0.2343 c -0.52953,1.0376 -1.2921,1.6414 -1.78906,2.1426 -0.49697,0.5013 -0.71969,0.8003 -0.78321,1.2402 a 1.4188749,1.4188749 0 0 1 -0.13281,0.4258 c -4.93363,9.9738 -11.20431,19.2099 -17.18555,28.416 a 1.4188749,1.4188749 0 0 1 -0.0234,0.035 c -2.68238,3.8607 -5.20623,7.9564 -8.54102,11.5859 a 1.4188749,1.4188749 0 0 1 -2.46289,-0.8945 c -0.55978,-12.4802 -0.24315,-25.0428 -0.01,-37.4707 l 0.002,0.1 c -0.10277,-2.0181 0.26056,-3.9528 0.38281,-5.6973 0.11761,-1.6782 0.002,-3.0956 -0.66406,-4.3457 -1.00215,-1.0479 -2.27431,-1.4056 -3.95899,-1.5 -1.74318,-0.098 -3.76281,0.134 -5.75976,-0.074 l 0.13867,0.01 c -6.43999,-0.035 -12.88532,-0.023 -19.33399,-0.022 h -0.0644 c -2.66351,0.1187 -5.29757,0 -7.86133,0 z m 19.74805,12.7832 -0.0469,0.01 c 0.92419,-0.1108 1.85353,0.1196 2.51368,0.625 0.66014,0.5053 1.02575,1.1762 1.26172,1.8105 0.47194,1.2685 0.52703,2.5765 0.65039,3.2969 a 1.4188749,1.4188749 0 0 1 0.0156,0.1191 c 1.22423,14.3324 0.98307,28.7491 1.20899,43.043 a 1.4188749,1.4188749 0 0 1 0,0.02 c 0.056,27.3816 0.18671,54.8711 -0.69532,82.2285 a 1.4188749,1.4188749 0 0 1 -0.0371,0.2774 c 0.0152,-0.065 -0.0123,0.1782 -0.0117,0.4765 5.9e-4,0.2984 0.0132,0.6675 -0.0586,1.1153 -0.0718,0.4477 -0.24999,1.1615 -1.00391,1.5937 -0.75391,0.4322 -1.55811,0.2391 -2.16406,-0.043 l 0.42383,0.1211 c -1.21409,-0.1517 -2.76243,-0.2113 -4.13086,-0.5333 a 1.4188749,1.4188749 0 0 1 -0.80859,-2.2343 c 2.80496,-3.7207 5.27203,-7.7343 4.9082,-12.1133 a 1.4188749,1.4188749 0 0 1 -0.004,-0.062 c -0.28455,-7.5004 -5.7709,-13.739 -10.89257,-19.5469 l -0.008,-0.01 c -0.005,-0.01 -0.009,-0.011 -0.0137,-0.016 -1.11563,-1.2072 -2.42692,-2.5713 -3.44726,-4.1933 -1.0266,-1.632 -1.76158,-3.5963 -1.4961,-5.793 l -0.01,0.1055 c 0.0124,-0.2763 -0.0699,-1.0753 0.0703,-1.9043 0.0351,-0.2073 0.0624,-0.4329 0.27148,-0.7774 0.10454,-0.1722 0.27229,-0.3898 0.56446,-0.5605 0.29216,-0.1708 0.70564,-0.2414 1.02343,-0.1914 0.6356,0.1 0.87226,0.3985 1.07032,0.6172 0.19806,0.2187 0.34688,0.4429 0.50976,0.7148 l -0.10937,-0.1582 c 3.32502,4.1602 6.5597,8.4645 10.91797,10.8379 0.0762,0.018 0.16208,0.039 0.16992,0.035 0.0115,-0.01 0.1213,-0.086 0.24023,-0.3242 0.23787,-0.4762 0.35738,-1.4763 0.28711,-1.9668 a 1.4188749,1.4188749 0 0 1 -0.01,-0.096 c -0.32179,-4.299 -1.26852,-8.7434 -3.82227,-11.9004 -3.04125,-2.3894 -6.55929,-4.8417 -8.61719,-8.8007 -2.55913,-4.6432 -4.01264,-11.0712 -0.76172,-16.1426 a 1.4188749,1.4188749 0 0 1 0.0781,-0.1094 c 4.78017,-6.1103 10.76804,-11.1205 13.11328,-17.9766 0.62871,-2.5875 0.0965,-5.7152 -1.47461,-7.7832 -0.23215,-0.1895 -0.38652,-0.2604 -0.56641,-0.2597 -0.20462,8e-4 -0.51907,0.088 -0.90429,0.3105 -0.7678,0.4435 -1.68168,1.369 -2.40625,2.1211 -10e-4,0 -0.003,0 -0.004,0 -10e-4,0 -0.003,0 -0.004,0 -2.42904,2.5602 -4.69221,5.3345 -7.0586,8.0801 a 1.4188749,1.4188749 0 0 1 -2.4707,-0.6719 c -0.67397,-3.7058 1.28177,-6.992 3.60547,-9.3047 l -0.0488,0.049 c 4.88056,-5.3474 10.48106,-10.4578 11.03516,-17.3633 a 1.4188749,1.4188749 0 0 1 0.01,-0.092 c 0.68765,-4.6871 -0.69935,-9.4327 -3.04101,-13.6816 l 0.0586,0.096 c -0.24653,-0.3735 -0.4716,-0.6364 -0.5332,-1.2813 -0.0308,-0.3225 0.0578,-0.8215 0.3457,-1.1797 0.28793,-0.3582 0.64049,-0.4975 0.875,-0.5605 0.46901,-0.126 0.69173,-0.08 0.9082,-0.074 0.21647,0.01 0.39534,0.01 0.52344,0 z m 75.41406,2.125 c 0.22231,0.016 0.46463,0.037 0.79492,0.1738 0.3303,0.1365 0.84427,0.5206 1.00391,1.1133 0.15964,0.5928 -0.0305,1.0583 -0.19922,1.3633 -0.11757,0.2125 -0.27102,0.3745 -0.41992,0.5449 -1.74247,2.9481 -3.54603,5.9105 -5.6875,8.7266 a 1.4188749,1.4188749 0 0 1 -2.27734,-0.027 c -2.31222,-3.1929 -3.57871,-6.8181 -6.05079,-8.6855 a 1.4188749,1.4188749 0 0 1 0.46485,-2.4961 c 3.60081,-1.0335 7.16163,-0.5248 10.32422,-0.6992 a 1.4188749,1.4188749 0 0 1 0.33203,0.02 c -0.0675,-0.012 0.23364,0.01 0.5625,-0.012 0.32885,-0.018 0.70799,-0.053 1.15234,-0.022 z m -87.24609,4.2617 a 1.4188749,1.4188749 0 0 1 1.07812,0.209 c 1.23614,0.8245 2.61862,2.0003 3.52344,3.5508 0.89955,1.5414 1.20255,3.7017 -0.0195,5.543 -1.1552,1.9949 -2.70427,3.574 -4.12695,5.0527 a 1.4188749,1.4188749 0 0 1 -2.4375,-1.0547 c 0.18894,-3.7768 -0.411,-8.0427 0.79492,-12.2598 a 1.4188749,1.4188749 0 0 1 0.0664,-0.1855 c 0.22875,-0.5147 0.84774,-0.807 1.08008,-0.8516 0.23234,-0.045 0.2754,-0.053 0.041,0 z m 69.33594,2.5567 a 1.4188749,1.4188749 0 0 1 1.26562,2.0097 c -0.36981,0.8053 -0.17485,1.3565 0.4043,2.334 0.57915,0.9775 1.56276,2.0646 2.18359,3.4727 l -0.0488,-0.1 c 0.98516,1.8311 2.60802,4.0455 2.79883,6.7675 a 1.4188749,1.4188749 0 0 1 -1.19531,1.502 c -5.4283,0.852 -11.09811,0.5612 -14.94141,3.6816 a 1.4188749,1.4188749 0 0 1 -0.0566,0.043 c -1.32008,0.9678 -1.81177,2.2617 -1.8457,3.8477 -0.0339,1.5859 0.49417,3.3966 1.26953,4.8496 a 1.4188749,1.4188749 0 0 1 0.0898,0.207 c 0.18976,0.5521 0.62247,1.2899 1.0625,2.1269 0.44004,0.8371 0.9159,1.8047 0.9336,2.9961 a 1.4188749,1.4188749 0 0 1 -0.56055,1.1524 c -1.17898,0.8948 -2.53296,1.0457 -3.67578,1.0801 -1.14282,0.034 -2.16543,-0.023 -2.87695,0.1074 a 1.4188749,1.4188749 0 0 1 -0.0371,0.01 c -1.60924,0.251 -3.19955,0.1168 -4.53125,0.2247 -1.3317,0.1078 -2.25854,0.3736 -2.95117,1.1738 a 1.4188749,1.4188749 0 0 1 -1.48633,0.1484 1.4188749,1.4188749 0 0 1 0.29687,1.584 l -0.16797,0.293 -0.0371,0.066 a 1.4188749,1.4188749 0 0 1 -0.0723,0.1172 c -0.46323,0.6787 -0.96436,1.8302 -1.03711,2.6308 -0.0364,0.4003 0.0227,0.6813 0.10742,0.8438 0.0835,0.1602 0.17944,0.2799 0.55859,0.416 1.10429,0.3674 2.49818,0.4267 4.00391,0.457 1.51089,0.03 3.13113,0.027 4.71484,0.5703 a 1.4188749,1.4188749 0 0 1 0.85938,1.8594 c -1.41859,3.6264 -3.53817,6.4732 -3.04883,9.6035 a 1.4188749,1.4188749 0 0 1 0.0156,0.2129 c 0.0214,4.4706 3.80899,7.9904 6.60937,12.3106 a 1.4188749,1.4188749 0 0 1 -1.01953,2.1796 c -3.90629,0.4764 -7.72207,0.4607 -11.25195,1.1368 0.009,0.1433 0.0343,0.3383 0.14062,0.6328 0.24738,0.6853 0.80032,1.553 1.03125,2.709 l -0.10937,-0.3321 c 0.425,0.8926 0.6266,1.2473 0.75781,1.8555 0.0328,0.152 0.18598,0.2887 -0.0625,0.9199 -0.12424,0.3156 -0.57628,0.7868 -1.04883,0.8848 -0.47254,0.098 -0.75191,-0.033 -0.91601,-0.1094 -0.65641,-0.3065 -0.56553,-0.4191 -0.69922,-0.5762 -0.53476,-0.6284 -1.2162,-1.6607 -1.7461,-2.3945 a 1.4188749,1.4188749 0 0 1 -0.0312,-0.045 c -3.61166,-5.4406 -7.88277,-10.5213 -11.74804,-16.002 a 1.4188749,1.4188749 0 0 1 -0.12891,-0.2246 c -0.97061,-2.1029 -0.32783,-4.2241 0.60938,-5.8183 0.9372,-1.5942 2.1666,-2.937 2.82812,-3.9844 a 1.4188749,1.4188749 0 0 1 0.0664,-0.098 c 2.89115,-3.8302 5.73587,-7.6802 8.42382,-11.625 a 1.4188749,1.4188749 0 0 1 1.5918,-0.3964 1.4188749,1.4188749 0 0 1 -0.24414,-1.5586 c 7.02023,-10.1932 13.95371,-20.4716 20.73633,-30.8047 a 1.4188749,1.4188749 0 0 1 0.0547,-0.078 c 1.01433,-1.3382 2.01011,-2.8382 2.96484,-4.246 a 1.4188749,1.4188749 0 0 1 1.19727,-0.6211 z m -3.20118,23.2949 a 1.4188749,1.4188749 0 0 1 0.13086,0.029 c 0.63827,0.1764 1.33025,0.9401 1.375,1.625 0.0448,0.6849 -0.2069,1.1183 -0.55078,1.4824 -0.17194,0.182 -0.38439,0.3578 -0.72461,0.4785 -0.34022,0.1207 -0.88919,0.1452 -1.34179,-0.1133 -0.45261,-0.2584 -0.67805,-0.6774 -0.77539,-0.9961 -0.0738,-0.2415 -0.0702,-0.4487 -0.0723,-0.6601 -0.051,-0.4791 0.10863,-1.0604 0.50781,-1.4297 0.40845,-0.3779 0.98112,-0.4996 1.45117,-0.416 z m -6.2539,54.4355 a 1.4188749,1.4188749 0 0 1 0.0645,0 c 0.81785,0.026 2.16452,-0.048 3.50977,0.2481 0.67262,0.1479 1.37653,0.3935 2,0.9004 0.62346,0.5068 1.10693,1.3142 1.23828,2.2207 a 1.4188749,1.4188749 0 0 1 0,0.4023 c -0.35309,2.4896 -1.6351,4.4666 -2.91016,6.2188 -1.13754,1.5631 -2.17317,2.9689 -2.89453,4.3925 2.09918,3.6991 3.85929,7.6061 7.12695,9.2422 1.99371,0.56 4.20094,0.2879 6.63282,-0.051 2.47716,-0.3449 5.19006,-0.7372 7.95507,0.2051 a 1.4188749,1.4188749 0 0 1 0.61329,0.4121 c 0.50386,0.5789 0.73837,1.3578 0.71484,2.0196 -0.0235,0.6617 -0.23176,1.2126 -0.46289,1.6914 -0.46225,0.9575 -1.07583,1.7516 -1.26758,2.1211 a 1.4188749,1.4188749 0 0 1 -0.0898,0.1464 c -1.14838,1.6785 -2.55705,3.1869 -3.50782,4.6875 -0.95076,1.5007 -1.4415,2.8493 -1.09375,4.4922 a 1.4188749,1.4188749 0 0 1 -2.48828,1.1875 c -4.55893,-5.6037 -9.28981,-11.2105 -13.34375,-17.3437 a 1.4188749,1.4188749 0 0 1 -0.21679,-0.5527 c -0.19175,-1.1674 -0.89309,-2.1561 -1.89454,-3.2559 -1.00144,-1.0998 -2.27405,-2.2388 -3.21484,-3.7852 l 0.0937,0.1328 c -3.29836,-4.2412 -6.77924,-8.7527 -9.79101,-13.0292 a 1.4188749,1.4188749 0 0 1 1.10937,-2.2344 c 3.99931,-0.141 8.0362,-0.41 12.11719,-0.4688 z m 12.58008,11.9727 c 0.82771,0.1428 1.49711,0.5065 2.12695,0.9629 0.31869,0.2309 0.6141,0.484 0.87891,0.8086 0.2648,0.3245 0.57809,0.7342 0.55859,1.4629 a 1.4188749,1.4188749 0 0 1 -0.91797,1.291 c -0.30183,0.1137 -1.06464,0.5279 -2.02734,0.6699 -0.48136,0.071 -1.13025,0.091 -1.76953,-0.334 -0.63223,-0.4208 -0.94339,-1.2064 -0.98438,-1.8965 -0.0601,-0.2406 -0.1695,-0.5811 -0.13086,-1.164 0.0228,-0.3433 0.0853,-0.8317 0.53906,-1.3008 0.45069,-0.4659 1.21684,-0.5943 1.72657,-0.5 z m -73.69727,12.0898 a 1.4188749,1.4188749 0 0 1 1.48242,0.5899 c 2.05396,3.0341 4.4528,6.7154 4.36133,11.0293 a 1.4188749,1.4188749 0 0 1 -0.0156,0.1855 c -0.53381,3.4718 -3.59597,5.2612 -5.53125,6.7031 a 1.4188749,1.4188749 0 0 1 -2.26368,-1.2363 c 0.36418,-5.2013 7.8e-4,-10.6308 0.87305,-16.1094 a 1.4188749,1.4188749 0 0 1 1.09375,-1.1621 z m 91.61133,10.5879 h 0.0137 0.0117 a 1.4188749,1.4188749 0 0 1 0.96484,0.377 c 2.29366,2.1239 3.90502,4.8057 5.48438,7.0215 a 1.4188749,1.4188749 0 0 1 -1.01563,2.2363 c -4.54389,0.4552 -9.02536,0.7022 -13.30078,1.6523 a 1.4188749,1.4188749 0 0 1 -1.35547,-2.3418 c 2.53344,-2.7687 4.82201,-6.3101 8.40821,-8.707 a 1.4188749,1.4188749 0 0 1 0.78906,-0.2383 z"></path><path style="fill:#ef9f48;fill-opacity:0.976471;stroke:#000000;stroke-width:5;stroke-dasharray:none;stroke-opacity:0.988235;paint-order:stroke markers fill" d="m 229.03803,2656.2592 c -6.20393,-1.5704 -9.80736,-3.3467 -14.54123,-7.168 -5.01136,-4.0453 -11.78114,-10.9526 -11.78114,-12.0205 0,-0.4179 -1.14068,-2.1465 -2.53484,-3.8413 -10.66014,-12.9594 -16.0711,-39.938 -13.69215,-68.268 2.59222,-30.8697 12.06859,-54.2686 25.73448,-63.5432 9.8115,-6.6587 24.7213,-11.8282 34.29578,-11.891 4.68727,-0.031 6.62369,0.6781 7.78619,2.8503 1.58788,2.9669 5.63321,32.7092 5.63321,41.4167 v 4.629 l -1.54276,-0.01 c -0.84853,0 -3.94108,-0.5056 -6.87234,-1.1146 -6.9943,-1.4531 -8.74564,-1.4066 -12.21954,0.3245 -9.86138,4.9141 -16.49221,22.4416 -15.68655,41.4647 0.34944,8.2508 1.55614,13.7266 4.35267,19.7515 2.22356,4.7904 6.16866,9.6198 9.2301,11.2989 2.65258,1.4549 13.51844,1.2229 17.91744,-0.3825 5.68307,-2.074 7.06501,-1.426 7.06501,3.313 0,2.1009 -3.00884,24.7647 -4.53866,34.187 -1.27332,7.8425 -4.30625,9.6653 -16.49909,9.9159 -6.28772,0.1293 -8.70218,-0.053 -12.10658,-0.915 z m 12.52641,-13.518 c 3.38571,-0.9402 4.7344,-2.5913 6.62078,-8.1053 0.95003,-2.777 1.86109,-5.8369 2.02456,-6.7997 l 0.29724,-1.7507 -6.36423,-0.2455 c -7.45442,-0.2875 -10.59092,-1.4451 -15.54223,-5.736 -10.65778,-9.2362 -15.49583,-21.1911 -16.17414,-39.9664 -0.37681,-10.43 0.28441,-17.0637 2.62011,-26.2867 4.94214,-19.5149 15.42285,-32.2938 27.26566,-33.2444 2.2137,-0.1777 3.8069,-0.5803 3.96911,-1.003 0.41355,-1.0777 -1.52055,-16.1458 -2.17495,-16.9444 -0.31602,-0.3857 -1.21577,-0.7013 -1.99942,-0.7013 -1.75599,0 -12.3701,3.5824 -15.89098,5.3633 -3.41335,1.7266 -8.10696,6.0734 -12.61437,11.6823 -4.39014,5.463 -10.94543,18.4015 -12.59923,24.8679 -4.50749,17.6241 -3.99188,51.8568 0.96148,63.8363 0.7655,1.8513 1.65399,4.2496 1.97443,5.3295 0.57183,1.9272 6.35452,13.3468 8.13319,16.0614 1.26611,1.9323 9.32662,8.3158 13.39901,10.6112 5.42119,3.0558 11.72864,4.2439 16.09398,3.0315 z" id="SvgjsPath1247"></path><path style="fill:#ef9f48;fill-opacity:0.976471;stroke:#000000;stroke-width:5;stroke-dasharray:none;stroke-opacity:0.988235;paint-order:stroke markers fill" d="m 227.05181,2521.586 c -1.20174,-0.3229 -3.62537,-2.2942 -4.22858,-3.4394 -0.88662,-1.6831 -0.68017,-3.3371 0.57286,-4.5893 0.86637,-0.8659 1.84034,-1.25 3.51298,-1.3854 1.33937,-0.1085 3.1185,-0.7148 5.99576,-2.0434 3.07566,-1.4202 4.78845,-1.9499 6.5217,-2.0166 1.40686,-0.054 2.21353,0.2135 2.63223,0.8738 0.40221,0.6342 0.34775,1.3681 -0.18103,2.4391 -0.4025,0.8153 -0.86248,1.4249 -1.81819,2.4097 -1.32103,1.3612 -2.38632,2.1974 -4.91068,3.8545 -4.23885,2.7827 -5.81969,3.6798 -6.88038,3.9045 -0.58889,0.1248 -0.72776,0.1239 -1.21667,-0.01 z" id="SvgjsPath1246"></path><path style="fill:#ef9f48;fill-opacity:0.976471;stroke:#000000;stroke-width:5;stroke-dasharray:none;stroke-opacity:0.988235;paint-order:stroke markers fill" d="m 218.10375,2533.7188 c -0.83976,-0.4465 -2.54149,-2.1617 -3.19393,-3.2192 -0.58847,-0.9538 -0.97508,-2.2178 -0.9735,-3.1829 0.001,-0.8061 0.2582,-1.7585 0.65794,-2.4394 1.03914,-1.77 2.97336,-2.2307 4.81368,-1.1466 0.59809,0.3523 1.35582,1.0278 2.93289,2.6144 1.23226,1.2398 1.28346,1.3023 1.19805,1.4623 -0.22071,0.4134 -2.43172,4.0043 -2.73678,4.4448 -1.07368,1.5502 -1.79937,1.9446 -2.69835,1.4666 z" id="SvgjsPath1245"></path><path style="fill:#ef9f48;fill-opacity:0.976471;stroke:#000000;stroke-width:5;stroke-dasharray:none;stroke-opacity:0.988235;paint-order:stroke markers fill" d="m 203.36157,2554.7218 c -0.1199,-0.3125 0.0806,-1.4061 0.94287,-5.1426 0.49089,-2.1273 0.9915,-4.3141 1.11248,-4.8595 0.76463,-3.4477 3.29822,-8.8849 4.75219,-10.1985 0.37081,-0.335 0.4315,-0.3561 0.87123,-0.3035 0.66747,0.08 1.64722,0.5729 2.00831,1.0107 0.50369,0.6106 0.71775,1.3189 0.7704,2.5492 0.0827,1.9315 -0.51649,4.1661 -1.82032,6.789 -1.42489,2.8664 -3.002,5.0403 -5.55038,7.6508 -2.25113,2.306 -2.94645,2.8701 -3.08678,2.5044 z" id="SvgjsPath1244"></path><path style="fill:#ef9f48;fill-opacity:0.976471;stroke:#000000;stroke-width:5;stroke-dasharray:none;stroke-opacity:0.988235;paint-order:stroke markers fill" d="m 206.01213,2582.6322 c -0.24368,-0.1206 -0.7859,-0.5654 -1.20495,-0.9884 -2.32131,-2.3432 -3.36944,-4.338 -3.82068,-7.2714 -0.21032,-1.3672 -0.13652,-3.875 0.15722,-5.3424 0.91646,-4.5783 3.46719,-8.0839 6.88735,-9.4654 1.29829,-0.5245 1.39076,-0.029 0.74857,4.0105 -0.60797,3.8244 -0.91794,7.6226 -1.08349,13.2766 -0.0543,1.8545 -0.14715,3.7066 -0.20633,4.1157 -0.15657,1.0822 -0.54788,1.869 -0.93548,1.8811 -0.0546,0 -0.29854,-0.096 -0.54221,-0.2163 z" id="SvgjsPath1243"></path><path style="fill:#ef9f48;fill-opacity:0.976471;stroke:#000000;stroke-width:5;stroke-dasharray:none;stroke-opacity:0.988235;paint-order:stroke markers fill" d="m 208.95866,2598.579 c -0.31398,-0.1291 -0.9834,-0.4686 -1.4876,-0.7545 -3.99608,-2.2658 -5.58681,-4.4142 -4.99085,-6.7405 0.1358,-0.53 1.5023,-3.4439 1.7317,-3.6926 0.077,-0.083 2.68751,1.9741 3.46551,2.7314 1.72689,1.6809 2.79673,4.4283 2.83153,7.2716 0.0105,0.8604 -0.015,1.0359 -0.17662,1.2149 -0.24748,0.2741 -0.65548,0.2651 -1.37367,-0.03 z" id="SvgjsPath1242"></path><path style="fill:#ef9f48;fill-opacity:0.976471;stroke:#000000;stroke-width:5;stroke-dasharray:none;stroke-opacity:0.988235;paint-order:stroke markers fill" d="m 216.32223,2625.4034 c -0.78701,-0.2394 -1.54804,-0.9439 -1.98913,-1.8413 -0.3064,-0.6233 -0.58408,-1.7315 -0.587,-2.3427 -0.003,-0.6592 -1.38911,-3.2602 -4.06247,-7.6241 -2.34128,-3.8218 -3.68579,-6.8067 -3.52673,-7.8296 0.0386,-0.2482 0.0769,-0.6299 0.0851,-0.8481 0.0136,-0.3639 -0.006,-0.3956 -0.23307,-0.3843 -0.13636,0.01 -0.39281,0.072 -0.56989,0.1455 -0.28348,0.1174 -0.34213,0.1131 -0.49077,-0.036 -0.39302,-0.393 -0.018,-1.4348 0.69413,-1.9283 0.54405,-0.377 1.48196,-0.4328 2.23931,-0.1332 3.07002,1.2146 7.43144,6.8917 9.76799,12.7146 1.27078,3.1669 1.78596,6.1261 1.36132,7.8195 -0.41796,1.6668 -1.55345,2.6329 -2.68875,2.2875 z" id="SvgjsPath1241"></path><path style="fill:#ef9f48;fill-opacity:0.976471;stroke:#000000;stroke-width:5;stroke-dasharray:none;stroke-opacity:0.988235;paint-order:stroke markers fill" d="m 238.55563,2637.5727 c -4.63598,-0.2732 -10.62294,-2.098 -13.7525,-4.1919 -1.44953,-0.9698 -2.73467,-2.4366 -3.13652,-3.5799 -0.22178,-0.631 -0.24189,-1.5016 -0.0456,-1.9715 0.21224,-0.508 0.87609,-1.1731 1.46602,-1.4688 0.8328,-0.4176 1.59766,-0.5729 2.82087,-0.5729 2.19515,0 4.17779,0.6296 6.71493,2.1322 1.04032,0.6161 3.09103,1.6389 4.26895,2.1291 1.72429,0.7177 2.7856,1.0091 4.22427,1.1602 1.46096,0.1534 2.04263,0.3601 2.41439,0.8581 0.22904,0.3068 0.31136,0.8865 0.41896,2.9503 l 0.0699,1.3399 -0.25924,0.3081 c -0.65181,0.7746 -2.37015,1.0741 -5.20443,0.9071 z" id="SvgjsPath1240"></path><path style="fill:#ef9f48;fill-opacity:0.976471;stroke:#000000;stroke-width:5;stroke-dasharray:none;stroke-opacity:0.988235;paint-order:stroke markers fill" d="m 290.80171,2654.392 c -4.24822,-2.0898 -7.55279,-4.5414 -11.55206,-8.5704 -9.41673,-9.4867 -8.62043,-2.6683 -8.37904,-71.7467 0.1415,-40.4927 -0.083,-62.7775 -0.69288,-68.7802 -1.0472,-10.3068 -0.64805,-11.6711 3.77392,-12.8992 4.38189,-1.2169 29.71478,-1.0879 31.27473,0.1593 2.02449,1.6185 2.13173,3.7785 0.99559,20.0525 -1.6341,23.4064 -2.90402,68.3466 -2.29024,81.047 0.42692,8.8336 0.85681,11.7638 2.00225,13.6473 3.11594,5.1237 11.43,6.9981 17.38203,3.9186 2.99037,-1.5472 3.72298,-2.4075 4.60705,-5.41 1.70914,-5.8046 2.54703,-36.6496 2.00536,-73.8226 -0.2769,-19.0026 -0.26534,-35.4989 0.0257,-36.6584 0.77731,-3.097 4.3323,-3.7566 20.2744,-3.7617 h 13.80725 l -0.71643,25.5866 c -0.90867,32.4521 -0.92308,90.8136 -0.0282,114.1303 l 0.68827,17.9326 -2.40697,2.6953 -2.40697,2.6954 -13.19133,0.2672 c -14.34903,0.2906 -15.50327,0.01 -15.50327,-3.8354 0,-3.6791 -0.94123,-7.1425 -1.94107,-7.1425 -0.52214,0 -3.42295,1.9997 -6.44624,4.4437 -12.18074,9.8469 -20.35705,11.4297 -31.28185,6.0557 z m 57.78632,-13.5702 c 0.18734,-1.3242 -0.62316,-2.7913 -2.7395,-4.9586 -1.65306,-1.6929 -3.29013,-3.078 -3.63793,-3.078 -0.3478,0 -0.63237,1.7649 -0.63237,3.922 0,3.1653 0.34437,4.1647 1.78511,5.1805 2.47328,1.7438 4.89718,1.2493 5.22469,-1.0659 z m -36.50442,-1.0161 c 1.70642,-1.0249 6.98792,-4.7945 11.73665,-8.3767 12.53201,-9.4538 12.77385,-9.5618 17.43085,-7.7833 2.14533,0.8193 5.27951,2.9751 7.20358,4.9548 2.02817,2.0869 3.78152,3.2724 4.33436,2.9307 0.6804,-0.4205 0.79282,-3.8597 0.42084,-12.8746 -0.27916,-6.7654 -0.68552,-12.4787 -0.90301,-12.6962 -0.2175,-0.2175 -1.83819,1.2436 -3.60155,3.2469 -3.83677,4.3588 -7.74857,6.9169 -10.57722,6.9169 -1.14001,0 -3.95405,1.1963 -6.25342,2.6585 -12.62728,8.0296 -25.20605,8.1288 -32.12084,0.2533 -1.39607,-1.5901 -2.94653,-4.413 -3.44547,-6.2733 -0.49894,-1.8602 -1.07329,-3.6545 -1.27635,-3.9871 -0.62594,-1.0255 -2.30821,0.4096 -6.28891,5.3651 -2.10314,2.6182 -4.01768,4.9388 -4.25453,5.157 -0.95519,0.8799 -2.6581,6.0848 -2.65158,8.1045 0.014,4.326 7.69823,11.4887 14.8328,13.8261 4.60447,1.5085 11.61018,0.8619 15.4138,-1.4226 z m -27.6514,-30.78 c 0.45472,-0.8497 2.21923,-3.1537 3.92112,-5.1201 5.84901,-6.758 6.13483,-11.8142 1.09379,-19.3496 -2.34213,-3.501 -3.55112,-4.5922 -5.31955,-4.8013 l -2.28855,-0.2706 0.52211,3.8093 c 0.28717,2.095 1.41121,5.0922 2.49789,6.6602 2.58287,3.7271 2.49252,5.8519 -0.40437,9.5095 -1.94149,2.4514 -2.38015,3.7518 -2.38015,7.0563 0,4.1967 0.92612,5.1812 2.35771,2.5063 z m 62.36458,-6.9083 c 3.88943,-4.2462 5.88881,-9.0395 5.88881,-14.1177 0,-4.3395 -9.4e-4,-4.3411 -5.60133,-9.7276 -3.08072,-2.963 -5.99357,-5.5252 -6.47299,-5.6937 -1.06644,-0.3749 -0.24541,12.5022 0.86812,13.6157 0.43356,0.4336 1.40159,0.3581 2.42377,-0.1889 2.13955,-1.1451 4.81551,-0.3522 4.81551,1.4269 0,0.7422 -1.4779,3.128 -3.28421,5.3018 -3.88518,4.6756 -5.52889,8.2129 -4.91219,10.5711 0.67651,2.587 3.26606,2.0969 6.27451,-1.1876 z m -53.62708,-28.2725 c 0.007,-0.781 -0.70189,-2.8196 -1.57462,-4.5303 -1.91134,-3.7466 -1.90039,-3.54 -0.27387,-5.1665 0.72209,-0.7221 1.48156,-3.0682 1.68771,-5.2137 0.34593,-3.6002 0.24075,-3.9007 -1.36505,-3.9007 -4.54734,0 -7.18923,3.9598 -7.18923,10.7756 0,4.2942 0.17144,4.6789 3.62399,8.1314 2.90898,2.909 3.76753,3.3972 4.35146,2.4741 0.4001,-0.6324 0.73293,-1.7889 0.73961,-2.5699 z m 59.61568,-5.7827 c 0.64591,-7.1439 0.80918,-18.2022 0.27662,-18.7347 -0.74612,-0.7461 -12.27716,11.7258 -12.27716,13.2789 0,1.7118 9.45054,11.622 10.69345,11.2136 0.44583,-0.1465 1.03403,-2.7375 1.30709,-5.7578 z m -63.81544,-20.1134 c 5.63119,-5.3842 7.77047,-10.3245 5.46785,-12.6272 -1.13046,-1.1304 -1.62844,-0.8476 -5.43271,3.0851 -4.85799,5.022 -7.28305,9.561 -6.58792,12.3306 0.26452,1.0539 0.74191,1.9144 1.06086,1.9122 0.31896,0 2.79032,-2.1176 5.49192,-4.7007 z m 59.44261,-3.4151 c 5.60621,-4.9223 6.69867,-11.8592 2.75947,-17.5222 -3.21222,-4.6179 -8.48583,-9.5549 -9.52218,-8.9144 -2.24134,1.3852 0.0606,11.0792 2.86774,12.0768 2.21949,0.7887 4.20109,2.7621 4.20109,4.1837 0,0.711 -1.07289,1.9265 -2.38421,2.7012 -2.71486,1.6037 -4.75624,5.0451 -4.75624,8.0182 0,2.9271 3.16866,2.6752 6.83433,-0.5433 z m -60.2958,-12.5081 c 1.89359,-1.7455 4.1649,-3.1736 5.04737,-3.1736 1.44584,0 1.6045,-0.5099 1.6045,-5.157 0,-6.4225 -0.6461,-6.5315 -7.06309,-1.1912 -4.92936,4.1022 -6.44664,7.289 -5.25624,11.0396 0.74721,2.3542 1.76147,2.0826 5.66746,-1.5178 z m -0.95726,-17.3609 c 3.93483,-5.1136 5.76631,-8.5479 4.97861,-9.3356 -0.27947,-0.2795 -2.25231,-0.6757 -4.38409,-0.8806 -5.17367,-0.4971 -6.47291,1.2251 -6.47291,8.5802 0,7.943 0.84445,8.178 5.87839,1.636 z m 66.63129,1.825 c 0.77585,-2.0218 0.55332,-9.0293 -0.33972,-10.6979 -1.56486,-2.924 -10.28607,-1.5108 -10.28607,1.6667 0,1.803 7.54953,10.2862 9.15411,10.2862 0.54455,0 1.20681,-0.5648 1.47168,-1.255 z" id="SvgjsPath1239"></path><path style="fill:#ef9f48;fill-opacity:0.976471;stroke:#000000;stroke-width:5;stroke-dasharray:none;stroke-opacity:0.988235;paint-order:stroke markers fill" d="m 299.09981,2634.8743 c -6.07387,-2.8284 -8.96552,-6.8605 -8.3258,-11.6097 0.33756,-2.5058 1.49056,-2.3397 5.23453,0.7541 2.49103,2.0585 6.04854,3.9245 9.97461,5.232 6.74616,2.2467 8.17739,3.8629 5.40717,6.1061 -2.4082,1.95 -7.49559,1.7503 -12.29051,-0.4825 z" id="SvgjsPath1238"></path><path style="fill:#ef9f48;fill-opacity:0.976471;stroke:#000000;stroke-width:5;stroke-dasharray:none;stroke-opacity:0.988235;paint-order:stroke markers fill" d="m 383.63537,2655 c -11.26358,-0.5369 -10.83232,0.5073 -9.09945,-22.0335 1.84998,-24.0642 2.46376,-61.7971 1.68494,-103.5838 -0.36461,-19.5625 -0.42497,-35.807 -0.13415,-36.0989 0.8675,-0.8707 30.01144,-1.0925 32.23944,-0.2454 1.8717,0.7116 2.07118,1.2482 2.4508,6.5918 0.22729,3.1994 0.12096,10.2798 -0.23628,15.7343 -2.49187,38.0463 -2.44962,91.983 0.0734,93.7 2.68756,1.8291 13.03927,-0.081 24.75715,-4.5674 5.84631,-2.2385 5.86327,-2.1729 4.2817,16.5574 -1.81325,21.4742 -2.88277,31.0487 -3.54567,31.7415 -1.48231,1.5492 -35.88888,2.9944 -52.47187,2.204 z m 38.15451,-12.8041 c 1.48329,-0.4968 3.48479,-1.6156 4.44779,-2.4863 2.1196,-1.9164 3.58754,-8.3285 3.25132,-14.2021 -0.21219,-3.7069 -0.43696,-4.1988 -1.82869,-4.0027 -0.87272,0.123 -4.02459,0.637 -7.00416,1.1422 -6.02794,1.0222 -14.98017,0 -16.91311,-1.935 -1.86379,-1.8638 -2.75545,-23.4459 -2.91017,-70.4386 -0.14568,-44.248 -0.16805,-44.8262 -1.73435,-44.8262 -1.37441,0 -1.69414,0.7964 -2.38905,5.9504 -0.69766,5.1744 -1.02393,5.9821 -2.50189,6.1939 -1.06173,0.1521 -2.175,-0.4353 -2.96629,-1.565 -1.69333,-2.4176 -1.6139,-3.1024 0.76668,-6.6104 2.28491,-3.367 1.7796,-4.6346 -1.68595,-4.2292 -1.70497,0.1994 -2.37558,0.8175 -2.8649,2.6405 -0.35137,1.3091 -1.03771,26.1221 -1.52519,55.1401 -0.88034,52.4038 -0.44613,74.3735 1.50856,76.3282 0.46278,0.4627 7.12945,1.2861 14.81482,1.8298 7.68538,0.5436 14.19512,1.21 14.4661,1.481 0.71556,0.7156 2.02223,0.6097 5.06848,-0.4106 z" id="SvgjsPath1237"></path><path style="fill:#ef9f48;fill-opacity:0.976471;stroke:#000000;stroke-width:5;stroke-dasharray:none;stroke-opacity:0.988235;paint-order:stroke markers fill" d="m 397.01588,2635.4558 c -1.85454,-0.077 -3.79709,-0.252 -4.31679,-0.3884 -1.20461,-0.3162 -1.83292,-1.0522 -2.13325,-2.4988 -0.54823,-2.6408 0.39457,-3.548 4.32599,-4.1627 1.94627,-0.3043 15.40494,-0.6496 26.10133,-0.6696 l 4.73774,-0.01 -0.0989,1.8347 c -0.11942,2.2158 -0.62885,4.1324 -1.25466,4.7203 -0.25381,0.2385 -0.98013,0.5582 -1.61403,0.7106 -2.2828,0.5486 -17.23213,0.8173 -25.74744,0.4628 z" id="SvgjsPath1236"></path><path style="fill:#ef9f48;fill-opacity:0.976471;stroke:#000000;stroke-width:5;stroke-dasharray:none;stroke-opacity:0.988235;paint-order:stroke markers fill" d="m 392.80897,2622.1858 c -2.09534,-1.2943 -2.99943,-5.4644 -2.77395,-12.7949 0.21515,-6.9945 1.51879,-12.6337 3.36111,-14.5393 1.04899,-1.085 1.98151,-0.7094 2.35397,0.9483 0.70438,3.135 1.27794,19.474 0.78332,22.3143 -0.58232,3.3439 -2.14205,5.049 -3.72445,4.0716 z" id="SvgjsPath1235"></path><path style="fill:#ef9f48;fill-opacity:0.976471;stroke:#000000;stroke-width:5;stroke-dasharray:none;stroke-opacity:0.988235;paint-order:stroke markers fill" d="m 390.12901,2588.1078 c -0.15828,-0.3713 -0.23584,-2.3179 -0.24302,-6.0991 -0.0108,-5.6802 0.0811,-6.4462 0.77318,-6.4462 0.42582,0 3.17645,1.9088 4.14208,2.8745 1.6685,1.6685 2.05498,3.4661 1.13038,5.2577 -0.50281,0.9742 -2.82191,3.4866 -4.05292,4.3905 -0.97646,0.7171 -1.45112,0.7232 -1.7497,0.023 z" id="SvgjsPath1234"></path><path style="fill:#ef9f48;fill-opacity:0.976471;stroke:#000000;stroke-width:5;stroke-dasharray:none;stroke-opacity:0.988235;paint-order:stroke markers fill" d="m 393.93215,2535.4259 c -2.76068,-0.9872 -4.33965,-3.6876 -4.09535,-7.0037 0.11285,-1.5318 0.62237,-2.9174 1.29115,-3.511 1.06033,-0.9413 3.10801,0.5748 4.38353,3.2455 0.61075,1.2788 0.72058,1.7279 0.77886,3.1848 0.0788,1.9687 -0.19903,3.2134 -0.866,3.8804 -0.54104,0.541 -0.54741,0.5419 -1.49219,0.204 z" id="SvgjsPath1233"></path><path style="fill:#ef9f48;fill-opacity:0.976471;stroke:#000000;stroke-width:5;stroke-dasharray:none;stroke-opacity:0.988235;paint-order:stroke markers fill" d="m 393.50966,2569.0292 c -1.85408,-1.9066 -2.7268,-4.1576 -3.41943,-8.8198 -1.2949,-8.7161 -0.4553,-19.3626 1.56701,-19.8702 0.50484,-0.1267 1.41462,0.2721 1.91503,0.8396 0.55381,0.6279 1.33818,2.3624 1.75295,3.8762 0.78214,2.8547 1.02565,5.2298 1.13488,11.0696 0.1646,8.7994 -0.33874,13.852 -1.39975,14.0509 -0.24349,0.046 -0.77028,-0.3438 -1.55069,-1.1463 z" id="SvgjsPath1232"></path><path style="fill:#ef9f48;fill-opacity:0.976471;stroke:#000000;stroke-width:5;stroke-dasharray:none;stroke-opacity:0.988235;paint-order:stroke markers fill" d="m 478.33765,2657.2702 c -7.94298,-0.8193 -16.77002,-3.523 -21.60975,-6.6189 -1.65963,-1.0617 -3.4365,-2.8187 -4.02674,-3.9819 -0.43684,-0.8608 -0.49977,-1.2273 -0.47681,-2.7768 0.0145,-0.9818 0.0735,-2.2314 0.13108,-2.7768 0.24412,-2.314 0.90168,-19.1833 1.30275,-33.4213 0.333,-11.822 0.46517,-48.6718 0.20382,-56.8261 -0.2249,-7.0169 -0.48075,-10.9673 -0.78459,-12.1141 -0.27226,-1.0277 -0.83768,-1.1481 -5.78088,-1.2317 -2.88261,-0.049 -7.2513,0.071 -12.33828,0.3377 -4.33153,0.2272 -8.16005,0.4132 -8.50781,0.4132 h -0.63231 l 0.1314,-4.3141 c 0.0723,-2.3727 0.26424,-8.6875 0.4266,-14.0329 0.4009,-13.1982 0.79438,-20.4232 1.31597,-24.163 0.1803,-1.2928 0.28698,-1.5784 0.63968,-1.7125 4.93961,-1.878 81.37007,-2.5353 85.21225,-0.7328 0.62243,0.2921 0.86915,1.2247 1.16788,4.4147 0.43754,4.6723 0.61346,10.258 0.61463,19.5159 10e-4,11.6615 -0.36755,18.3866 -1.06097,19.3349 -0.30922,0.4229 -1.52351,0.5808 -9.94163,1.2928 -6.73479,0.5697 -10.63859,1.014 -11.89823,1.3542 -0.77505,0.2094 -0.81833,0.4456 -1.13285,6.1832 -0.33268,6.0688 -0.33064,51.165 0.003,65.3549 0.43624,18.5565 0.75932,25.7877 1.43118,32.0329 0.5262,4.8913 0.76962,9.0164 0.59825,10.1384 -0.28802,1.8858 -1.9671,3.1584 -5.21526,3.9527 -1.93726,0.4738 -6.95862,0.6677 -9.77233,0.3774 z m -5.05782,-15.2815 c 3.76361,-0.1253 6.88756,-0.2688 6.9421,-0.3189 0.0546,-0.05 0.15647,-22.2861 0.22649,-49.4132 0.0824,-31.9373 0.20436,-50.6503 0.34592,-53.0906 0.61508,-10.6025 1.59693,-14.2026 4.26243,-15.6284 0.80885,-0.4327 0.91913,-0.4376 9.84275,-0.4405 9.15922,0 10.74227,-0.1116 11.29222,-0.7742 0.43548,-0.5247 0.62245,-2.5282 0.63082,-6.76 0.009,-4.6282 -0.13058,-6.6474 -0.4938,-7.1353 -0.18151,-0.2437 -1.17652,-0.3353 -5.37969,-0.495 -6.90555,-0.2624 -21.54515,-0.5535 -39.8675,-0.7929 -8.29086,-0.1083 -16.91077,-0.2461 -19.15536,-0.3063 l -4.08107,-0.1095 -0.24356,3.6261 c -0.28309,4.2146 -0.77512,9.2555 -1.00632,10.3096 -0.19377,0.8836 0.11677,1.4331 0.92703,1.6405 0.30314,0.078 5.01395,0.2065 10.46845,0.2864 11.43084,0.1674 11.62686,0.1922 14.5064,1.8364 0.96688,0.5521 1.7797,1.0227 1.80628,1.0458 0.0266,0.023 0.26784,10.2995 0.53614,22.8365 0.90099,42.0998 1.44149,57.5341 2.07477,59.2461 0.12534,0.3388 0.30187,0.1265 1.07632,-1.2943 2.55672,-4.6903 7.27321,-10.9323 8.89383,-11.7703 0.54689,-0.2828 0.57253,-0.2742 0.77575,0.2593 0.4813,1.2637 -1.01651,6.9909 -2.69879,10.3195 -0.70196,1.3889 -1.45996,2.3914 -3.7873,5.0091 -4.44049,4.9945 -5.46989,6.4765 -6.16117,8.87 -0.28699,0.9936 -0.34187,2.6354 -0.41156,12.3124 l -0.0804,11.1659 0.95795,-0.1032 c 0.52687,-0.057 4.03727,-0.2056 7.80088,-0.3309 z" id="SvgjsPath1231"></path><path style="fill:#ef9f48;fill-opacity:0.976471;stroke:#000000;stroke-width:5;stroke-dasharray:none;stroke-opacity:0.988235;paint-order:stroke markers fill" d="m 444.91638,2517.8269 c -1.03358,-0.1323 -1.38032,-0.2702 -1.74853,-0.6953 -0.38372,-0.443 -0.43766,-0.6646 -0.32785,-1.347 0.27422,-1.7041 1.00947,-2.4048 3.16824,-3.0192 0.99134,-0.2822 2.38501,-0.353 8.37916,-0.4256 l 7.19003,-0.087 v 2.8948 2.8946 l -7.6859,-0.025 c -4.22724,-0.014 -8.26606,-0.1 -8.97515,-0.1902 z" id="SvgjsPath1230"></path><path style="fill:#ef9f48;fill-opacity:0.976471;stroke:#000000;stroke-width:5;stroke-dasharray:none;stroke-opacity:0.988235;paint-order:stroke markers fill" d="m 470.60216,2518.8448 c -1.68452,-0.362 -2.50515,-0.8296 -3.09851,-1.7652 -1.06098,-1.673 -0.56567,-3.2545 1.31369,-4.1944 0.8492,-0.4247 1.26177,-0.4958 2.87573,-0.4953 1.59266,4e-4 2.01862,0.072 2.7523,0.4631 1.58216,0.8431 2.25462,1.8519 2.23306,3.3502 -0.0158,1.0946 -0.4743,1.9509 -1.2632,2.3589 -0.73477,0.3799 -3.58259,0.5472 -4.81307,0.2827 z" id="SvgjsPath1229"></path><path style="fill:#ef9f48;fill-opacity:0.976471;stroke:#000000;stroke-width:5;stroke-dasharray:none;stroke-opacity:0.988235;paint-order:stroke markers fill" d="m 492.61855,2518.8154 c -5.76797,-0.2411 -8.14991,-0.8453 -9.04546,-2.2943 -0.28874,-0.4672 -0.51466,-1.3356 -0.68006,-2.614 -0.13622,-1.053 -0.2351,-1.9291 -0.21973,-1.947 0.0283,-0.033 1.78387,0.092 8.95352,0.6379 6.48269,0.4936 9.40276,1.0634 10.82044,2.1115 0.62658,0.4633 1.17948,1.6452 1.17948,2.5214 0,1.7555 -1.55675,1.9796 -11.00819,1.5845 z" id="SvgjsPath1228"></path><path style="fill:#ef9f48;fill-opacity:0.976471;stroke:#000000;stroke-width:5;stroke-dasharray:none;stroke-opacity:0.988235;paint-order:stroke markers fill" d="m 474.15657,2549.2052 c -2.00863,-1.2249 -4.0275,-5.6159 -4.9349,-10.7334 -0.23556,-1.3285 -0.36767,-3.5664 -0.44786,-7.5867 l -0.11375,-5.7025 h 3.87708 3.87709 l 0.15964,2.3306 c 0.0878,1.2818 0.16355,6.0793 0.16833,10.6611 0.008,7.406 -0.03,8.4556 -0.34018,9.458 -0.21526,0.6957 -0.54833,1.2844 -0.86972,1.5372 -0.63285,0.4978 -0.61859,0.4974 -1.37573,0.036 z" id="SvgjsPath1227"></path><path style="fill:#ef9f48;fill-opacity:0.976471;stroke:#000000;stroke-width:5;stroke-dasharray:none;stroke-opacity:0.988235;paint-order:stroke markers fill" d="m 473.57506,2570.529 c -0.43803,-0.6685 -0.69192,-1.6615 -0.69192,-2.7062 0,-1.0053 -0.42913,-1.7809 -0.98534,-1.7809 -0.82979,0 -1.88184,-1.9853 -2.52261,-4.7603 -0.36082,-1.5627 -0.60002,-8.5104 -0.31079,-9.0272 0.16387,-0.2928 0.40094,-0.036 1.49009,1.6122 0.71237,1.0783 2.12004,2.853 3.12816,3.9439 2.61125,2.8257 2.67154,2.9891 2.67154,7.2396 0,3.1043 -0.0438,3.5659 -0.41504,4.3678 -0.22827,0.4932 -0.56935,1.0511 -0.75796,1.2397 -0.49121,0.4912 -1.23926,0.4313 -1.60613,-0.1286 z" id="SvgjsPath1226"></path><path style="fill:#ef9f48;fill-opacity:0.976471;stroke:#000000;stroke-width:5;stroke-dasharray:none;stroke-opacity:0.988235;paint-order:stroke markers fill" d="m 468.78655,2584.8386 c 0.13397,-8.2378 0.2951,-10.2683 0.86534,-10.9051 0.26817,-0.2995 0.36601,-0.3072 0.8256,-0.065 1.10116,0.58 4.3854,4.4874 5.31713,6.326 1.66831,3.2923 0.0596,7.0963 -4.63984,10.9714 -1.03625,0.8545 -2.02316,1.6332 -2.19313,1.7305 -0.27859,0.1595 -0.29584,-0.6341 -0.1751,-8.0576 z" id="SvgjsPath1225"></path><path style="fill:#ef9f48;fill-opacity:0.976471;stroke:#000000;stroke-width:5;stroke-dasharray:none;stroke-opacity:0.988235;paint-order:stroke markers fill" d="m 469.43695,2636.0854 c -0.78826,-0.871 -1.40131,-5.6414 -1.28337,-9.9865 l 0.0684,-2.521 0.81629,-0.8508 c 0.44896,-0.468 1.69261,-1.963 2.76368,-3.3223 1.07106,-1.3592 2.34384,-2.8678 2.82839,-3.3523 0.79007,-0.7901 0.90145,-0.8445 1.07914,-0.527 0.75975,1.3576 0.4501,12.6468 -0.47886,17.4581 -0.17717,0.9175 -0.37922,1.3325 -0.88242,1.8124 -0.90002,0.8582 -2.34248,1.5173 -3.53727,1.6164 -0.82699,0.069 -1.06789,0.011 -1.37401,-0.327 z" id="SvgjsPath1224"></path><path style="fill:#ef9f48;fill-opacity:0.976471;stroke:#000000;stroke-width:5;stroke-dasharray:none;stroke-opacity:0.988235;paint-order:stroke markers fill" d="m 556.19678,2656.6683 c -5.27103,-0.6819 -10.91969,-2.6555 -13.86224,-4.8435 -0.6167,-0.4585 -1.67048,-1.3742 -2.34173,-2.0347 -0.8979,-0.8837 -1.53228,-1.3148 -2.40035,-1.6313 -1.57902,-0.5757 -3.18556,-1.9321 -5.7272,-4.8353 -5.26441,-6.0132 -7.61437,-10.3662 -8.81941,-16.3368 -0.66245,-3.2823 -0.74205,-9.5915 -0.20211,-16.0195 0.89532,-10.6586 1.20852,-26.3567 1.20898,-60.5946 3.3e-4,-24.6018 -0.19467,-39.2504 -0.60333,-45.322 -0.11013,-1.6364 -0.25488,-4.423 -0.32166,-6.1926 -0.17207,-4.5595 0.19083,-5.3701 2.71812,-6.0716 1.93925,-0.5382 4.00832,-0.5729 18.72192,-0.3137 l 14.49661,0.2554 -0.0427,12.4091 c -0.10302,29.9029 -0.47359,80.4289 -0.65812,89.7317 -0.11072,5.5814 -0.29624,10.6238 -0.41227,11.2055 -0.26052,1.3058 -0.11151,2.0168 0.4227,2.0168 0.27664,0 0.39291,-0.1337 0.39291,-0.4518 0,-0.9888 1.02834,-1.7118 1.54392,-1.0854 0.11224,0.1364 0.26878,0.6942 0.34787,1.2397 0.36139,2.4923 2.04472,4.0419 5.19485,4.7821 2.06387,0.4849 6.14383,0.2895 8.47372,-0.4059 3.89186,-1.1615 6.8478,-3.3295 8.0292,-5.8889 0.66743,-1.4459 0.88527,-3.0095 1.19857,-8.603 0.73151,-13.0598 1.06172,-34.2126 0.93551,-59.9282 -0.10322,-21.0323 -0.21317,-25.3136 -0.83973,-32.6992 -0.16658,-1.9637 -0.35801,-5.3637 -0.4254,-7.5557 l -0.12253,-3.9855 0.47656,-0.1272 c 1.35805,-0.3627 8.98825,-0.5973 19.91444,-0.6124 11.08544,-0.015 12.22942,0.014 13.65475,0.348 l 1.55565,0.3648 -0.12288,3.1063 c -0.16014,4.0481 -0.66335,23.2014 -0.9206,35.04 -0.11142,5.1272 -0.25351,24.5403 -0.31576,43.1402 -0.11772,35.1718 0.043,50.9483 0.64844,63.669 0.36729,7.7165 0.29983,12.3463 -0.19937,13.683 -0.36933,0.989 -1.1191,1.871 -1.96691,2.3137 -1.04374,0.545 -3.41289,0.8399 -8.47437,1.0545 -7.29579,0.3095 -12.03925,0.5778 -14.86714,0.841 -1.36363,0.127 -2.75494,0.2305 -3.0918,0.2301 -1.35128,0 -3.25475,-1.8642 -4.03424,-3.9476 -0.36385,-0.9725 -0.4111,-1.5396 -0.4111,-4.9343 0,-2.1095 -0.0548,-4.1093 -0.12168,-4.4439 l -0.12167,-0.6084 -2.32488,2.0751 c -5.82168,5.1961 -13.38999,10.4535 -16.37603,11.3758 -2.46895,0.7626 -6.57077,1.0098 -9.80747,0.5912 z m 3.08381,-14.058 c 2.24971,-0.5589 6.15126,-2.6031 10.15031,-5.3183 15.93213,-10.8171 18.05027,-12.345 20.96936,-15.1258 2.08085,-1.9824 2.58327,-2.2384 3.1118,-1.5857 0.8507,1.0506 1.09671,3.4016 1.37739,13.163 0.126,4.382 0.23917,7.9787 0.25148,7.9925 0.0123,0.014 1.79315,0.1351 3.95741,0.2692 6.10425,0.3783 7.26523,0.114 8.26324,-1.8815 0.48249,-0.9647 0.49569,-1.1037 0.48919,-5.1567 -0.004,-2.2909 -0.11608,-12.5553 -0.24979,-22.8097 -0.38028,-29.1633 0.018,-84.1165 0.64704,-89.2777 0.62223,-5.1052 0.92007,-12.903 0.57302,-15.0026 l -0.12294,-0.7438 h -1.45655 c -1.39092,0 -1.46935,0.025 -1.74068,0.5494 -0.44185,0.8545 -0.69819,2.5869 -1.0193,6.8885 -0.44776,5.9984 -1.07582,9.1784 -2.31447,11.7188 -0.62381,1.2794 -1.88386,2.6613 -2.42664,2.6613 -0.52447,0 -0.81681,-2.6854 -1.10119,-10.1156 -0.3257,-8.5093 -0.68417,-12.3318 -1.31701,-14.0436 -0.97631,-2.6408 -2.00622,1.3822 -2.45275,9.5808 -0.43774,8.0374 -0.0448,25.4498 0.5977,26.4895 0.27225,0.4405 0.97037,-0.1971 3.98493,-3.6394 2.81129,-3.2102 3.93398,-4.2577 4.31253,-4.0237 0.32057,0.1981 0.62172,2.0188 0.62172,3.7588 0,3.0877 -0.36667,3.7912 -5.95823,11.4311 -2.78603,3.8066 -4.3621,7.803 -4.0562,10.2852 0.3179,2.5796 1.23007,4.2564 3.85046,7.0779 2.55376,2.7497 3.80993,4.928 4.11177,7.1302 0.13968,1.0191 -0.3236,2.7263 -0.98159,3.6174 l -0.47245,0.6398 -0.596,-0.4415 c -1.23155,-0.9122 -3.07445,-3.3196 -3.79219,-4.9538 -1.20334,-2.7399 -1.60577,-0.1454 -2.42278,15.6198 -0.80696,15.5711 -1.43133,22.5812 -2.27932,25.5907 -0.25338,0.8993 -0.46693,1.1494 -2.20128,2.5785 -4.47287,3.6856 -7.51944,5.7199 -11.68848,7.8047 -3.62066,1.8106 -6.12687,2.203 -14.09073,2.2059 h -4.57727 l -2.57537,-2.6281 c -2.91638,-2.976 -3.52541,-3.7934 -4.73985,-6.3613 -2.16369,-4.575 -3.20174,-10.5865 -3.39683,-19.6716 -0.10493,-4.8865 -0.0202,-7.3163 0.55807,-16.0112 0.40445,-6.0809 -0.3231,-35.0272 -1.5219,-60.5502 -0.44948,-9.5697 -0.8038,-13.9834 -1.12253,-13.9834 -0.57124,0 -1.07025,2.5042 -1.35216,6.7855 -0.11286,1.7138 -0.33443,3.8572 -0.49238,4.7629 -0.62316,3.5735 -2.01089,7.3354 -3.15326,8.548 -1.29956,1.3794 -1.70394,0.1083 -1.85016,-5.8155 -0.10834,-4.3891 0.0907,-7.7391 0.65382,-11.0029 0.38097,-2.2082 0.26141,-2.9759 -0.53928,-3.4628 -0.88165,-0.5362 -2.05175,-0.6729 -2.73498,-0.3196 -1.2985,0.6715 -1.70666,4.1913 -1.50751,13.0002 0.21849,9.6644 0.65072,22.6306 0.75796,22.7378 0.0552,0.055 0.81858,-0.9547 1.69632,-2.2444 2.42078,-3.5568 5.61659,-7.0059 6.4914,-7.0059 0.48154,0 0.87589,0.8568 0.87589,1.903 0,1.2604 -0.74386,4.2521 -1.57766,6.3452 -0.89419,2.2447 -2.02302,4.0558 -3.61586,5.8015 -3.21547,3.5239 -4.22034,5.7792 -4.22508,9.4827 -0.002,1.8976 0.0506,2.2694 0.37502,2.6281 1.06026,1.1724 3.01481,-0.2382 5.4673,-3.9458 1.6068,-2.4291 2.98705,-3.595 3.76376,-3.1793 0.88784,0.4751 1.39901,3.4644 1.02004,5.9649 -0.37361,2.4652 -1.1529,3.6628 -5.47948,8.421 -3.20222,3.5216 -4.05883,4.7947 -4.05782,6.0307 9.1e-4,1.1136 0.24458,1.5167 2.4691,4.0849 3.86434,4.4613 6.35899,9.1692 6.7663,12.7693 0.15681,1.3861 -0.17208,3.0107 -0.70758,3.4953 -0.3411,0.3087 -0.41286,0.3081 -1.08286,-0.01 -1.69163,-0.8027 -3.91748,-3.3928 -5.03311,-5.8567 -0.67531,-1.4915 -1.38078,-2.2277 -2.04422,-2.1334 -0.88105,0.1252 -1.34894,1.9025 -1.89722,7.2064 -0.51083,4.9416 -0.50746,23.0457 0.005,28.044 0.45027,4.3899 0.82027,6.1862 1.56449,7.5954 1.15147,2.1803 6.48092,8.3808 9.36178,10.8919 1.41521,1.2335 3.71124,2.6206 7.09262,4.2849 1.87547,0.923 3.47438,1.0499 5.8365,0.4631 z" id="SvgjsPath1223"></path><path style="fill:#ef9f48;fill-opacity:0.976471;stroke:#000000;stroke-width:5;stroke-dasharray:none;stroke-opacity:0.988235;paint-order:stroke markers fill" d="m 538.11551,2610.3215 c -0.31283,-0.9228 -0.30401,-5.0517 0.0158,-7.3873 0.23685,-1.7298 1.55017,-6.0018 1.8154,-5.9052 0.0814,0.03 0.87988,0.8573 1.77433,1.8391 0.89445,0.9818 2.42081,2.6477 3.39191,3.7021 l 1.76562,1.9169 -2.93182,2.453 c -2.7895,2.3339 -4.18899,3.3934 -5.14818,3.8975 -0.3938,0.2069 -0.45312,0.1621 -0.68305,-0.5161 z" id="SvgjsPath1222"></path><path style="fill:#ef9f48;fill-opacity:0.976471;stroke:#000000;stroke-width:5;stroke-dasharray:none;stroke-opacity:0.988235;paint-order:stroke markers fill" d="m 557.72308,2637.562 c -2.402,-0.9878 -5.28881,-2.9919 -11.74498,-8.1537 -6.22399,-4.9762 -7.26555,-6.367 -6.37111,-8.5077 0.42003,-1.0053 2.94527,-4.6761 3.79747,-5.5202 0.41301,-0.4091 0.94169,-0.7438 1.17483,-0.7438 0.62844,0 1.52437,1.0575 2.68853,3.1735 2.82293,5.131 6.85588,9.5019 14.27181,15.4677 1.63198,1.3129 3.06539,2.5705 3.18536,2.7946 0.32822,0.6133 -0.0349,0.9059 -1.82631,1.4718 -2.04266,0.6453 -3.6363,0.6508 -5.1756,0.018 z" id="SvgjsPath1221"></path><path style="fill:#ef9f48;fill-opacity:0.976471;stroke:#000000;stroke-width:5;stroke-dasharray:none;stroke-opacity:0.988235;paint-order:stroke markers fill" d="m 600.49286,2634.2236 c -1.46466,-1.286 -2.32731,-4.3916 -2.86949,-10.3303 -0.28691,-3.1426 -0.1376,-8.5894 0.31627,-11.5377 0.18473,-1.2 0.35881,-2.2058 0.38685,-2.2351 0.12678,-0.1328 3.13326,4.3785 3.55399,5.3328 1.03186,2.3405 1.5149,6.0511 1.52035,11.6791 0.004,4.4298 -0.31434,6.2967 -1.24403,7.2892 -0.55586,0.5934 -0.79499,0.5649 -1.66394,-0.198 z" id="SvgjsPath1220"></path><path style="fill:#ef9f48;fill-opacity:0.976471;stroke:#000000;stroke-width:5;stroke-dasharray:none;stroke-opacity:0.988235;paint-order:stroke markers fill" d="m 601.90707,2604.4868 c -1.08662,-0.6185 -2.93814,-2.2822 -3.38112,-3.0381 -0.91128,-1.555 -1.17823,-3.7147 -1.69189,-13.688 -0.12361,-2.4 -0.19307,-4.6309 -0.15436,-4.9576 0.0663,-0.5599 0.22156,-0.4119 2.70373,2.5785 2.93653,3.5378 3.70169,4.8698 4.02513,7.0071 0.33136,2.1896 0.17095,10.8654 -0.2151,11.634 -0.33386,0.6646 -0.70122,0.7971 -1.28639,0.4641 z" id="SvgjsPath1219"></path><path style="fill:#ef9f48;fill-opacity:0.976471;stroke:#000000;stroke-width:5;stroke-dasharray:none;stroke-opacity:0.988235;paint-order:stroke markers fill" d="m 600.02302,2560.3391 c -1.96856,-0.9837 -1.31157,-3.3428 2.0824,-7.4773 1.65719,-2.0188 1.62561,-2.0734 1.30919,2.2628 -0.22095,3.028 -0.55144,4.5471 -1.12782,5.184 -0.42901,0.4741 -1.35133,0.4865 -2.26377,0.031 z" id="SvgjsPath1218"></path><path style="fill:#ef9f48;fill-opacity:0.976471;stroke:#000000;stroke-width:5;stroke-dasharray:none;stroke-opacity:0.988235;paint-order:stroke markers fill" d="m 654.26141,2656.6652 c -3.39478,-0.2302 -19.03559,-1.5334 -20.22232,-1.6848 -3.39523,-0.4334 -4.9253,-1.9625 -5.55038,-5.547 -0.35871,-2.057 -0.40647,-10.5401 -0.1021,-18.1358 0.62035,-15.481 1.30306,-40.2296 1.58401,-57.4211 0.34276,-20.9738 0.2107,-38.8612 -0.41881,-56.7269 -0.12684,-3.5999 -0.23844,-9.6693 -0.248,-13.4875 -0.0161,-6.4507 0.0104,-7.0182 0.3755,-8.0168 0.21607,-0.591 0.616,-1.2361 0.88873,-1.4335 1.13433,-0.8209 6.15129,-1.2812 17.03134,-1.5625 10.58029,-0.2736 25.62824,0.091 33.24931,0.8051 5.28224,0.495 6.84495,0.9501 11.62523,3.3851 9.0451,4.6075 15.54346,10.9107 19.60978,19.0209 3.20086,6.384 4.6936,13.0243 4.90467,21.818 0.20049,8.3526 -1.0382,17.5263 -3.33873,24.7265 -1.22416,3.8313 -2.09916,5.3469 -3.29655,5.71 -0.26697,0.081 -0.49273,0.3487 -0.56276,0.6675 -0.41569,1.8918 -0.72657,2.5969 -1.59099,3.6088 -0.51155,0.5987 -1.97786,2.3829 -3.25847,3.9647 -2.62936,3.2477 -5.38023,5.9977 -7.43113,7.4285 -2.8348,1.9778 -3.47105,2.8471 -3.47105,4.7425 0,1.466 0.58282,3.2395 2.2234,6.7655 3.07184,6.6022 4.61582,10.3291 5.98316,14.4424 0.9109,2.7401 2.2452,5.8141 9.79025,22.5546 5.94272,13.1853 6.79641,15.4295 6.79641,17.8665 0,2.6394 -1.45586,3.7546 -5.79067,4.4356 -3.3754,0.5303 -13.87253,1.1048 -20.07295,1.0987 -5.80836,-0.01 -8.00148,-0.4004 -9.22225,-1.66 -0.52639,-0.5431 -0.68054,-0.9107 -0.85066,-2.0286 -0.45183,-2.969 -4.44843,-18.5755 -7.8163,-30.5221 -3.43716,-12.1924 -5.27633,-16.9585 -6.54393,-16.9585 -0.67595,0 -1.01286,0.6482 -1.35416,2.6053 -0.5916,3.3925 -0.73742,9.0757 -0.68123,26.5515 0.0583,18.1234 -5e-4,19.6078 -0.84159,21.2564 -0.91316,1.79 -3.88108,2.2408 -11.39676,1.731 z m -1.20404,-14.2796 c 0.96922,-0.1064 1.9179,-0.2769 2.10819,-0.3787 0.27521,-0.1473 0.37153,-0.5617 0.47083,-2.0258 0.16601,-2.4476 0.46758,-14.7913 0.71611,-29.3114 0.22828,-13.3375 0.54309,-25.081 0.70551,-26.3185 0.0949,-0.7233 0.1913,-0.8564 0.74335,-1.0271 1.67564,-0.5181 4.85075,-0.8253 8.70556,-0.8422 2.95927,-0.013 3.22871,0.017 4.08237,0.4565 2.58047,1.3279 6.19937,8.5607 9.75682,19.4999 1.32335,4.0693 2.69339,8.9417 5.15889,18.347 1.08694,4.1464 1.77857,6.2455 3.85576,11.7024 3.11803,8.1912 4.83536,10.3156 8.33668,10.3129 3.69739,0 4.20555,-0.9292 2.61098,-4.7592 -0.47689,-1.1455 -1.6033,-3.7785 -2.50313,-5.8512 -0.89984,-2.0727 -2.68525,-6.4463 -3.96757,-9.719 -1.28233,-3.2727 -2.9178,-7.3525 -3.63438,-9.0663 -0.71659,-1.7139 -2.25427,-5.5965 -3.41707,-8.6281 -2.88504,-7.5217 -4.54722,-11.6603 -6.23662,-15.5285 -3.58409,-8.2062 -3.51175,-9.1925 0.83886,-11.4374 3.49064,-1.8012 7.31346,-5.0828 11.18016,-9.5973 7.13883,-8.3349 13.71931,-19.564 16.09256,-27.4608 0.65654,-2.1846 0.83337,-5.1817 0.36677,-6.2164 -0.3753,-0.8323 -1.18861,-1.4199 -1.96517,-1.4199 -0.66719,0 -0.98506,-0.4785 -2.7721,-4.1724 -2.31986,-4.7952 -4.60251,-8.034 -7.89651,-11.204 -6.748,-6.4939 -15.06671,-10.1966 -26.35537,-11.7311 -1.78873,-0.2431 -3.88813,-0.3373 -7.53714,-0.3381 -6.78535,0 -10.58773,0.4513 -19.02272,2.2647 l -3.04087,0.6538 0.11047,57.3376 c 0.0992,51.5029 0.27308,71.7659 0.63939,74.5242 0.12021,0.9052 0.14493,0.9323 1.34626,1.4752 0.74887,0.3384 1.7626,0.6048 2.61221,0.6864 1.62708,0.1563 5.40779,0.048 7.91092,-0.2272 z" id="SvgjsPath1217"></path><path style="fill:#ef9f48;fill-opacity:0.976471;stroke:#000000;stroke-width:5;stroke-dasharray:none;stroke-opacity:0.988235;paint-order:stroke markers fill" d="m 660.81577,2578.7624 c -1.53285,-0.408 -2.41943,-1.1821 -3.09982,-2.7065 -0.37885,-0.8488 -0.4659,-1.5243 -0.61312,-4.7579 -0.25024,-5.4963 0.21942,-36.563 0.83811,-55.4376 l 0.19179,-5.8512 0.5813,-0.528 c 2.99874,-2.7237 19.21775,1.1551 26.14082,6.2515 1.25674,0.9252 1.5364,1.2377 3.9309,4.3921 0.82808,1.0909 2.10331,2.7091 2.83382,3.5961 7.6647,9.3057 6.66948,25.945 -2.35451,39.3656 -4.55918,6.7805 -10.85039,11.7917 -17.62329,14.0377 -3.81252,1.2643 -9.1796,2.0765 -10.826,1.6382 z m 7.90303,-11.8279 c 1.91368,-0.3953 5.3268,-1.5554 6.36358,-2.163 1.15154,-0.6749 4.30537,-4.0213 5.91469,-6.2759 1.69474,-2.3743 3.39083,-5.7762 3.90161,-7.8255 2.26655,-9.0938 1.18385,-17.382 -2.95023,-22.5843 -3.03347,-3.8173 -7.36091,-5.7507 -13.46605,-6.0163 l -2.8457,-0.1238 0.12359,5.4366 c 0.068,2.9902 0.20898,10.7474 0.31336,17.2382 0.10437,6.4909 0.24762,14.2338 0.31832,17.2065 0.1474,6.1973 -0.11892,5.6127 2.32683,5.1075 z" id="SvgjsPath1216"></path><path style="fill:#ef9f48;fill-opacity:0.976471;stroke:#000000;stroke-width:5;stroke-dasharray:none;stroke-opacity:0.988235;paint-order:stroke markers fill" d="m 700.22953,2545.1249 c -0.68897,-0.8759 -0.93571,-2.3663 -0.92081,-5.5622 0.0187,-4.005 0.69062,-7.3431 1.44876,-7.1971 0.48353,0.093 0.99194,1.1644 1.54668,3.2591 0.42173,1.5925 0.52163,2.4329 0.53927,4.5368 0.0216,2.5739 0.0194,2.5868 -0.67256,3.9669 -0.7936,1.5829 -1.28262,1.8339 -1.94134,0.9965 z" id="SvgjsPath1215"></path><path style="fill:#ef9f48;fill-opacity:0.976471;stroke:#000000;stroke-width:5;stroke-dasharray:none;stroke-opacity:0.988235;paint-order:stroke markers fill" d="m 650.69453,2539.8255 c -3.44105,-3.219 -6.07669,-8.0946 -7.16493,-13.2544 -0.47414,-2.2481 -0.47537,-6.3133 -0.002,-8.2186 1.02869,-4.1445 3.66428,-6.7641 7.0491,-7.0063 2.26191,-0.1618 2.89803,0.5536 2.86731,3.2249 -0.0237,2.0617 -0.67064,4.2269 -2.29131,7.6689 -1.20492,2.559 -1.24543,2.6968 -1.2444,4.2319 10e-4,1.5362 0.0438,1.6803 1.34045,4.5207 2.05141,4.4937 2.75479,7.6666 2.06469,9.3139 -0.46702,1.1148 -1.02136,1.0129 -2.61843,-0.481 z" id="SvgjsPath1214"></path><path style="fill:#ef9f48;fill-opacity:0.976471;stroke:#000000;stroke-width:5;stroke-dasharray:none;stroke-opacity:0.988235;paint-order:stroke markers fill" d="m 644.36229,2562.0928 c -0.40822,-0.7894 -0.85152,-3.4597 -1.10838,-6.6764 -0.36546,-4.5768 0.27079,-7.9187 1.80046,-9.457 0.62608,-0.6296 0.87061,-0.7438 1.59289,-0.7438 1.17932,0 2.36068,0.626 3.7351,1.9792 1.737,1.7103 2.29924,2.78 2.30034,4.3769 0.001,2.0962 -1.31815,4.4274 -4.90955,8.673 -2.11684,2.5025 -2.8633,2.9069 -3.41086,1.8481 z" id="SvgjsPath1213"></path><path style="fill:#ef9f48;fill-opacity:0.976471;stroke:#000000;stroke-width:5;stroke-dasharray:none;stroke-opacity:0.988235;paint-order:stroke markers fill" d="m 650.57303,2587.2708 c -1.31317,-0.8698 -4.95604,-4.6993 -5.66594,-5.9563 -0.74927,-1.3267 -1.24823,-2.9581 -1.24823,-4.0812 0,-2.1334 1.31103,-4.6503 3.82615,-7.3453 2.92158,-3.1306 4.47426,-4.0762 4.89148,-2.9788 0.35515,0.9341 0.43561,3.2624 0.22707,6.5706 -0.22702,3.6015 -0.56078,5.2519 -1.32626,6.5581 -0.60969,1.0403 -0.602,1.4955 0.0381,2.2562 1.06439,1.265 1.58561,3.7155 1.07558,5.057 -0.25341,0.6665 -0.7217,0.6459 -1.81795,-0.08 z" id="SvgjsPath1212"></path><path style="fill:#ef9f48;fill-opacity:0.976471;stroke:#000000;stroke-width:5;stroke-dasharray:none;stroke-opacity:0.988235;paint-order:stroke markers fill" d="m 645.16557,2609.3712 c -0.94734,-0.9473 -1.39156,-4.7954 -1.40049,-12.1316 -0.006,-5.0904 0.0321,-5.833 0.3154,-6.117 0.29014,-0.2908 0.37956,-0.2934 0.89256,-0.026 0.604,0.315 3.46922,3.1924 4.68536,4.7052 0.98458,1.2247 1.73166,2.8956 1.73401,3.8781 0.003,1.076 -0.59099,2.7506 -1.71142,4.8286 -1.67105,3.0991 -3.28001,5.1694 -4.01753,5.1694 -0.10513,0 -0.32919,-0.1381 -0.49789,-0.3068 z" id="SvgjsPath1211"></path><path style="fill:#ef9f48;fill-opacity:0.976471;stroke:#000000;stroke-width:5;stroke-dasharray:none;stroke-opacity:0.988235;paint-order:stroke markers fill" d="m 648.2883,2635.81 c -3.87776,-4.1129 -5.36031,-9.297 -3.77861,-13.2129 0.89228,-2.209 1.7854,-3.4314 4.70285,-6.4363 l 2.87602,-2.9622 0.13138,0.9669 c 0.40979,3.0159 0.0984,5.975 -1.12792,10.7183 -0.93681,3.6235 -0.91662,4.25 0.20315,6.3042 1.00209,1.8384 1.05408,2.2137 0.48153,3.4759 -1.13409,2.5001 -1.95691,2.7705 -3.4884,1.1461 z" id="SvgjsPath1210"></path><path style="fill:#ef9f48;fill-opacity:0.976471;stroke:#000000;stroke-width:5;stroke-dasharray:none;stroke-opacity:0.988235;paint-order:stroke markers fill" d="m 726.53262,2654.8321 c -1.24494,-0.9287 -1.37696,-14.9021 -0.76641,-81.1152 l 0.73763,-79.9933 30.63255,0.3303 c 27.63329,0.298 30.82856,0.5263 32.63438,2.3318 1.71622,1.716 2.05545,4.5323 2.37775,19.7402 0.44563,21.0269 0.0116,22.0754 -8.67354,20.9552 -2.84161,-0.3665 -8.36247,-0.7825 -12.26859,-0.9244 -9.25176,-0.3361 -10.28917,0.9605 -10.28917,12.8596 v 8.7617 h 11.701 c 9.14125,0 12.08671,0.3857 13.46415,1.7631 1.4438,1.4438 1.76317,4.7665 1.76317,18.3438 v 16.5805 l -10.96564,0.6681 c -6.03111,0.3674 -11.78777,0.9835 -12.79259,1.3691 -2.36766,0.9086 -3.13592,3.9788 -3.15477,12.6075 l -0.0153,7.0126 9.25661,-0.017 c 5.09114,-0.01 12.05388,-0.6761 15.47276,-1.481 7.57739,-1.784 8.92717,-1.4167 8.94449,2.4335 0.0186,4.133 -4.68066,35.6878 -5.51605,37.0395 -0.93715,1.5164 -60.55586,2.2169 -62.54241,0.7349 z m 55.47845,-13.1275 c 0.74053,-0.7406 1.34642,-4.2779 1.34642,-7.8607 v -6.5142 l -9.25661,0.673 c -17.65051,1.2831 -22.22334,-2.6884 -22.07611,-19.1731 0.0991,-11.0902 1.3661,-20.4118 2.99607,-22.0418 0.67713,-0.6771 5.9414,-1.4869 11.69837,-1.7995 5.75696,-0.3127 11.09834,-1.0707 11.86972,-1.6846 0.77138,-0.6139 1.40252,-3.2646 1.40252,-5.8905 0,-2.6259 -0.63114,-5.2754 -1.40252,-5.8879 -0.77138,-0.6125 -5.69422,-1.3825 -10.93963,-1.7111 -12.04306,-0.7544 -13.16514,-1.2407 -14.70286,-6.3732 -1.66931,-5.5716 0.12337,-36.0666 2.27245,-38.6561 1.20004,-1.4459 3.93503,-1.7893 14.25082,-1.7893 h 12.76576 v -7.2175 c 0,-5.9164 -0.35396,-7.3166 -1.96352,-7.7671 -1.07994,-0.3023 -11.64223,-0.891 -23.47175,-1.3082 l -21.50823,-0.7585 0.4861,56.4917 c 0.52728,61.2775 0.95723,77.5826 2.09432,79.4225 1.09005,1.7637 42.36495,1.6198 44.13868,-0.1539 z" id="SvgjsPath1209"></path><path style="fill:#ef9f48;fill-opacity:0.976471;stroke:#000000;stroke-width:5;stroke-dasharray:none;stroke-opacity:0.988235;paint-order:stroke markers fill" d="m 763.95558,2518.0288 c -4.18745,-0.3297 -8.09248,-1.0466 -8.77157,-1.6102 -0.40864,-0.3391 -1.38822,-2.3442 -1.53967,-3.1515 -0.31617,-1.6853 1.55199,-2.1123 7.78161,-1.7783 9.4404,0.506 14.21129,1.4484 16.2081,3.2016 0.54952,0.4825 0.7016,0.7649 0.7016,1.3027 0,1.4035 -0.46944,1.6883 -3.36668,2.0422 -1.9007,0.2321 -8.02926,0.2285 -11.01339,-0.01 z" id="SvgjsPath1208"></path><path style="fill:#ef9f48;fill-opacity:0.976471;stroke:#000000;stroke-width:5;stroke-dasharray:none;stroke-opacity:0.988235;paint-order:stroke markers fill" d="m 746.39122,2533.7446 c -1.05319,-0.6711 -4.68848,-4.4269 -6.11739,-6.3202 -1.26152,-1.6715 -2.14148,-3.3862 -2.30817,-4.4978 -0.3546,-2.3646 1.38877,-4.5993 5.92016,-7.5887 2.38155,-1.5711 4.32227,-2.651 4.76402,-2.651 0.53619,0 0.41317,1.1135 -0.57899,5.2408 -0.50029,2.0811 -0.9587,4.421 -1.01868,5.1998 -0.10272,1.3335 -0.0799,1.4412 0.39292,1.8523 0.77179,0.6711 1.03952,1.9493 1.03952,4.9631 0,2.8359 -0.10743,3.5502 -0.60951,4.0523 -0.41134,0.4113 -0.45743,0.4035 -1.48388,-0.2506 z" id="SvgjsPath1207"></path><path style="fill:#ef9f48;fill-opacity:0.976471;stroke:#000000;stroke-width:5;stroke-dasharray:none;stroke-opacity:0.988235;paint-order:stroke markers fill" d="m 739.75083,2553.4631 c -0.0794,-0.6351 -0.0979,-2.5051 -0.0412,-4.1557 0.15287,-4.4491 0.84469,-6.247 3.34536,-8.6939 1.47304,-1.4414 2.62355,-2.0655 3.26701,-1.7723 0.92573,0.4218 1.16362,1.2761 1.16738,4.1926 0.005,3.7415 -0.15676,4.0489 -4.37345,8.3209 l -3.22088,3.2631 z" id="SvgjsPath1206"></path><path style="fill:#ef9f48;fill-opacity:0.976471;stroke:#000000;stroke-width:5;stroke-dasharray:none;stroke-opacity:0.988235;paint-order:stroke markers fill" d="m 738.73728,2567.527 c -0.39719,-1.0351 1.35679,-5.0257 3.94468,-8.9748 1.70133,-2.5962 2.89234,-3.816 3.72595,-3.816 0.53749,0 0.66282,0.1139 1.03664,0.9421 0.3499,0.7752 0.43862,1.4165 0.50084,3.6198 0.0982,3.4788 -0.11207,3.9406 -2.5502,5.5999 -3.47422,2.3644 -6.32717,3.4909 -6.65791,2.629 z" id="SvgjsPath1205"></path><path style="fill:#ef9f48;fill-opacity:0.976471;stroke:#000000;stroke-width:5;stroke-dasharray:none;stroke-opacity:0.988235;paint-order:stroke markers fill" d="m 746.99701,2580.5888 c -1.2623,-0.1952 -3.01603,-0.7719 -4.51715,-1.4853 -1.58912,-0.7553 -3.41668,-2.2173 -3.41668,-2.7332 0,-0.8036 2.7708,-2.3786 5.11644,-2.9083 1.25518,-0.2835 1.44071,-0.2838 1.98275,0 1.1276,0.5831 2.14619,2.9251 2.3574,5.4203 0.1202,1.4201 0.11672,1.4337 -0.41617,1.6363 -0.29555,0.1124 -0.55388,0.1922 -0.57405,0.1773 -0.0202,-0.015 -0.25981,-0.062 -0.53254,-0.1036 z" id="SvgjsPath1204"></path><path style="fill:#ffffff;stroke:none;stroke-width:0.991729;paint-order:stroke markers fill" d="" id="SvgjsPath1203" transform="translate(-663.5952,2241.9783)"></path><path style="fill:#ef9f48;fill-opacity:0.976471;stroke:#000000;stroke-width:5;stroke-dasharray:none;stroke-opacity:0.988235;paint-order:stroke markers fill" d="m 746.84717,2600.2177 c -0.51758,-0.7304 -1.76886,-2.3593 -2.78061,-3.6198 -2.71074,-3.3771 -3.83229,-5.9864 -3.88733,-9.0437 -0.0305,-1.6944 0.32968,-2.3895 1.33592,-2.5783 1.32044,-0.2477 3.10091,1.0443 4.6681,3.3875 1.9967,2.9853 2.73387,5.8456 2.5162,9.7633 -0.13769,2.4782 -0.33221,3.4191 -0.70688,3.4191 -0.11238,0 -0.62781,-0.5976 -1.1454,-1.3281 z" id="SvgjsPath1202"></path><path style="fill:#ef9f48;fill-opacity:0.976471;stroke:#000000;stroke-width:5;stroke-dasharray:none;stroke-opacity:0.988235;paint-order:stroke markers fill" d="m 741.15715,2616.3677 c -0.40373,-0.6162 -0.9044,-3.0994 -0.90154,-4.4713 0.005,-2.1757 0.82109,-4.2404 2.15276,-5.4435 1.69019,-1.5269 3.2796,-1.4396 5.09798,0.2801 1.21451,1.1487 1.76421,2.1557 1.57916,2.893 -0.23739,0.9459 -1.29642,2.2137 -3.62587,4.3408 -2.29271,2.0935 -3.2907,2.8494 -3.7638,2.8508 -0.13385,5e-4 -0.37626,-0.202 -0.53869,-0.4499 z" id="SvgjsPath1201"></path><path style="fill:#ef9f48;fill-opacity:0.976471;stroke:#000000;stroke-width:5;stroke-dasharray:none;stroke-opacity:0.988235;paint-order:stroke markers fill" d="m 764.64979,2580.7016 c -4.69304,-0.6041 -8.94294,-2.0897 -9.82371,-3.4339 -0.41932,-0.64 -0.96369,-2.6076 -0.82291,-2.9745 0.31813,-0.829 2.24155,-0.8116 10.3491,0.094 7.80931,0.8721 10.01646,1.7591 10.01646,4.0254 0,0.3783 -0.0556,0.8328 -0.12363,1.01 -0.17787,0.4635 -1.39079,1.0286 -2.74552,1.279 -1.33326,0.2464 -4.93557,0.2465 -6.84979,1e-4 z" id="SvgjsPath1200"></path><path style="fill:#ef9f48;fill-opacity:0.976471;stroke:#000000;stroke-width:5;stroke-dasharray:none;stroke-opacity:0.988235;paint-order:stroke markers fill" d="m 762.07129,2639.035 c -4.39,-0.2945 -6.89768,-0.8905 -7.5774,-1.8009 -0.46738,-0.626 -0.52137,-2.1841 -0.0981,-2.8302 0.4371,-0.6671 1.76918,-1.2356 3.57934,-1.5275 2.76781,-0.4464 14.71666,0.092 17.90697,0.8072 1.84963,0.4145 2.65186,1.1368 2.65186,2.3877 0,1.0977 -0.88044,1.698 -3.2727,2.2312 -2.93775,0.6548 -9.18051,1.0015 -13.19,0.7325 z" id="SvgjsPath1199"></path><path style="fill:#ef9f48;fill-opacity:0.976471;stroke:#000000;stroke-width:5;stroke-dasharray:none;stroke-opacity:0.988235;paint-order:stroke markers fill" d="m 744.01031,2638.36 c -2.12559,-1.4443 -3.30763,-5.2676 -3.12161,-10.0966 0.0804,-2.0878 0.16922,-2.6076 0.60977,-3.5699 0.90218,-1.9706 4.18637,-4.8999 5.49356,-4.8999 0.24361,0 0.57204,0.2592 0.81658,0.6446 0.38096,0.6003 0.39809,0.8083 0.24925,3.0248 -0.27965,4.1643 -0.15879,6.4964 0.4523,8.7272 0.29882,1.0909 0.57913,2.4904 0.6229,3.11 0.0773,1.0947 0.0555,1.1527 -0.77001,2.0483 -0.46728,0.5069 -1.09525,1.0487 -1.39549,1.204 -0.85338,0.4413 -2.14865,0.357 -2.95725,-0.1925 z" id="SvgjsPath1198"></path></g></g></svg><style>@media (prefers-color-scheme: light) { :root { filter: none; } }
@media (prefers-color-scheme: dark) { :root { filter: none; } }
</style></svg>